<svg width="539" height="240" viewBox="0 0 539 240" fill="none" xmlns="http://www.w3.org/2000/svg">
<g filter="url(#filter0_d_1186_16840)">
<g filter="url(#filter1_i_1186_16840)">
<path d="M91.458 190V161.135H16.708V138.365L70.528 24.4H98.013L44.193 138.365H91.458V93.515H115.838V138.365H132.283V161.135H115.838V190H91.458Z" fill="#263444" style="fill:#263444;fill:color(display-p3 0.1490 0.2039 0.2667);fill-opacity:1;"/>
</g>
<g filter="url(#filter2_i_1186_16840)">
<path d="M481.458 190V161.135H406.708V138.365L460.528 24.4H488.013L434.193 138.365H481.458V93.515H505.838V138.365H522.283V161.135H505.838V190H481.458Z" fill="#263444" style="fill:#263444;fill:color(display-p3 0.1490 0.2039 0.2667);fill-opacity:1;"/>
</g>
<g filter="url(#filter3_d_1186_16840)">
<path d="M343.965 150L328.002 169.15L347.344 184.137L363.307 164.988L343.965 150Z" fill="#101A25" style="fill:#101A25;fill:color(display-p3 0.0627 0.1020 0.1451);fill-opacity:1;"/>
</g>
<g filter="url(#filter4_d_1186_16840)">
<path d="M345.868 191.163C343.716 189.433 343.373 186.286 345.103 184.134L361.391 163.868C363.121 161.715 366.268 161.373 368.42 163.102L389.466 180.016C397.215 186.244 398.448 197.574 392.22 205.323C385.993 213.071 374.663 214.305 366.914 208.077L345.868 191.163Z" fill="#22303F" style="fill:#22303F;fill:color(display-p3 0.1333 0.1882 0.2471);fill-opacity:1;"/>
</g>
<g filter="url(#filter5_di_1186_16840)">
<path d="M261 183C306.84 183 344 145.84 344 100C344 54.1604 306.84 17 261 17C215.16 17 178 54.1604 178 100C178 145.84 215.16 183 261 183Z" stroke="#263444" style="stroke:#263444;stroke:color(display-p3 0.1490 0.2039 0.2667);stroke-opacity:1;" stroke-width="21"/>
</g>
<g filter="url(#filter6_d_1186_16840)">
<path d="M232.5 110C236.642 110 240 105.971 240 101C240 96.0294 236.642 92 232.5 92C228.358 92 225 96.0294 225 101C225 105.971 228.358 110 232.5 110Z" fill="#243240" style="fill:#243240;fill:color(display-p3 0.1412 0.1961 0.2510);fill-opacity:1;"/>
<path d="M232.5 92.5C236.284 92.5 239.5 96.2163 239.5 101C239.5 105.784 236.284 109.5 232.5 109.5C228.716 109.5 225.5 105.784 225.5 101C225.5 96.2163 228.716 92.5 232.5 92.5Z" stroke="#253240" style="stroke:#253240;stroke:color(display-p3 0.1451 0.1961 0.2510);stroke-opacity:1;"/>
<path d="M232.5 92.5C236.284 92.5 239.5 96.2163 239.5 101C239.5 105.784 236.284 109.5 232.5 109.5C228.716 109.5 225.5 105.784 225.5 101C225.5 96.2163 228.716 92.5 232.5 92.5Z" stroke="black" stroke-opacity="0.2" style="stroke:black;stroke-opacity:0.2;"/>
</g>
<g filter="url(#filter7_d_1186_16840)">
<path d="M287.5 110C291.642 110 295 105.971 295 101C295 96.0294 291.642 92 287.5 92C283.358 92 280 96.0294 280 101C280 105.971 283.358 110 287.5 110Z" fill="#243240" style="fill:#243240;fill:color(display-p3 0.1412 0.1961 0.2510);fill-opacity:1;"/>
<path d="M287.5 92.5C291.285 92.5 294.5 96.2163 294.5 101C294.5 105.784 291.285 109.5 287.5 109.5C283.715 109.5 280.5 105.784 280.5 101C280.5 96.2163 283.715 92.5 287.5 92.5Z" stroke="#253240" style="stroke:#253240;stroke:color(display-p3 0.1451 0.1961 0.2510);stroke-opacity:1;"/>
<path d="M287.5 92.5C291.285 92.5 294.5 96.2163 294.5 101C294.5 105.784 291.285 109.5 287.5 109.5C283.715 109.5 280.5 105.784 280.5 101C280.5 96.2163 283.715 92.5 287.5 92.5Z" stroke="black" stroke-opacity="0.2" style="stroke:black;stroke-opacity:0.2;"/>
</g>
<g filter="url(#filter8_d_1186_16840)">
<path d="M306.467 81.4629C304.26 86.525 295.107 87.6957 288.526 84.8256C281.945 81.9554 277.257 71.025 279.465 65.9629C281.672 60.9007 288.941 67.592 295.522 70.4621C302.104 73.3323 308.675 76.4007 306.467 81.4629Z" fill="#243140" style="fill:#243140;fill:color(display-p3 0.1412 0.1922 0.2510);fill-opacity:1;"/>
<path d="M285.637 65.6887C287.072 66.3774 288.645 67.312 290.296 68.2694C291.937 69.2206 293.648 70.1903 295.323 70.9206C298.628 72.3623 301.85 73.8216 303.978 75.5305C305.037 76.3814 305.784 77.2634 306.149 78.1946C306.505 79.1067 306.512 80.1098 306.009 81.2628C305.004 83.568 302.368 85.0711 299.054 85.6257C295.759 86.177 291.924 85.7623 288.725 84.3674C285.59 83 282.844 79.6709 281.153 76.0066C280.312 74.1831 279.743 72.3012 279.519 70.5775C279.294 68.847 279.42 67.3153 279.923 66.1629C280.17 65.5955 280.473 65.2276 280.805 64.9953C281.135 64.7642 281.529 64.6437 281.997 64.6266C282.962 64.5916 284.189 64.9942 285.637 65.6887Z" fill="#243140" stroke="#253240" style="fill:#243140;fill:color(display-p3 0.1412 0.1922 0.2510);fill-opacity:1;stroke:#253240;stroke:color(display-p3 0.1451 0.1961 0.2510);stroke-opacity:1;"/>
<path d="M285.637 65.6887C287.072 66.3774 288.645 67.312 290.296 68.2694C291.937 69.2206 293.648 70.1903 295.323 70.9206C298.628 72.3623 301.85 73.8216 303.978 75.5305C305.037 76.3814 305.784 77.2634 306.149 78.1946C306.505 79.1067 306.512 80.1098 306.009 81.2628C305.004 83.568 302.368 85.0711 299.054 85.6257C295.759 86.177 291.924 85.7623 288.725 84.3674C285.59 83 282.844 79.6709 281.153 76.0066C280.312 74.1831 279.743 72.3012 279.519 70.5775C279.294 68.847 279.42 67.3153 279.923 66.1629C280.17 65.5955 280.473 65.2276 280.805 64.9953C281.135 64.7642 281.529 64.6437 281.997 64.6266C282.962 64.5916 284.189 64.9942 285.637 65.6887Z" fill="#243140" stroke="black" stroke-opacity="0.2" style="fill:#243140;fill:color(display-p3 0.1412 0.1922 0.2510);fill-opacity:1;stroke:black;stroke-opacity:0.2;"/>
</g>
<g filter="url(#filter9_d_1186_16840)">
<path d="M214.226 79.8831C216.125 85.0688 225.191 86.7878 231.933 84.3186C238.675 81.8494 244.011 71.2208 242.112 66.0351C240.213 60.8494 232.555 67.0914 225.813 69.5605C219.071 72.0297 212.327 74.6974 214.226 79.8831Z" fill="#243140" style="fill:#243140;fill:color(display-p3 0.1412 0.1922 0.2510);fill-opacity:1;"/>
<path d="M235.967 65.3903C234.493 65.9913 232.867 66.8297 231.161 67.6861C229.466 68.537 227.7 69.4019 225.985 70.0302C222.598 71.2705 219.294 72.5334 217.068 74.1113C215.959 74.8969 215.16 75.7324 214.741 76.64C214.33 77.529 214.263 78.5299 214.695 79.711C215.56 82.0724 218.1 83.7314 221.375 84.4843C224.631 85.2326 228.484 85.0495 231.761 83.8494C234.973 82.673 237.914 79.5151 239.823 75.9591C240.772 74.1895 241.452 72.3452 241.78 70.6381C242.109 68.9243 242.075 67.3878 241.642 66.2072C241.429 65.6259 241.149 65.2405 240.832 64.9887C240.516 64.7381 240.131 64.5942 239.664 64.549C238.703 64.4561 237.454 64.7841 235.967 65.3903Z" fill="#243140" stroke="#253240" style="fill:#243140;fill:color(display-p3 0.1412 0.1922 0.2510);fill-opacity:1;stroke:#253240;stroke:color(display-p3 0.1451 0.1961 0.2510);stroke-opacity:1;"/>
<path d="M235.967 65.3903C234.493 65.9913 232.867 66.8297 231.161 67.6861C229.466 68.537 227.7 69.4019 225.985 70.0302C222.598 71.2705 219.294 72.5334 217.068 74.1113C215.959 74.8969 215.16 75.7324 214.741 76.64C214.33 77.529 214.263 78.5299 214.695 79.711C215.56 82.0724 218.1 83.7314 221.375 84.4843C224.631 85.2326 228.484 85.0495 231.761 83.8494C234.973 82.673 237.914 79.5151 239.823 75.9591C240.772 74.1895 241.452 72.3452 241.78 70.6381C242.109 68.9243 242.075 67.3878 241.642 66.2072C241.429 65.6259 241.149 65.2405 240.832 64.9887C240.516 64.7381 240.131 64.5942 239.664 64.549C238.703 64.4561 237.454 64.7841 235.967 65.3903Z" fill="#243140" stroke="black" stroke-opacity="0.2" style="fill:#243140;fill:color(display-p3 0.1412 0.1922 0.2510);fill-opacity:1;stroke:black;stroke-opacity:0.2;"/>
</g>
<path d="M286 128.071C286 129.61 282 133.5 265.099 126C253 135 243 132.5 243 132.5C243 130.961 252.113 116 265.099 116C278.085 116 286 126.533 286 128.071Z" fill="#243240" stroke="#1D2631" style="fill:#243240;fill:color(display-p3 0.1412 0.1961 0.2510);fill-opacity:1;stroke:#1D2631;stroke:color(display-p3 0.1137 0.1490 0.1922);stroke-opacity:1;"/>
</g>
<defs>
<filter id="filter0_d_1186_16840" x="12.707" y="0" width="513.576" height="240" filterUnits="userSpaceOnUse" color-interpolation-filters="sRGB">
<feFlood flood-opacity="0" result="BackgroundImageFix"/>
<feColorMatrix in="SourceAlpha" type="matrix" values="0 0 0 0 0 0 0 0 0 0 0 0 0 0 0 0 0 0 127 0" result="hardAlpha"/>
<feOffset dy="4"/>
<feGaussianBlur stdDeviation="2"/>
<feComposite in2="hardAlpha" operator="out"/>
<feColorMatrix type="matrix" values="0 0 0 0 0 0 0 0 0 0 0 0 0 0 0 0 0 0 0.25 0"/>
<feBlend mode="normal" in2="BackgroundImageFix" result="effect1_dropShadow_1186_16840"/>
<feBlend mode="normal" in="SourceGraphic" in2="effect1_dropShadow_1186_16840" result="shape"/>
</filter>
<filter id="filter1_i_1186_16840" x="16.707" y="24.3999" width="115.576" height="169.6" filterUnits="userSpaceOnUse" color-interpolation-filters="sRGB">
<feFlood flood-opacity="0" result="BackgroundImageFix"/>
<feBlend mode="normal" in="SourceGraphic" in2="BackgroundImageFix" result="shape"/>
<feColorMatrix in="SourceAlpha" type="matrix" values="0 0 0 0 0 0 0 0 0 0 0 0 0 0 0 0 0 0 127 0" result="hardAlpha"/>
<feOffset dy="4"/>
<feGaussianBlur stdDeviation="2"/>
<feComposite in2="hardAlpha" operator="arithmetic" k2="-1" k3="1"/>
<feColorMatrix type="matrix" values="0 0 0 0 0 0 0 0 0 0 0 0 0 0 0 0 0 0 0.25 0"/>
<feBlend mode="normal" in2="shape" result="effect1_innerShadow_1186_16840"/>
</filter>
<filter id="filter2_i_1186_16840" x="406.707" y="24.3999" width="115.576" height="169.6" filterUnits="userSpaceOnUse" color-interpolation-filters="sRGB">
<feFlood flood-opacity="0" result="BackgroundImageFix"/>
<feBlend mode="normal" in="SourceGraphic" in2="BackgroundImageFix" result="shape"/>
<feColorMatrix in="SourceAlpha" type="matrix" values="0 0 0 0 0 0 0 0 0 0 0 0 0 0 0 0 0 0 127 0" result="hardAlpha"/>
<feOffset dy="4"/>
<feGaussianBlur stdDeviation="2"/>
<feComposite in2="hardAlpha" operator="arithmetic" k2="-1" k3="1"/>
<feColorMatrix type="matrix" values="0 0 0 0 0 0 0 0 0 0 0 0 0 0 0 0 0 0 0.25 0"/>
<feBlend mode="normal" in2="shape" result="effect1_innerShadow_1186_16840"/>
</filter>
<filter id="filter3_d_1186_16840" x="324.002" y="150" width="43.3047" height="42.137" filterUnits="userSpaceOnUse" color-interpolation-filters="sRGB">
<feFlood flood-opacity="0" result="BackgroundImageFix"/>
<feColorMatrix in="SourceAlpha" type="matrix" values="0 0 0 0 0 0 0 0 0 0 0 0 0 0 0 0 0 0 127 0" result="hardAlpha"/>
<feOffset dy="4"/>
<feGaussianBlur stdDeviation="2"/>
<feComposite in2="hardAlpha" operator="out"/>
<feColorMatrix type="matrix" values="0 0 0 0 0 0 0 0 0 0 0 0 0 0 0 0 0 0 0.25 0"/>
<feBlend mode="normal" in2="BackgroundImageFix" result="effect1_dropShadow_1186_16840"/>
<feBlend mode="normal" in="SourceGraphic" in2="effect1_dropShadow_1186_16840" result="shape"/>
</filter>
<filter id="filter4_d_1186_16840" x="340" y="162" width="60.1914" height="58.0476" filterUnits="userSpaceOnUse" color-interpolation-filters="sRGB">
<feFlood flood-opacity="0" result="BackgroundImageFix"/>
<feColorMatrix in="SourceAlpha" type="matrix" values="0 0 0 0 0 0 0 0 0 0 0 0 0 0 0 0 0 0 127 0" result="hardAlpha"/>
<feOffset dy="4"/>
<feGaussianBlur stdDeviation="2"/>
<feComposite in2="hardAlpha" operator="out"/>
<feColorMatrix type="matrix" values="0 0 0 0 0 0 0 0 0 0 0 0 0 0 0 0 0 0 0.25 0"/>
<feBlend mode="normal" in2="BackgroundImageFix" result="effect1_dropShadow_1186_16840"/>
<feBlend mode="normal" in="SourceGraphic" in2="effect1_dropShadow_1186_16840" result="shape"/>
</filter>
<filter id="filter5_di_1186_16840" x="163.5" y="6.5" width="195" height="195" filterUnits="userSpaceOnUse" color-interpolation-filters="sRGB">
<feFlood flood-opacity="0" result="BackgroundImageFix"/>
<feColorMatrix in="SourceAlpha" type="matrix" values="0 0 0 0 0 0 0 0 0 0 0 0 0 0 0 0 0 0 127 0" result="hardAlpha"/>
<feOffset dy="4"/>
<feGaussianBlur stdDeviation="2"/>
<feComposite in2="hardAlpha" operator="out"/>
<feColorMatrix type="matrix" values="0 0 0 0 0 0 0 0 0 0 0 0 0 0 0 0 0 0 0.25 0"/>
<feBlend mode="normal" in2="BackgroundImageFix" result="effect1_dropShadow_1186_16840"/>
<feBlend mode="normal" in="SourceGraphic" in2="effect1_dropShadow_1186_16840" result="shape"/>
<feColorMatrix in="SourceAlpha" type="matrix" values="0 0 0 0 0 0 0 0 0 0 0 0 0 0 0 0 0 0 127 0" result="hardAlpha"/>
<feOffset dy="4"/>
<feGaussianBlur stdDeviation="2"/>
<feComposite in2="hardAlpha" operator="arithmetic" k2="-1" k3="1"/>
<feColorMatrix type="matrix" values="0 0 0 0 0 0 0 0 0 0 0 0 0 0 0 0 0 0 0.25 0"/>
<feBlend mode="normal" in2="shape" result="effect2_innerShadow_1186_16840"/>
</filter>
<filter id="filter6_d_1186_16840" x="221" y="92" width="23" height="26" filterUnits="userSpaceOnUse" color-interpolation-filters="sRGB">
<feFlood flood-opacity="0" result="BackgroundImageFix"/>
<feColorMatrix in="SourceAlpha" type="matrix" values="0 0 0 0 0 0 0 0 0 0 0 0 0 0 0 0 0 0 127 0" result="hardAlpha"/>
<feOffset dy="4"/>
<feGaussianBlur stdDeviation="2"/>
<feComposite in2="hardAlpha" operator="out"/>
<feColorMatrix type="matrix" values="0 0 0 0 0 0 0 0 0 0 0 0 0 0 0 0 0 0 0.25 0"/>
<feBlend mode="normal" in2="BackgroundImageFix" result="effect1_dropShadow_1186_16840"/>
<feBlend mode="normal" in="SourceGraphic" in2="effect1_dropShadow_1186_16840" result="shape"/>
</filter>
<filter id="filter7_d_1186_16840" x="276" y="92" width="23" height="26" filterUnits="userSpaceOnUse" color-interpolation-filters="sRGB">
<feFlood flood-opacity="0" result="BackgroundImageFix"/>
<feColorMatrix in="SourceAlpha" type="matrix" values="0 0 0 0 0 0 0 0 0 0 0 0 0 0 0 0 0 0 127 0" result="hardAlpha"/>
<feOffset dy="4"/>
<feGaussianBlur stdDeviation="2"/>
<feComposite in2="hardAlpha" operator="out"/>
<feColorMatrix type="matrix" values="0 0 0 0 0 0 0 0 0 0 0 0 0 0 0 0 0 0 0.25 0"/>
<feBlend mode="normal" in2="BackgroundImageFix" result="effect1_dropShadow_1186_16840"/>
<feBlend mode="normal" in="SourceGraphic" in2="effect1_dropShadow_1186_16840" result="shape"/>
</filter>
<filter id="filter8_d_1186_16840" x="274.912" y="64.1243" width="35.9922" height="30.2371" filterUnits="userSpaceOnUse" color-interpolation-filters="sRGB">
<feFlood flood-opacity="0" result="BackgroundImageFix"/>
<feColorMatrix in="SourceAlpha" type="matrix" values="0 0 0 0 0 0 0 0 0 0 0 0 0 0 0 0 0 0 127 0" result="hardAlpha"/>
<feOffset dy="4"/>
<feGaussianBlur stdDeviation="2"/>
<feComposite in2="hardAlpha" operator="out"/>
<feColorMatrix type="matrix" values="0 0 0 0 0 0 0 0 0 0 0 0 0 0 0 0 0 0 0.25 0"/>
<feBlend mode="normal" in2="BackgroundImageFix" result="effect1_dropShadow_1186_16840"/>
<feBlend mode="normal" in="SourceGraphic" in2="effect1_dropShadow_1186_16840" result="shape"/>
</filter>
<filter id="filter9_d_1186_16840" x="209.9" y="64.0332" width="36.5996" height="29.3965" filterUnits="userSpaceOnUse" color-interpolation-filters="sRGB">
<feFlood flood-opacity="0" result="BackgroundImageFix"/>
<feColorMatrix in="SourceAlpha" type="matrix" values="0 0 0 0 0 0 0 0 0 0 0 0 0 0 0 0 0 0 127 0" result="hardAlpha"/>
<feOffset dy="4"/>
<feGaussianBlur stdDeviation="2"/>
<feComposite in2="hardAlpha" operator="out"/>
<feColorMatrix type="matrix" values="0 0 0 0 0 0 0 0 0 0 0 0 0 0 0 0 0 0 0.25 0"/>
<feBlend mode="normal" in2="BackgroundImageFix" result="effect1_dropShadow_1186_16840"/>
<feBlend mode="normal" in="SourceGraphic" in2="effect1_dropShadow_1186_16840" result="shape"/>
</filter>
</defs>
</svg>
