<svg width="66" height="18" viewBox="0 0 66 18" fill="none" xmlns="http://www.w3.org/2000/svg">
<g clip-path="url(#clip0_166_2024)">
<path d="M11.3113 8.31173C11.2946 6.50251 12.8307 5.62231 12.901 5.58133C12.031 4.34467 10.6826 4.17571 10.2087 4.16224C9.07626 4.04604 7.97769 4.82295 7.40082 4.82295C6.81241 4.82295 5.92403 4.17346 4.96656 4.19255C3.73445 4.21108 2.58181 4.90659 1.94964 5.98663C0.644993 8.18881 1.618 11.425 2.86795 13.205C3.49322 14.0768 4.22384 15.0502 5.18016 15.016C6.11575 14.9784 6.46523 14.4344 7.59427 14.4344C8.71298 14.4344 9.04113 15.016 10.0164 14.9941C11.0205 14.9784 11.6527 14.1184 12.2561 13.2388C12.9787 12.2395 13.2688 11.2554 13.2803 11.205C13.2568 11.1971 11.3303 10.4803 11.3113 8.31173Z" fill="white" style="fill:white;fill-opacity:1;"/>
<path d="M9.46884 2.99117C9.97206 2.37761 10.3163 1.54288 10.2207 0.695801C9.4924 0.727236 8.58161 1.18698 8.05709 1.78707C7.59304 2.31586 7.1785 3.18259 7.28559 3.99767C8.10372 4.05717 8.94375 3.59518 9.46884 2.99117Z" fill="white" style="fill:white;fill-opacity:1;"/>
<path d="M25.425 15.1404H24.1176L23.4014 12.9461H20.9118L20.2295 15.1404H18.9565L21.4231 7.66992H22.9465L25.425 15.1404ZM23.1854 12.0255L22.5377 10.0748C22.4692 9.87551 22.3408 9.4062 22.1514 8.66743H22.1283C22.0529 8.98522 21.9314 9.45446 21.7645 10.0748L21.1283 12.0255H23.1854Z" fill="white" style="fill:white;fill-opacity:1;"/>
<path d="M31.7672 12.3803C31.7672 13.2965 31.5133 14.0206 31.0056 14.5521C30.5507 15.0254 29.9859 15.2617 29.3117 15.2617C28.5839 15.2617 28.0612 15.0068 27.7428 14.4971H27.7198V17.3348H26.4923V11.5265C26.4923 10.9506 26.4767 10.3594 26.4468 9.75314H27.5263L27.5948 10.607H27.6179C28.0272 9.9637 28.6485 9.64258 29.4821 9.64258C30.1339 9.64258 30.678 9.89352 31.1132 10.3959C31.5497 10.8989 31.7672 11.5602 31.7672 12.3803ZM30.5167 12.4241C30.5167 11.8998 30.3958 11.4676 30.1529 11.1274C29.8875 10.7726 29.5311 10.5952 29.0843 10.5952C28.7815 10.5952 28.5062 10.694 28.2604 10.8888C28.0139 11.0853 27.8528 11.3418 27.7773 11.6595C27.7393 11.8077 27.7204 11.929 27.7204 12.0244V12.9226C27.7204 13.3144 27.8435 13.645 28.0899 13.915C28.3364 14.185 28.6565 14.3198 29.0503 14.3198C29.5126 14.3198 29.8725 14.1457 30.1298 13.7988C30.3878 13.4514 30.5167 12.9933 30.5167 12.4241Z" fill="white" style="fill:white;fill-opacity:1;"/>
<path d="M38.1221 12.3803C38.1221 13.2965 37.8682 14.0206 37.3598 14.5521C36.9056 15.0254 36.3408 15.2617 35.6665 15.2617C34.9388 15.2617 34.416 15.0068 34.0982 14.4971H34.0752V17.3348H32.8477V11.5265C32.8477 10.9506 32.8322 10.3594 32.8022 9.75314H33.8817L33.9503 10.607H33.9733C34.3821 9.9637 35.0033 9.64258 35.8376 9.64258C36.4888 9.64258 37.0328 9.89352 37.4692 10.3959C37.9039 10.8989 38.1221 11.5602 38.1221 12.3803ZM36.8716 12.4241C36.8716 11.8998 36.7501 11.4676 36.5072 11.1274C36.2417 10.7726 35.8865 10.5952 35.4392 10.5952C35.1357 10.5952 34.8611 10.694 34.6147 10.8888C34.3683 11.0853 34.2076 11.3418 34.1322 11.6595C34.0948 11.8077 34.0752 11.929 34.0752 12.0244V12.9226C34.0752 13.3144 34.1985 13.645 34.4437 13.915C34.6901 14.1845 35.0102 14.3198 35.4052 14.3198C35.8675 14.3198 36.2273 14.1457 36.4847 13.7988C36.7426 13.4514 36.8716 12.9933 36.8716 12.4241Z" fill="white" style="fill:white;fill-opacity:1;"/>
<path d="M45.2275 13.0455C45.2275 13.681 45.0013 14.198 44.547 14.5971C44.0478 15.0333 43.3529 15.2511 42.4599 15.2511C41.6354 15.2511 40.9744 15.0961 40.4741 14.7857L40.7586 13.7881C41.2975 14.1059 41.8888 14.2653 42.533 14.2653C42.9954 14.2653 43.3552 14.1631 43.6137 13.96C43.871 13.7568 43.9994 13.4839 43.9994 13.1438C43.9994 12.8406 43.8935 12.5852 43.6811 12.378C43.4698 12.1709 43.1168 11.9784 42.624 11.8004C41.2825 11.3126 40.6123 10.598 40.6123 9.65829C40.6123 9.04421 40.8472 8.5407 41.3176 8.14882C41.7863 7.75644 42.4115 7.56055 43.1934 7.56055C43.8906 7.56055 44.4699 7.67902 44.9321 7.91534L44.6253 8.89092C44.1935 8.66191 43.7053 8.54737 43.1589 8.54737C42.727 8.54737 42.3897 8.65127 42.1478 8.85785C41.9434 9.04251 41.8409 9.26762 41.8409 9.53424C41.8409 9.82953 41.9578 10.0737 42.1927 10.2657C42.3971 10.4431 42.7685 10.6351 43.3074 10.8422C43.9666 11.101 44.4508 11.4036 44.7623 11.7505C45.0726 12.0963 45.2275 12.529 45.2275 13.0455Z" fill="white" style="fill:white;fill-opacity:1;"/>
<path d="M49.2861 10.651H47.933V13.2663C47.933 13.9315 48.1714 14.2638 48.6493 14.2638C48.8686 14.2638 49.0506 14.2453 49.1945 14.2082L49.2285 15.1171C48.9867 15.2052 48.6683 15.2495 48.2739 15.2495C47.7891 15.2495 47.4103 15.1053 47.1368 14.8173C46.8645 14.5288 46.7274 14.0449 46.7274 13.3651V10.6499H45.9214V9.75171H46.7274V8.76541L47.933 8.41064V9.75171H49.2861V10.651Z" fill="white" style="fill:white;fill-opacity:1;"/>
<path d="M55.3909 12.4016C55.3909 13.2296 55.148 13.9094 54.6632 14.441C54.1548 14.9883 53.48 15.2612 52.6388 15.2612C51.8282 15.2612 51.1827 14.999 50.7014 14.4747C50.2201 13.9504 49.9795 13.2886 49.9795 12.4909C49.9795 11.6561 50.227 10.9724 50.7239 10.4408C51.2196 9.9087 51.8886 9.64258 52.7298 9.64258C53.5405 9.64258 54.1928 9.90473 54.685 10.4296C55.156 10.9387 55.3909 11.5961 55.3909 12.4016ZM54.1174 12.4404C54.1174 11.9435 54.0086 11.5175 53.788 11.1622C53.5307 10.7322 53.1628 10.5177 52.686 10.5177C52.1926 10.5177 51.8178 10.7327 51.5605 11.1622C51.3399 11.5181 51.2311 11.9509 51.2311 12.4628C51.2311 12.9596 51.3399 13.3857 51.5605 13.7404C51.8259 14.1704 52.1966 14.3849 52.6751 14.3849C53.1438 14.3849 53.5117 14.1659 53.7771 13.7292C54.0034 13.3671 54.1174 12.9366 54.1174 12.4404Z" fill="white" style="fill:white;fill-opacity:1;"/>
<path d="M59.3807 10.8057C59.2592 10.7838 59.1296 10.7726 58.9938 10.7726C58.562 10.7726 58.2281 10.9315 57.9931 11.2498C57.7887 11.5304 57.6862 11.8852 57.6862 12.3135V15.1399H56.4594L56.4709 11.4496C56.4709 10.8287 56.4553 10.2635 56.4248 9.75371H57.494L57.5388 10.7844H57.5728C57.7024 10.4302 57.9068 10.145 58.1866 9.93113C58.4601 9.7386 58.7554 9.64258 59.0738 9.64258C59.1873 9.64258 59.2897 9.65046 59.3807 9.66451V10.8057Z" fill="white" style="fill:white;fill-opacity:1;"/>
<path d="M64.8694 12.1925C64.8694 12.4069 64.855 12.5877 64.8245 12.7353H61.142C61.1564 13.2675 61.3343 13.6744 61.6763 13.9551C61.9866 14.2061 62.388 14.3318 62.8808 14.3318C63.426 14.3318 63.9235 14.247 64.3708 14.0769L64.5631 14.9077C64.0404 15.1301 63.4232 15.2406 62.7109 15.2406C61.8542 15.2406 61.1817 14.9947 60.6923 14.5036C60.2042 14.0124 59.9595 13.3528 59.9595 12.5253C59.9595 11.7131 60.1868 11.0367 60.6422 10.4972C61.119 9.92128 61.7632 9.6333 62.5739 9.6333C63.3701 9.6333 63.9729 9.92128 64.3824 10.4972C64.7065 10.9547 64.8694 11.5205 64.8694 12.1925ZM63.6989 11.882C63.707 11.5273 63.627 11.2208 63.4606 10.962C63.2481 10.6291 62.9216 10.463 62.4824 10.463C62.0811 10.463 61.7547 10.6252 61.5053 10.9508C61.301 11.2095 61.1795 11.52 61.142 11.8815L63.6989 11.882Z" fill="white" style="fill:white;fill-opacity:1;"/>
<path d="M22.7825 2.73844C22.7825 3.39915 22.5793 3.89651 22.1734 4.23052C21.7974 4.5387 21.2631 4.69307 20.5711 4.69307C20.2279 4.69307 19.9343 4.67848 19.6885 4.64929V1.03923C20.0092 0.988713 20.3546 0.962891 20.7276 0.962891C21.3869 0.962891 21.8838 1.10267 22.2189 1.38222C22.5942 1.69826 22.7825 2.15015 22.7825 2.73844ZM22.1463 2.75472C22.1463 2.32642 22.03 1.99802 21.7974 1.76899C21.5648 1.54052 21.2251 1.42601 20.7777 1.42601C20.5878 1.42601 20.426 1.43836 20.2918 1.46417V4.20863C20.3661 4.21985 20.502 4.22491 20.6995 4.22491C21.1612 4.22491 21.5176 4.09972 21.7687 3.84936C22.0197 3.599 22.1463 3.23412 22.1463 2.75472Z" fill="white" style="fill:white;fill-opacity:1;"/>
<path d="M26.1558 3.31702C26.1558 3.72399 26.0365 4.05744 25.7982 4.31903C25.5484 4.58791 25.2173 4.72208 24.8039 4.72208C24.4055 4.72208 24.0882 4.59353 23.8516 4.33531C23.6156 4.07765 23.4976 3.75262 23.4976 3.3608C23.4976 2.95101 23.619 2.61476 23.8631 2.35374C24.1072 2.09271 24.4354 1.96191 24.8488 1.96191C25.2473 1.96191 25.5673 2.09046 25.8097 2.34812C26.04 2.59848 26.1558 2.92182 26.1558 3.31702ZM25.5299 3.3361C25.5299 3.09191 25.4758 2.88253 25.3681 2.70795C25.2414 2.49688 25.0612 2.39134 24.8269 2.39134C24.5846 2.39134 24.4003 2.49688 24.2737 2.70795C24.1654 2.88253 24.1118 3.09528 24.1118 3.34676C24.1118 3.59096 24.166 3.80034 24.2737 3.97492C24.4043 4.18599 24.5863 4.29152 24.8212 4.29152C25.0515 4.29152 25.2323 4.1843 25.3624 3.9693C25.4741 3.79135 25.5299 3.58029 25.5299 3.3361Z" fill="white" style="fill:white;fill-opacity:1;"/>
<path d="M30.6775 2.01465L29.8283 4.66086H29.2755L28.9237 3.51178C28.8345 3.22492 28.762 2.93975 28.7056 2.65684H28.6946C28.6422 2.94762 28.5697 3.23222 28.4764 3.51178L28.1027 4.66086H27.5437L26.7451 2.01465H27.3652L27.6721 3.27264C27.7464 3.57015 27.8074 3.85364 27.8563 4.12196H27.8672C27.9122 3.90079 27.9865 3.61899 28.0912 3.27825L28.4764 2.01521H28.9681L29.3371 3.25131C29.4264 3.55275 29.4989 3.84297 29.5548 4.12253H29.5715C29.6123 3.85027 29.6739 3.56005 29.7557 3.25131L30.085 2.01521L30.6775 2.01465Z" fill="white" style="fill:white;fill-opacity:1;"/>
<path d="M33.8062 4.66272H33.2028V3.14707C33.2028 2.68003 33.0209 2.44651 32.6559 2.44651C32.4768 2.44651 32.3323 2.5105 32.22 2.63905C32.1089 2.7676 32.0525 2.91916 32.0525 3.09262V4.66216H31.4491V2.77265C31.4491 2.54026 31.4417 2.28821 31.4272 2.01539H31.9575L31.9857 2.42911H32.0024C32.0726 2.30056 32.1774 2.19446 32.315 2.1097C32.4786 2.0109 32.6616 1.96094 32.862 1.96094C33.1153 1.96094 33.326 2.04065 33.4936 2.20064C33.702 2.39655 33.8062 2.68901 33.8062 3.07747V4.66272Z" fill="white" style="fill:white;fill-opacity:1;"/>
<path d="M35.47 4.66168H34.8672V0.80127H35.47V4.66168Z" fill="white" style="fill:white;fill-opacity:1;"/>
<path d="M39.0225 3.31702C39.0225 3.72399 38.9033 4.05744 38.6649 4.31903C38.4151 4.58791 38.0834 4.72208 37.6706 4.72208C37.2716 4.72208 36.9544 4.59353 36.7184 4.33531C36.4823 4.07765 36.3643 3.75262 36.3643 3.3608C36.3643 2.95101 36.4858 2.61476 36.7299 2.35374C36.974 2.09271 37.3022 1.96191 37.715 1.96191C38.1139 1.96191 38.4335 2.09046 38.6764 2.34812C38.9068 2.59848 39.0225 2.92182 39.0225 3.31702ZM38.396 3.3361C38.396 3.09191 38.342 2.88253 38.2343 2.70795C38.1082 2.49688 37.9274 2.39134 37.6937 2.39134C37.4507 2.39134 37.2665 2.49688 37.1404 2.70795C37.0321 2.88253 36.9786 3.09528 36.9786 3.34676C36.9786 3.59096 37.0327 3.80034 37.1404 3.97492C37.2711 4.18599 37.453 4.29152 37.6879 4.29152C37.9182 4.29152 38.0984 4.1843 38.2286 3.9693C38.3408 3.79135 38.396 3.58029 38.396 3.3361Z" fill="white" style="fill:white;fill-opacity:1;"/>
<path d="M41.9425 4.66201H41.4007L41.3558 4.3572H41.3391C41.1537 4.60026 40.8895 4.72208 40.5463 4.72208C40.2901 4.72208 40.0828 4.6418 39.9268 4.48238C39.7852 4.33755 39.7144 4.15736 39.7144 3.94348C39.7144 3.62014 39.8525 3.37371 40.1306 3.20306C40.4081 3.03241 40.7985 2.94877 41.3011 2.9527V2.9033C41.3011 2.55469 41.1134 2.38068 40.7375 2.38068C40.4697 2.38068 40.2337 2.44636 40.0299 2.57659L39.9072 2.19038C40.1594 2.03825 40.4709 1.96191 40.8382 1.96191C41.5476 1.96191 41.9033 2.32679 41.9033 3.05655V4.03105C41.9033 4.29544 41.9166 4.50595 41.9425 4.66201ZM41.3161 3.75262V3.34452C40.6506 3.3333 40.3177 3.51124 40.3177 3.8778C40.3177 4.0159 40.3558 4.11918 40.4335 4.18823C40.5112 4.25728 40.6102 4.29152 40.7283 4.29152C40.8607 4.29152 40.9845 4.25054 41.0973 4.16914C41.2108 4.08719 41.2804 3.98334 41.3063 3.85591C41.3126 3.82728 41.3161 3.79248 41.3161 3.75262Z" fill="white" style="fill:white;fill-opacity:1;"/>
<path d="M45.3711 4.66168H44.8357L44.8075 4.23674H44.7908C44.6198 4.56008 44.3285 4.72175 43.9192 4.72175C43.5921 4.72175 43.3198 4.59657 43.1039 4.3462C42.8879 4.09584 42.7803 3.77082 42.7803 3.3717C42.7803 2.94338 42.8972 2.59647 43.1321 2.33151C43.3595 2.08452 43.6381 1.96102 43.9698 1.96102C44.3342 1.96102 44.5893 2.08059 44.7344 2.32029H44.7459V0.80127H45.3498V3.94877C45.3498 4.20643 45.3567 4.44388 45.3711 4.66168ZM44.7459 3.54572V3.10449C44.7459 3.02815 44.7401 2.9664 44.7292 2.91925C44.6952 2.77779 44.6221 2.65878 44.511 2.56279C44.3987 2.4668 44.2634 2.41853 44.1074 2.41853C43.8823 2.41853 43.7061 2.50553 43.5765 2.68011C43.4481 2.85469 43.3831 3.07755 43.3831 3.3498C43.3831 3.6114 43.4447 3.82359 43.5685 3.98694C43.6992 4.16096 43.8754 4.24796 44.0959 4.24796C44.2939 4.24796 44.4523 4.17555 44.5726 4.03017C44.6889 3.896 44.7459 3.73433 44.7459 3.54572Z" fill="white" style="fill:white;fill-opacity:1;"/>
<path d="M50.5322 3.31702C50.5322 3.72399 50.413 4.05744 50.1747 4.31903C49.9248 4.58791 49.5943 4.72208 49.1804 4.72208C48.7825 4.72208 48.4653 4.59353 48.2281 4.33531C47.992 4.07765 47.874 3.75262 47.874 3.3608C47.874 2.95101 47.9955 2.61476 48.2396 2.35374C48.4837 2.09271 48.8119 1.96191 49.2259 1.96191C49.6237 1.96191 49.9444 2.09046 50.1862 2.34812C50.4165 2.59848 50.5322 2.92182 50.5322 3.31702ZM49.9069 3.3361C49.9069 3.09191 49.8529 2.88253 49.7451 2.70795C49.618 2.49688 49.4383 2.39134 49.2034 2.39134C48.9616 2.39134 48.7774 2.49688 48.6501 2.70795C48.5419 2.88253 48.4883 3.09528 48.4883 3.34676C48.4883 3.59096 48.5425 3.80034 48.6501 3.97492C48.7808 4.18599 48.9627 4.29152 49.1976 4.29152C49.4279 4.29152 49.6093 4.1843 49.7394 3.9693C49.8505 3.79135 49.9069 3.58029 49.9069 3.3361Z" fill="white" style="fill:white;fill-opacity:1;"/>
<path d="M53.7758 4.66272H53.1731V3.14707C53.1731 2.68003 52.9911 2.44651 52.6255 2.44651C52.4465 2.44651 52.3019 2.5105 52.1902 2.63905C52.0786 2.7676 52.0227 2.91916 52.0227 3.09262V4.66216H51.4188V2.77265C51.4188 2.54026 51.4119 2.28821 51.3975 2.01539H51.9272L51.9553 2.42911H51.9721C52.0429 2.30056 52.1477 2.19446 52.2847 2.1097C52.4488 2.0109 52.6313 1.96094 52.8322 1.96094C53.085 1.96094 53.2957 2.04065 53.4632 2.20064C53.6722 2.39655 53.7758 2.68901 53.7758 3.07747V4.66272Z" fill="white" style="fill:white;fill-opacity:1;"/>
<path d="M57.838 2.45662H57.1736V3.74211C57.1736 4.06882 57.2916 4.23217 57.5254 4.23217C57.6336 4.23217 57.7235 4.22319 57.7942 4.20467L57.8099 4.65094C57.6906 4.69473 57.534 4.71662 57.3412 4.71662C57.1028 4.71662 56.9174 4.64589 56.7832 4.50443C56.6485 4.36297 56.5818 4.12495 56.5818 3.79095V2.45662H56.1851V2.01595H56.5818V1.53095L57.1731 1.35693V2.01539H57.8375L57.838 2.45662Z" fill="white" style="fill:white;fill-opacity:1;"/>
<path d="M61.0304 4.66168H60.4264V3.15726C60.4264 2.68292 60.2446 2.44546 59.8801 2.44546C59.6002 2.44546 59.4091 2.583 59.3043 2.85806C59.2865 2.91588 59.2761 2.98661 59.2761 3.06969V4.66112H58.6733V0.80127H59.2761V2.39607H59.2876C59.4776 2.10585 59.75 1.96102 60.1029 1.96102C60.3528 1.96102 60.5594 2.04073 60.7236 2.20072C60.928 2.4 61.0304 2.69639 61.0304 3.08821V4.66168Z" fill="white" style="fill:white;fill-opacity:1;"/>
<path d="M64.3255 3.2134C64.3255 3.31894 64.3175 3.40763 64.3031 3.48005H62.4935C62.5016 3.74164 62.588 3.94092 62.7555 4.07901C62.9086 4.20251 63.1061 4.26426 63.348 4.26426C63.6157 4.26426 63.8598 4.22272 64.0797 4.13908L64.1742 4.54774C63.9168 4.65664 63.614 4.71109 63.2633 4.71109C62.843 4.71109 62.512 4.59041 62.2725 4.34903C62.0317 4.10764 61.9126 3.78374 61.9126 3.37732C61.9126 2.97821 62.0237 2.64588 62.2477 2.38093C62.4815 2.098 62.7976 1.95654 63.1965 1.95654C63.5868 1.95654 63.8834 2.098 64.0838 2.38093C64.2456 2.60547 64.3255 2.88334 64.3255 3.2134ZM63.7498 3.06128C63.7544 2.8867 63.7147 2.73626 63.6329 2.6094C63.5282 2.44604 63.3687 2.36409 63.1527 2.36409C62.9559 2.36409 62.7952 2.4438 62.6726 2.60378C62.5724 2.73121 62.5131 2.88334 62.4935 3.06128H63.7498Z" fill="white" style="fill:white;fill-opacity:1;"/>
</g>
<defs>
<clipPath id="clip0_166_2024">
<rect width="64.58" height="17.0321" fill="white" style="fill:white;fill-opacity:1;" transform="translate(0.810059 0.479004)"/>
</clipPath>
</defs>
</svg>
