<svg width="19" height="19" viewBox="0 0 19 19" fill="none" xmlns="http://www.w3.org/2000/svg">
<path fill-rule="evenodd" clip-rule="evenodd" d="M13.5429 0.29289C13.9334 -0.09763 14.5666 -0.09763 14.9571 0.29289L18.1446 3.48039C18.3321 3.66793 18.4375 3.92228 18.4375 4.1875C18.4375 4.45272 18.3321 4.70707 18.1446 4.89461L14.9571 8.0821C14.5666 8.4726 13.9334 8.4726 13.5429 8.0821C13.1524 7.69158 13.1524 7.05842 13.5429 6.66789L15.0233 5.1875H5.04167C3.475 5.1875 3.01756 5.64002 2.81687 6.00127C2.68506 6.23853 2.597 6.5574 2.54922 6.98738C2.50111 7.42043 2.5 7.89453 2.5 8.4375C2.5 8.9898 2.05229 9.4375 1.5 9.4375C0.947721 9.4375 0.500001 8.9898 0.500001 8.4375V8.4109C0.499981 7.89792 0.499961 7.31998 0.561461 6.76652C0.624361 6.20041 0.757651 5.5896 1.06855 5.02998C1.75328 3.79748 3.06667 3.1875 5.04167 3.1875H15.0233L13.5429 1.70711C13.1524 1.31658 13.1524 0.68342 13.5429 0.29289ZM16.3883 12.0126C16.4364 11.5796 16.4375 11.1055 16.4375 10.5625C16.4375 10.0102 16.8852 9.5625 17.4375 9.5625C17.9898 9.5625 18.4375 10.0102 18.4375 10.5625V10.5891C18.4375 11.1021 18.4375 11.68 18.376 12.2335C18.3131 12.7996 18.1798 13.4104 17.8689 13.97C17.1842 15.2025 15.8708 15.8125 13.8958 15.8125H3.91422L5.39461 17.2929C5.78513 17.6834 5.78513 18.3166 5.39461 18.7071C5.00408 19.0976 4.37092 19.0976 3.98039 18.7071L0.792891 15.5196C0.605361 15.3321 0.500001 15.0777 0.500001 14.8125C0.500001 14.5473 0.605361 14.2929 0.792891 14.1054L3.98039 10.9179C4.37092 10.5274 5.00408 10.5274 5.39461 10.9179C5.78513 11.3084 5.78513 11.9416 5.39461 12.3321L3.91422 13.8125H13.8958C15.4625 13.8125 15.9199 13.36 16.1206 12.9987C16.2524 12.7615 16.3405 12.4426 16.3883 12.0126Z" fill="white" style="fill:white;fill-opacity:1;"/>
</svg>
