<svg width="24" height="24" viewBox="0 0 24 24" fill="none" xmlns="http://www.w3.org/2000/svg">
<path d="M12 24C18.6274 24 24 18.6274 24 12C24 5.37258 18.6274 0 12 0C5.37258 0 0 5.37258 0 12C0 18.6274 5.37258 24 12 24Z" fill="#F7931A"/>
<path fill-rule="evenodd" clip-rule="evenodd" d="M16.5258 8.92124C16.4059 7.33609 15.0511 6.77793 13.3299 6.59178L13.3745 4.39732L12.0388 4.37028L11.9954 6.5069C11.6442 6.4998 11.2851 6.49943 10.9284 6.49929L10.9724 4.34853L9.63732 4.32132L9.59218 6.51514C9.30287 6.51516 9.01875 6.51475 8.74182 6.50929L8.74179 6.50249L6.89948 6.46436L6.87079 7.89099C6.87079 7.89099 7.85758 7.89226 7.84081 7.91009C8.38186 7.92127 8.55155 8.23895 8.59726 8.51105L8.5465 11.011C8.58383 11.012 8.6325 11.0145 8.6875 11.0232L8.64225 11.0222L8.64219 11.0222C8.61121 11.0216 8.5791 11.0209 8.54639 11.0205L8.47478 14.5227C8.44757 14.6924 8.34195 14.9619 7.96393 14.9549C7.98071 14.9704 6.99295 14.9348 6.99295 14.9348L6.69508 16.5247L8.43337 16.56C8.62752 16.5642 8.81976 16.5701 9.01 16.5761L9.01039 16.5761C9.13697 16.58 9.26267 16.5839 9.38744 16.5873L9.34284 18.8067L10.6771 18.8341L10.7218 16.6381C11.088 16.6531 11.4425 16.6633 11.7886 16.67L11.7436 18.8558L13.0793 18.8829L13.1248 16.6674C15.3731 16.5842 16.9564 16.0505 17.1945 13.9456C17.3866 12.2508 16.6032 11.4768 15.3347 11.1448C16.1172 10.7662 16.6155 10.0812 16.5258 8.92124ZM14.5607 13.6291C14.5304 15.1508 12.1407 15.069 11.0472 15.0316L11.0471 15.0315C10.9488 15.0282 10.8609 15.0252 10.7862 15.0237L10.8464 12.0831C10.9374 12.085 11.048 12.0846 11.1733 12.0842L11.1733 12.0842C12.2946 12.0806 14.5924 12.0731 14.5607 13.6291ZM11.0927 10.7438C12.0049 10.7773 13.9946 10.8506 14.0231 9.46731C14.0518 8.05255 12.1368 8.0643 11.2016 8.07004C11.0964 8.07068 11.0036 8.07125 10.9274 8.06971L10.873 10.7367C10.9359 10.738 11.0098 10.7407 11.0927 10.7438Z" fill="white"/>
</svg>
