<svg width="144" height="56" viewBox="0 0 144 56" fill="none" xmlns="http://www.w3.org/2000/svg">
<g filter="url(#filter0_d_3001_5153)">
<path fill-rule="evenodd" clip-rule="evenodd" d="M61.1135 13.5516H61.5139H65.8289H66.2293L73.765 30.8614V13.5516H78.4804V41.6927H73.765L65.8289 23.4636V41.6927H61.1135V13.5516ZM27.9006 3.42114C41.6528 3.42114 52.8013 14.5552 52.8013 28.2896C52.8013 42.024 41.6528 53.158 27.9006 53.158C14.1484 53.158 3 42.024 3 28.2896C3 14.5552 14.1484 3.42114 27.9006 3.42114ZM27.9006 6.78587C39.7919 6.78587 49.4322 16.4137 49.4322 28.2896C49.4322 40.1654 39.7919 49.7933 27.9006 49.7933C16.0094 49.7933 6.36909 40.1654 6.36909 28.2896C6.36909 16.4137 16.0094 6.78587 27.9006 6.78587ZM25.9281 44.8277H29.873V32.7628H37.68V35.2247H41.6249V17.5788H29.873V11.7512H25.9281V17.5788H14.1764V35.2247H18.1213V32.7628H25.9281V44.8277ZM37.68 28.8232H29.873V21.5186H37.68V28.8232ZM18.1213 21.5186H25.9281V28.8232H18.1213V21.5186ZM119.539 13.5516H114.252L109.707 22.5765L107.808 26.3484V13.5516H103.092V41.6927H107.808V27.7611L109.729 31.5772L114.823 41.6925H120.11L112.319 26.8197L119.539 13.5514V13.5516ZM134.57 35.7199H127.395L126.157 41.6927H121.442L127.846 13.5516H129.975H131.99H134.119L140.523 41.6927H135.808L134.57 35.7199H134.57ZM130.982 18.4116L128.3 31.3549H133.665L130.982 18.4116ZM94.3679 35.7199H87.1935L85.9555 41.6927H81.2401L87.644 13.5516H89.7735H91.7881H93.9176L100.322 41.6927H95.6061L94.3681 35.7199H94.3679ZM90.7804 18.4116L88.0979 31.3549H93.4632L90.7804 18.4116Z" fill="#03A39E"/>
</g>
<defs>
<filter id="filter0_d_3001_5153" x="0.5" y="0.921143" width="142.523" height="54.7368" filterUnits="userSpaceOnUse" color-interpolation-filters="sRGB">
<feFlood flood-opacity="0" result="BackgroundImageFix"/>
<feColorMatrix in="SourceAlpha" type="matrix" values="0 0 0 0 0 0 0 0 0 0 0 0 0 0 0 0 0 0 127 0" result="hardAlpha"/>
<feOffset/>
<feGaussianBlur stdDeviation="1.25"/>
<feComposite in2="hardAlpha" operator="out"/>
<feColorMatrix type="matrix" values="0 0 0 0 0.0117647 0 0 0 0 0.639216 0 0 0 0 0.619608 0 0 0 1 0"/>
<feBlend mode="normal" in2="BackgroundImageFix" result="effect1_dropShadow_3001_5153"/>
<feBlend mode="normal" in="SourceGraphic" in2="effect1_dropShadow_3001_5153" result="shape"/>
</filter>
</defs>
</svg>
