<svg width="22" height="23" viewBox="0 0 22 23" fill="none" xmlns="http://www.w3.org/2000/svg">
<g clip-path="url(#clip0_577_7141)">
<path d="M12.832 3.25V6.91667C12.832 7.15978 12.9286 7.39294 13.1005 7.56485C13.2724 7.73676 13.5056 7.83333 13.7487 7.83333H17.4154" stroke="#94979C" style="stroke:#94979C;stroke:color(display-p3 0.5804 0.5922 0.6118);stroke-opacity:1;" stroke-width="2" stroke-linecap="round" stroke-linejoin="round"/>
<path d="M15.582 19.75H6.41536C5.92913 19.75 5.46282 19.5568 5.119 19.213C4.77519 18.8692 4.58203 18.4029 4.58203 17.9167V5.08333C4.58203 4.5971 4.77519 4.13079 5.119 3.78697C5.46282 3.44315 5.92913 3.25 6.41536 3.25H12.832L17.4154 7.83333V17.9167C17.4154 18.4029 17.2222 18.8692 16.8784 19.213C16.5346 19.5568 16.0683 19.75 15.582 19.75Z" stroke="#94979C" style="stroke:#94979C;stroke:color(display-p3 0.5804 0.5922 0.6118);stroke-opacity:1;" stroke-width="2" stroke-linecap="round" stroke-linejoin="round"/>
</g>
<defs>
<clipPath id="clip0_577_7141">
<rect width="22" height="22" fill="white" style="fill:white;fill-opacity:1;" transform="translate(0 0.5)"/>
</clipPath>
</defs>
</svg>
