<svg width="66" height="16" viewBox="0 0 66 16" fill="none" xmlns="http://www.w3.org/2000/svg">
<g clip-path="url(#clip0_166_2008)">
<path d="M21.3691 2.14844C21.3691 2.61108 21.2272 2.98162 20.9478 3.25796C20.6264 3.58556 20.2079 3.7504 19.695 3.7504C19.2048 3.7504 18.7863 3.58279 18.443 3.25242C18.0989 2.91721 17.9272 2.50581 17.9272 2.01338C17.9272 1.52095 18.0989 1.10955 18.443 0.77711C18.7863 0.443974 19.2048 0.276367 19.695 0.276367C19.9391 0.276367 20.1717 0.325541 20.3938 0.416963C20.615 0.509077 20.7952 0.633743 20.9258 0.787497L20.6292 1.07977C20.4016 0.81728 20.0915 0.687765 19.695 0.687765C19.3375 0.687765 19.0275 0.80966 18.7643 1.05553C18.504 1.30209 18.3734 1.62138 18.3734 2.01338C18.3734 2.40538 18.504 2.72744 18.7643 2.974C19.0275 3.2171 19.3375 3.34177 19.695 3.34177C20.0745 3.34177 20.3938 3.2171 20.6456 2.97123C20.8116 2.80847 20.9059 2.58408 20.9308 2.29734H19.695V1.89702H21.3436C21.3635 1.9836 21.3691 2.0674 21.3691 2.14844Z" fill="white" stroke="white" style="fill:white;fill-opacity:1;stroke:white;stroke-opacity:1;" stroke-width="0.056921" stroke-miterlimit="10"/>
<path d="M23.984 0.761452H22.4354V1.81419H23.8315V2.2145H22.4354V3.26724H23.984V3.67517H21.9971V0.353516H23.984V0.761452Z" fill="white" stroke="white" style="fill:white;fill-opacity:1;stroke:white;stroke-opacity:1;" stroke-width="0.056921" stroke-miterlimit="10"/>
<path d="M25.8282 3.67517H25.3898V0.761452H24.4399V0.353516H26.7788V0.761452H25.8282V3.67517Z" fill="white" stroke="white" style="fill:white;fill-opacity:1;stroke:white;stroke-opacity:1;" stroke-width="0.056921" stroke-miterlimit="10"/>
<path d="M28.4707 3.67517V0.353516H28.9084V3.67517H28.4707Z" fill="white" stroke="white" style="fill:white;fill-opacity:1;stroke:white;stroke-opacity:1;" stroke-width="0.056921" stroke-miterlimit="10"/>
<path d="M30.8511 3.67517H30.4163V0.761447H29.4629V0.353516H31.8045V0.761447H30.8511V3.67517Z" fill="white" stroke="white" style="fill:white;fill-opacity:1;stroke:white;stroke-opacity:1;" stroke-width="0.056921" stroke-miterlimit="10"/>
<path d="M36.2319 3.24688C35.8964 3.58279 35.4806 3.7504 34.9848 3.7504C34.4861 3.7504 34.0704 3.58279 33.7349 3.24688C33.4001 2.91167 33.2334 2.50027 33.2334 2.01338C33.2334 1.52649 33.4001 1.11509 33.7349 0.779877C34.0704 0.443973 34.4861 0.276367 34.9848 0.276367C35.4778 0.276367 35.8935 0.443973 36.229 0.782651C36.5667 1.12063 36.7334 1.52926 36.7334 2.01338C36.7334 2.50027 36.5667 2.91167 36.2319 3.24688ZM34.0591 2.96846C34.3116 3.2171 34.6188 3.34177 34.9848 3.34177C35.348 3.34177 35.658 3.2171 35.9077 2.96846C36.1595 2.71982 36.2872 2.40054 36.2872 2.01338C36.2872 1.62622 36.1595 1.30694 35.9077 1.0583C35.658 0.80966 35.348 0.684995 34.9848 0.684995C34.6188 0.684995 34.3116 0.80966 34.0591 1.0583C33.8072 1.30694 33.6796 1.62622 33.6796 2.01338C33.6796 2.40054 33.8072 2.71982 34.0591 2.96846Z" fill="white" stroke="white" style="fill:white;fill-opacity:1;stroke:white;stroke-opacity:1;" stroke-width="0.056921" stroke-miterlimit="10"/>
<path d="M37.3486 3.67517V0.353516H37.8807L39.5349 2.93687H39.5541L39.5349 2.2983V0.353516H39.9727V3.67517H39.5158L37.7835 0.964379H37.7644L37.7835 1.60572V3.67517H37.3486Z" fill="white" stroke="white" style="fill:white;fill-opacity:1;stroke:white;stroke-opacity:1;" stroke-width="0.056921" stroke-miterlimit="10"/>
<path d="M33.1249 8.52556C31.7919 8.52556 30.703 9.51597 30.703 10.8825C30.703 12.2378 31.7919 13.2387 33.1249 13.2387C34.4606 13.2387 35.5495 12.2378 35.5495 10.8825C35.5495 9.51597 34.4606 8.52556 33.1249 8.52556ZM33.1249 12.3105C32.3935 12.3105 31.7642 11.7212 31.7642 10.8825C31.7642 10.0327 32.3935 9.45361 33.1249 9.45361C33.8562 9.45361 34.4882 10.0327 34.4882 10.8825C34.4882 11.7212 33.8562 12.3105 33.1249 12.3105ZM27.8407 8.52556C26.505 8.52556 25.419 9.51597 25.419 10.8825C25.419 12.2378 26.505 13.2387 27.8407 13.2387C29.1758 13.2387 30.2625 12.2378 30.2625 10.8825C30.2625 9.51597 29.1758 8.52556 27.8407 8.52556ZM27.8407 12.3105C27.1087 12.3105 26.4773 11.7212 26.4773 10.8825C26.4773 10.0327 27.1087 9.45361 27.8407 9.45361C28.5721 9.45361 29.2013 10.0327 29.2013 10.8825C29.2013 11.7212 28.5721 12.3105 27.8407 12.3105ZM21.5529 9.24794V10.2494H24.0023C23.9307 10.809 23.7392 11.2205 23.4454 11.5071C23.088 11.8534 22.5311 12.2378 21.5529 12.2378C20.0455 12.2378 18.8651 11.05 18.8651 9.57833C18.8651 8.10655 20.0455 6.91876 21.5529 6.91876C22.3679 6.91876 22.961 7.22973 23.3987 7.63285L24.1215 6.92707C23.5093 6.35638 22.695 5.91797 21.5529 5.91797C19.4858 5.91797 17.7485 7.56013 17.7485 9.57833C17.7485 11.5965 19.4858 13.2387 21.5529 13.2387C22.6701 13.2387 23.5093 12.8812 24.169 12.2109C24.8451 11.5508 25.0558 10.6227 25.0558 9.87333C25.0558 9.64062 25.0359 9.42665 25.0004 9.24794H21.5529ZM47.2647 10.0243C47.0654 9.49724 46.4504 8.52556 45.1976 8.52556C43.9562 8.52556 42.9227 9.48064 42.9227 10.8825C42.9227 12.2025 43.9456 13.2387 45.3168 13.2387C46.4256 13.2387 47.0654 12.5786 47.3286 12.1942L46.5057 11.6588C46.2312 12.0508 45.8574 12.3105 45.3168 12.3105C44.7798 12.3105 44.3946 12.0702 44.1478 11.5965L47.3761 10.2923L47.2647 10.0243ZM43.9732 10.809C43.9456 9.90036 44.6961 9.43495 45.2338 9.43495C45.6552 9.43495 46.0127 9.64062 46.1319 9.93498L43.9732 10.809ZM41.3493 13.0953H42.4105V6.16938H41.3493V13.0953ZM39.6113 9.05056H39.5759C39.3375 8.77487 38.8828 8.52556 38.3068 8.52556C37.0981 8.52556 35.9929 9.56166 35.9929 10.8901C35.9929 12.2109 37.0981 13.2387 38.3068 13.2387C38.8828 13.2387 39.3375 12.9872 39.5759 12.7032H39.6113V13.0412C39.6113 13.9423 39.1183 14.4264 38.3231 14.4264C37.6748 14.4264 37.2725 13.9693 37.1066 13.585L36.1836 13.961C36.4497 14.5857 37.1541 15.3545 38.3231 15.3545C39.5673 15.3545 40.6172 14.6397 40.6172 12.9007V8.66894H39.6113V9.05056ZM38.3976 12.3105C37.6663 12.3105 37.0541 11.7129 37.0541 10.8901C37.0541 10.0596 37.6663 9.45361 38.3976 9.45361C39.1183 9.45361 39.6865 10.0596 39.6865 10.8901C39.6865 11.7129 39.1183 12.3105 38.3976 12.3105ZM52.2332 6.16938H49.6951V13.0953H50.7534V10.471H52.2332C53.4086 10.471 54.5613 9.64062 54.5613 8.31989C54.5613 6.99979 53.4058 6.16938 52.2332 6.16938ZM52.2608 9.50767H50.7534V7.13275H52.2608C53.0511 7.13275 53.5022 7.77339 53.5022 8.31989C53.5022 8.85596 53.0511 9.50767 52.2608 9.50767ZM58.8034 8.51244C58.0387 8.51244 57.2435 8.84205 56.9165 9.57273L57.8557 9.95712C58.0578 9.57273 58.4295 9.44808 58.8225 9.44808C59.3716 9.44808 59.9284 9.77017 59.9369 10.3387V10.4115C59.7454 10.3035 59.3354 10.1434 58.831 10.1434C57.8195 10.1434 56.7888 10.6872 56.7888 11.7018C56.7888 12.6299 57.6173 13.2275 58.5487 13.2275C59.261 13.2275 59.6539 12.9138 59.9007 12.5488H59.9369V13.0842H60.9591V10.4274C60.9591 9.19948 60.0199 8.51244 58.8034 8.51244ZM58.6757 12.3078C58.3295 12.3078 57.8471 12.1402 57.8471 11.7212C57.8471 11.1851 58.4487 10.9794 58.9694 10.9794C59.4354 10.9794 59.6539 11.0798 59.9369 11.2121C59.8539 11.8534 59.2886 12.3078 58.6757 12.3078ZM64.6834 8.66405L63.4668 11.6664H63.4306L62.1729 8.66405H61.0315L62.9213 12.8598L61.843 15.1945H62.949L65.8609 8.66405H64.6834ZM55.143 13.0953H56.2042V6.16938H55.143V13.0953Z" fill="white" style="fill:white;fill-opacity:1;"/>
<path d="M0.380363 0.649545C0.213661 0.819923 0.117188 1.08518 0.117188 1.42871V13.682C0.117188 14.0255 0.213661 14.2908 0.380363 14.4611L0.421507 14.4985L7.45422 7.63498V7.47293L0.421507 0.609375L0.380363 0.649545Z" fill="url(#paint0_linear_166_2008)" style=""/>
<path d="M9.79471 9.92417L7.45312 7.63516V7.47312L9.79754 5.18408L9.85004 5.21387L12.6265 6.75626C13.4189 7.19395 13.4189 7.91426 12.6265 8.35477L9.85004 9.89437L9.79471 9.92417Z" fill="url(#paint1_linear_166_2008)" style=""/>
<path d="M9.85262 9.8959L7.4557 7.55566L0.381836 14.4628C0.645013 14.7329 1.07418 14.7655 1.56223 14.4953L9.85262 9.8959Z" fill="url(#paint2_linear_166_2008)" style=""/>
<path d="M9.85262 5.21483L1.56223 0.615349C1.07418 0.348009 0.645013 0.38056 0.381836 0.65067L7.4557 7.55508L9.85262 5.21483Z" fill="url(#paint3_linear_166_2008)" style=""/>
</g>
<defs>
<linearGradient id="paint0_linear_166_2008" x1="6.8298" y1="13.8096" x2="-2.46619" y2="4.28836" gradientUnits="userSpaceOnUse">
<stop stop-color="#00A0FF" style="stop-color:#00A0FF;stop-color:color(display-p3 0.0000 0.6275 1.0000);stop-opacity:1;"/>
<stop offset="0.0066" stop-color="#00A1FF" style="stop-color:#00A1FF;stop-color:color(display-p3 0.0000 0.6314 1.0000);stop-opacity:1;"/>
<stop offset="0.2601" stop-color="#00BEFF" style="stop-color:#00BEFF;stop-color:color(display-p3 0.0000 0.7451 1.0000);stop-opacity:1;"/>
<stop offset="0.5122" stop-color="#00D2FF" style="stop-color:#00D2FF;stop-color:color(display-p3 0.0000 0.8235 1.0000);stop-opacity:1;"/>
<stop offset="0.7604" stop-color="#00DFFF" style="stop-color:#00DFFF;stop-color:color(display-p3 0.0000 0.8745 1.0000);stop-opacity:1;"/>
<stop offset="1" stop-color="#00E3FF" style="stop-color:#00E3FF;stop-color:color(display-p3 0.0000 0.8902 1.0000);stop-opacity:1;"/>
</linearGradient>
<linearGradient id="paint1_linear_166_2008" x1="13.6584" y1="7.55336" x2="-0.0733312" y2="7.55336" gradientUnits="userSpaceOnUse">
<stop stop-color="#FFE000" style="stop-color:#FFE000;stop-color:color(display-p3 1.0000 0.8784 0.0000);stop-opacity:1;"/>
<stop offset="0.4087" stop-color="#FFBD00" style="stop-color:#FFBD00;stop-color:color(display-p3 1.0000 0.7412 0.0000);stop-opacity:1;"/>
<stop offset="0.7754" stop-color="#FFA500" style="stop-color:#FFA500;stop-color:color(display-p3 1.0000 0.6471 0.0000);stop-opacity:1;"/>
<stop offset="1" stop-color="#FF9C00" style="stop-color:#FF9C00;stop-color:color(display-p3 1.0000 0.6118 0.0000);stop-opacity:1;"/>
</linearGradient>
<linearGradient id="paint2_linear_166_2008" x1="8.54926" y1="6.28343" x2="-4.05685" y2="-6.62813" gradientUnits="userSpaceOnUse">
<stop stop-color="#FF3A44" style="stop-color:#FF3A44;stop-color:color(display-p3 1.0000 0.2275 0.2667);stop-opacity:1;"/>
<stop offset="1" stop-color="#C31162" style="stop-color:#C31162;stop-color:color(display-p3 0.7647 0.0667 0.3843);stop-opacity:1;"/>
</linearGradient>
<linearGradient id="paint3_linear_166_2008" x1="-1.39879" y1="18.5389" x2="4.23039" y2="12.7733" gradientUnits="userSpaceOnUse">
<stop stop-color="#32A071" style="stop-color:#32A071;stop-color:color(display-p3 0.1961 0.6275 0.4431);stop-opacity:1;"/>
<stop offset="0.0685" stop-color="#2DA771" style="stop-color:#2DA771;stop-color:color(display-p3 0.1765 0.6549 0.4431);stop-opacity:1;"/>
<stop offset="0.4762" stop-color="#15CF74" style="stop-color:#15CF74;stop-color:color(display-p3 0.0824 0.8118 0.4549);stop-opacity:1;"/>
<stop offset="0.8009" stop-color="#06E775" style="stop-color:#06E775;stop-color:color(display-p3 0.0235 0.9059 0.4588);stop-opacity:1;"/>
<stop offset="1" stop-color="#00F076" style="stop-color:#00F076;stop-color:color(display-p3 0.0000 0.9412 0.4627);stop-opacity:1;"/>
</linearGradient>
<clipPath id="clip0_166_2008">
<rect width="65.98" height="15.6082" fill="white" style="fill:white;fill-opacity:1;" transform="translate(-0.000488281 -0.00927734)"/>
</clipPath>
</defs>
</svg>
