<svg width="22" height="23" viewBox="0 0 22 23" fill="none" xmlns="http://www.w3.org/2000/svg">
<g clip-path="url(#clip0_577_7256)">
<path d="M11 6.83337V10.5L12.8333 12.3334" stroke="#94979C" style="stroke:#94979C;stroke:color(display-p3 0.5804 0.5922 0.6118);stroke-opacity:1;" stroke-width="2" stroke-linecap="round" stroke-linejoin="round"/>
<path d="M2.79688 9.58327C3.00229 7.56666 3.94295 5.69625 5.43938 4.32891C6.93581 2.96157 8.88326 2.193 10.9102 2.16985C12.9371 2.1467 14.9016 2.87058 16.4289 4.20339C17.9561 5.5362 18.9393 7.38463 19.1907 9.39603C19.4421 11.4074 18.9442 13.441 17.792 15.1087C16.6398 16.7765 14.914 17.9616 12.9437 18.4381C10.9735 18.9146 8.89675 18.6491 7.10979 17.6922C5.32283 16.7352 3.9507 15.1539 3.25521 13.2499M2.79688 17.8333V13.2499H7.38021" stroke="#94979C" style="stroke:#94979C;stroke:color(display-p3 0.5804 0.5922 0.6118);stroke-opacity:1;" stroke-width="2" stroke-linecap="round" stroke-linejoin="round"/>
</g>
<defs>
<clipPath id="clip0_577_7256">
<rect width="22" height="22" fill="white" style="fill:white;fill-opacity:1;" transform="translate(0 0.5)"/>
</clipPath>
</defs>
</svg>
