<svg width="59" height="70" viewBox="0 0 59 70" fill="none" xmlns="http://www.w3.org/2000/svg">
<path d="M22.625 0.123039C21.9004 0.314445 21.0938 0.806633 20.6836 1.28515C20.4785 1.54491 19.7266 2.74804 19.0293 3.95116L17.7441 6.15234H15.1191C13.4648 6.15234 12.3027 6.20702 12.0156 6.3164C10.8262 6.72655 9.86914 7.68359 9.54102 8.80468C9.45898 9.11913 9.34961 10.623 9.30859 12.168L9.22656 14.9707L7.32617 16.0234C5.04297 17.2812 4.35938 17.8281 3.86719 18.7715C3.55273 19.373 3.49805 19.6601 3.49805 20.5762C3.49805 21.8066 3.45703 21.7246 5.20703 24.7734C5.80859 25.7988 6.28711 26.6875 6.28711 26.7285C6.28711 26.7695 5.75391 27.7129 5.09766 28.8203C3.68945 31.1992 3.56641 31.5137 3.56641 32.6758C3.55273 33.7695 3.96289 34.7129 4.72852 35.4101C5.01562 35.6836 6.25977 36.4766 7.46289 37.1738L9.66406 38.459L9.5957 40.8926C9.54102 43.1484 9.55469 43.3945 9.8418 44.2832L10.1426 45.2402L5.41211 53.4023C1.2832 60.539 0.681641 61.6465 0.681641 62.1387C0.681641 62.8906 1.13281 63.3418 1.87109 63.3281C2.19922 63.3281 3.86719 62.7265 6.47852 61.6738C8.73438 60.7715 10.5938 60.0469 10.6211 60.0742C10.6484 60.1015 10.9766 62.1523 11.332 64.6133C11.6875 67.0879 12.043 69.248 12.1387 69.3984C12.3438 69.7812 13.0273 70.0547 13.4785 69.9453C13.6699 69.8906 13.957 69.7129 14.1211 69.5488C14.2852 69.3847 16.541 65.5703 19.1113 61.0859C24.2109 52.2402 23.7051 52.9512 25.0039 52.6914C25.2227 52.6504 26.4258 52.0351 27.6699 51.3242C28.9277 50.6133 29.9941 50.039 30.0488 50.039C30.1172 50.039 30.8965 50.4765 31.7988 51.0098C33.6445 52.1172 34.5059 52.5547 34.998 52.6777C35.2852 52.7461 36.1602 54.1953 40.125 61.0722C42.7637 65.6387 45.0469 69.5215 45.2109 69.6855C45.5664 70.0547 46.4004 70.1094 46.8516 69.7949C47.2617 69.5078 47.3301 69.207 47.9863 64.4629C48.3008 62.207 48.6152 60.3066 48.6699 60.2383C48.7383 60.1699 50.5977 60.8398 52.9355 61.7832C55.2188 62.6855 57.2422 63.4375 57.4473 63.4375C58.0215 63.4375 58.6504 62.8222 58.6504 62.2617C58.6504 61.6465 58.9375 62.1797 53.7832 53.2246C51.3496 49 49.3535 45.4863 49.3535 45.4316C49.3535 45.3769 49.5449 44.9531 49.7637 44.5156L50.1738 43.709V40.7969V37.8984L52.416 36.6406C55.2871 35.0547 55.8613 34.4531 56.1074 32.7578C56.2715 31.7324 55.998 30.9805 54.6035 28.5058C53.8926 27.248 53.3184 26.1543 53.3184 26.0859C53.3184 26.0039 53.9062 24.9785 54.6035 23.8027C56.0254 21.4648 56.3125 20.6035 56.0391 19.4141C55.6973 17.8965 55.1777 17.3906 52.1699 15.6543L50.0371 14.4238V11.7988C50.0371 8.74999 49.8867 8.09374 48.9297 7.10937C47.918 6.0703 47.5078 5.96093 44.1719 5.8789L41.2461 5.81054L40.0293 3.62304C39.3594 2.41991 38.6621 1.27148 38.4707 1.08007C37.8281 0.410149 36.7754 -7.62939e-06 35.6543 -7.62939e-06C34.4922 -7.62939e-06 34.0273 0.191399 31.3066 1.77734C30.3633 2.32421 29.543 2.77538 29.4609 2.77538C29.3926 2.77538 28.5312 2.29687 27.5469 1.70898C26.5762 1.13476 25.5371 0.533195 25.25 0.396477C24.6758 0.0956955 23.2676 -0.0546951 22.625 0.123039ZM36.2969 2.7207C36.6113 2.89843 37.1035 3.66405 38.1426 5.52343C38.9355 6.93163 39.7012 8.1621 39.8516 8.24413C40.0293 8.35351 41.3008 8.43554 43.4473 8.47655L46.7832 8.54491L47.1113 8.92773C47.4395 9.31054 47.4395 9.32421 47.4395 12.4551V15.6133L47.8223 15.9824C48.0273 16.1875 49.3398 17.0078 50.7344 17.8144C53.4551 19.373 53.7285 19.6465 53.5371 20.4531C53.4824 20.6582 52.7988 21.9023 52.0059 23.2148C51.0078 24.8965 50.584 25.7305 50.584 26.0312C50.584 26.3183 51.0625 27.2754 52.1152 29.0527C53.7012 31.7461 53.9062 32.3476 53.4551 32.8808C53.3594 33.0039 52.0742 33.8105 50.625 34.6719C49.1758 35.5332 47.9316 36.3535 47.8496 36.5039C47.7676 36.6543 47.7129 37.9941 47.7129 39.7851C47.7129 42 47.6582 42.916 47.5352 43.2441C47.1797 44.0918 47.166 44.0918 43.666 44.0918C40.7266 44.0918 40.4805 44.1055 40.207 44.3515C40.043 44.5019 39.291 45.7051 38.5254 47.0176C36.9668 49.6836 36.584 50.1758 35.9961 50.1758C35.75 50.1758 34.7109 49.6426 33.084 48.6719C31.1562 47.5371 30.4453 47.168 30.0762 47.168C29.7207 47.168 28.9688 47.5371 27.041 48.6582C25.6465 49.4785 24.3477 50.1758 24.1699 50.2168C23.9785 50.2715 23.6504 50.2031 23.3906 50.0664C23.0215 49.875 22.666 49.3555 21.4766 47.2363C20.4922 45.4726 19.918 44.584 19.6855 44.4746C19.4395 44.3515 18.4551 44.2969 16.2266 44.2969H13.0957L12.6992 43.9004L12.3027 43.5039V40.373C12.3027 37.8437 12.2617 37.1875 12.0977 36.9551C11.9883 36.8047 10.6895 35.9707 9.21289 35.123C6.56055 33.5781 6.15039 33.25 6.15039 32.5801C6.15039 32.457 6.83398 31.1992 7.6543 29.8047C8.70703 28 9.1582 27.125 9.1582 26.8242C9.1582 26.5234 8.69336 25.5664 7.62695 23.707C6.01367 20.8633 5.84961 20.3848 6.3418 19.8379C6.47852 19.6875 7.72266 18.9355 9.10352 18.1836C10.4707 17.418 11.6875 16.707 11.7832 16.584C11.9199 16.4199 11.9746 15.5176 12.0293 13.0703C12.084 10.1855 12.125 9.73437 12.3438 9.40624C12.4805 9.21484 12.6992 9.00976 12.8223 8.95507C12.9453 8.90038 14.3809 8.85937 16.0078 8.87304C18.0859 8.90038 19.0566 8.85937 19.3164 8.73632C19.5898 8.61327 20.0957 7.87499 21.2031 5.96093C22.0234 4.52538 22.8574 3.21288 23.0488 3.03515C23.6094 2.52929 24.0059 2.65234 26.125 3.91015C28.6406 5.41405 29.0234 5.60546 29.4746 5.60546C29.6934 5.60546 30.8555 5.04491 32.291 4.2246C34.6836 2.88476 35.4766 2.4746 35.75 2.46093C35.832 2.46093 36.0781 2.5703 36.2969 2.7207ZM50.625 52.9922C52.6484 56.4922 54.2754 59.3906 54.248 59.418C54.2207 59.4453 52.7852 58.9121 51.0488 58.2422C49.3262 57.5586 47.7539 57.0117 47.5625 57.0117C47.043 57.0117 46.5098 57.4902 46.3594 58.0781C46.291 58.3515 46.0312 59.9512 45.7852 61.6191C45.5391 63.3008 45.3066 64.668 45.2656 64.668C45.2246 64.6543 43.5703 61.8515 41.6016 58.4336L38.0332 52.1992L38.5254 51.748C38.8125 51.5019 39.6328 50.2715 40.3984 48.959L41.7656 46.6211H44.3633L46.9609 46.6348L50.625 52.9922ZM15.6387 46.8945H17.9766L19.166 49.0547C19.8223 50.2441 20.4922 51.3379 20.6426 51.4746C20.793 51.6113 20.916 51.789 20.916 51.8574C20.916 52.0488 14.0254 64.668 13.9844 64.5586C13.957 64.5039 13.7109 62.8906 13.4102 60.9765C12.9043 57.6953 12.8496 57.4765 12.5078 57.1894C12.002 56.7519 11.4688 56.793 10.0332 57.3672C9.36328 57.6406 7.91406 58.2148 6.82031 58.6523L4.82422 59.4316L6.79297 56C7.88672 54.1133 9.52734 51.2558 10.4434 49.6562L12.0977 46.7441L12.6992 46.8262C13.0273 46.8672 14.3535 46.8945 15.6387 46.8945Z" fill="#03A39E"/>
<path d="M26.9324 9.92576C15.9676 11.9082 9.95196 23.707 14.8191 33.7011C15.6668 35.4375 16.5691 36.7363 17.8816 38.0625C22.284 42.5742 28.9695 44.2148 34.9578 42.2597C40.5906 40.414 44.6375 36.039 46.0867 30.2011C46.3602 29.0801 46.4012 28.5879 46.4149 26.3867C46.4149 24.2129 46.3602 23.6797 46.1004 22.6406C45.2664 19.3183 43.8719 16.8027 41.6297 14.5605C39.0731 12.0039 36.1063 10.5273 32.2098 9.84373C31.0887 9.65232 28.1766 9.69334 26.9324 9.92576ZM32.2645 12.4551C34.8348 12.8515 37.7059 14.3554 39.7156 16.3652C41.534 18.1699 42.7918 20.3847 43.5027 22.9687C43.7625 23.9668 43.8172 24.459 43.8172 26.3867C43.8172 28.4101 43.7762 28.7793 43.4481 29.9687C41.9578 35.3144 37.8836 39.1426 32.4695 40.2636C31.1981 40.5234 28.7918 40.5644 27.4109 40.332C21.9695 39.457 17.4988 35.3281 16.0359 29.8183C15.7215 28.6836 15.6805 28.2324 15.6805 26.3867C15.6805 24.541 15.7215 24.0898 16.0359 22.9414C16.4324 21.4648 17.2117 19.7011 18.0047 18.498C18.7977 17.2949 20.575 15.5176 21.8055 14.6972C24.991 12.5781 28.3133 11.8672 32.2645 12.4551Z" fill="#03A39E"/>
<path d="M28.6279 16.625C27.7666 17.0488 27.4932 17.5 26.8096 19.6328L26.167 21.6699L23.8564 21.7382C21.9971 21.7929 21.4502 21.8476 21.0947 22.039C19.9463 22.6679 19.5088 24.1308 20.0967 25.3613C20.3428 25.8672 20.7119 26.2226 22.1748 27.3027C23.2412 28.0957 23.9111 28.6836 23.8701 28.7793C23.3096 30.2422 22.667 32.5937 22.6807 33.1543C22.708 34.7265 24.5537 35.9843 26.0029 35.4238C26.1807 35.3554 27.083 34.7402 28.0127 34.0566C29.0654 33.291 29.7627 32.8535 29.8584 32.9355C31.335 34.0703 33.1807 35.2871 33.6045 35.4101C34.7393 35.7109 36.0791 35.1367 36.5439 34.1386C36.9131 33.373 36.8311 32.4707 36.2295 30.584C35.9287 29.6543 35.6826 28.7929 35.6826 28.6972C35.6963 28.5879 36.4482 27.9453 37.3506 27.2754C39.1553 25.9355 39.4697 25.6074 39.6475 24.8281C39.7978 24.1582 39.5244 23.0781 39.0869 22.6132C38.417 21.8886 38.1025 21.8066 35.6279 21.7382L33.3174 21.6699L32.6201 19.5918C31.8818 17.4316 31.6221 16.9941 30.8291 16.625C30.2549 16.3515 29.1748 16.3515 28.6279 16.625ZM30.1318 20.1933C30.624 21.957 31.2939 23.83 31.499 24.0488C31.6904 24.2265 32.1689 24.2812 34.2881 24.3359L36.8447 24.4043L35.2725 25.5527C33.167 27.084 32.8115 27.4257 32.8115 27.959C32.8115 28.1914 33.1123 29.2988 33.4951 30.4199C33.8643 31.541 34.1514 32.4707 34.1103 32.5117C34.083 32.539 33.3037 32.0195 32.374 31.3359C30.3369 29.8593 30.1592 29.75 29.6396 29.8593C29.4072 29.9004 28.4502 30.5156 27.4932 31.2129C26.5498 31.9101 25.7021 32.5254 25.6201 32.58C25.5244 32.6347 25.7978 31.6504 26.208 30.3925C26.8232 28.5332 26.9326 28.041 26.8369 27.6992C26.7412 27.3711 26.29 26.9746 24.7041 25.8398L22.6807 24.4043L25.3057 24.3359C27.7529 24.2675 27.9307 24.2539 28.1494 23.9804C28.2725 23.8164 28.6826 22.7226 29.0518 21.5468C29.4346 20.3711 29.7764 19.414 29.8174 19.414C29.8721 19.414 30.0088 19.7695 30.1318 20.1933Z" fill="#03A39E"/>
</svg>
