<svg width="71" height="66" viewBox="0 0 71 66" fill="none" xmlns="http://www.w3.org/2000/svg">
<path d="M34.4251 0.358303C34.2037 0.524334 33.2997 2.2769 32.322 4.49067L30.6063 8.34632L26.5293 8.75218C24.2786 8.97355 22.3047 9.21338 22.1202 9.25028C21.7143 9.37941 21.3823 9.9882 21.5298 10.4125C21.5852 10.597 23.0426 11.999 24.7583 13.5671C26.4924 15.1168 27.8944 16.4819 27.8944 16.5926C27.8944 16.7033 27.507 18.6403 27.0458 20.891C26.1972 24.8758 26.1788 25.0234 26.5108 25.3739C26.6953 25.5768 26.9905 25.7429 27.1565 25.7429C27.3225 25.7429 29.1305 24.7836 31.1782 23.6213L34.8863 21.4814L38.6128 23.6213C40.6421 24.7836 42.4684 25.7429 42.6344 25.7429C42.8189 25.7429 43.1141 25.5768 43.2986 25.3923C43.5937 25.0418 43.5753 24.8574 42.7636 20.9833C42.3024 18.751 41.915 16.814 41.915 16.648C41.915 16.5004 43.3355 15.0983 45.0511 13.5487C46.7853 11.9806 48.2058 10.5785 48.2058 10.431C48.2427 9.91441 48.1689 9.60079 47.9106 9.39786C47.763 9.28717 45.7522 9.01045 43.4277 8.77063L39.1847 8.32787L37.469 4.47222C35.9747 1.13312 35.3659 0.100029 34.9047 0.100029C34.8494 0.100029 34.628 0.210718 34.4251 0.358303ZM36.399 6.85203C37.1185 8.45701 37.7642 9.85906 37.8564 9.93286C37.9302 10.0251 39.4429 10.2465 41.1955 10.4494C42.9665 10.6339 44.553 10.8184 44.7375 10.8368C44.9774 10.8737 44.2948 11.5932 42.4684 13.2535C40.31 15.2275 39.8857 15.6887 39.8857 16.1314C39.8857 16.4266 40.1809 18.0131 40.5314 19.6734C40.8819 21.3153 41.1402 22.6989 41.1217 22.7174C41.0848 22.7543 39.7565 22.0348 38.17 21.1308C36.5835 20.2084 35.1076 19.4705 34.8863 19.4705C34.6833 19.4705 33.2075 20.2084 31.6209 21.1308C30.0344 22.0348 28.7246 22.7543 28.6877 22.7174C28.6508 22.6805 28.9091 21.2784 29.278 19.5812C29.6286 17.8655 29.9237 16.2974 29.9237 16.0576C29.9237 15.7256 29.2596 15.0061 27.3225 13.2535C25.4593 11.5563 24.8136 10.8737 25.0534 10.8368C25.2564 10.8184 26.8429 10.6339 28.5955 10.4494C31.1044 10.1727 31.8423 10.0251 32.0084 9.78527C32.1375 9.61924 32.8201 8.16184 33.5211 6.55686C34.2406 4.95187 34.8678 3.6974 34.96 3.7712C35.0338 3.84499 35.6795 5.2286 36.399 6.85203Z" fill="#03A39E"/>
<path d="M9.88817 14.6002C9.77748 14.6556 9.07646 16.0576 8.33853 17.7179C7.60061 19.3967 6.89958 20.7619 6.78889 20.7619C5.64511 20.7988 0.332065 21.4998 0.184481 21.6474C0.0737923 21.7581 0 22.0717 0 22.33C0 22.7358 0.313617 23.1232 1.43895 24.1563C2.25067 24.8758 3.3391 25.8904 3.89254 26.3885L4.87029 27.3294L4.20616 30.5025C3.41289 34.229 3.46824 34.6164 4.8334 34.4135C4.98098 34.395 6.2539 33.7124 7.6744 32.8823C9.0949 32.0705 10.3309 31.4064 10.4416 31.4064C10.5523 31.4064 11.733 32.0337 13.0612 32.8085C15.9207 34.4688 16.2343 34.5979 16.7878 34.395C17.3412 34.1921 17.3227 33.5648 16.6402 30.318C16.3266 28.879 16.1052 27.5508 16.1236 27.4032C16.1605 27.2372 17.1752 26.2041 18.3927 25.1156C19.6103 24.0087 20.6803 22.9572 20.7725 22.7727C20.8648 22.5882 20.8832 22.2377 20.8094 21.9794C20.6803 21.4445 20.6803 21.4445 16.7324 21.0201C15.2197 20.8726 13.9283 20.7065 13.8914 20.6696C13.8545 20.6327 13.2642 19.3414 12.5816 17.8102C11.8806 16.279 11.2164 14.9138 11.1057 14.7663C10.8844 14.508 10.3125 14.4342 9.88817 14.6002ZM11.6961 20.522C12.1757 21.5736 12.5816 22.4222 12.6185 22.4406C12.6554 22.4591 13.8176 22.5882 15.2197 22.7727L17.7471 23.0679L15.9022 24.7098C13.7623 26.6284 13.8361 26.407 14.5002 29.5247C14.7585 30.6316 14.9429 31.5724 14.906 31.5909C14.8876 31.6093 13.9652 31.0928 12.8583 30.4471C11.733 29.783 10.663 29.248 10.4601 29.248C10.2571 29.248 9.1687 29.783 8.06181 30.4287C6.93648 31.0744 6.01407 31.5909 5.97718 31.5724C5.95873 31.5356 6.16166 30.5025 6.41993 29.248C6.752 27.6984 6.86269 26.8497 6.752 26.573C6.65976 26.3516 5.81115 25.4661 4.85185 24.6175L3.11773 23.0679L5.62666 22.7912C7.01027 22.6436 8.22784 22.4222 8.32008 22.33C8.41232 22.2193 8.92887 21.1493 9.46387 19.9502C10.3494 17.9578 10.4601 17.7917 10.6261 18.1976C10.7368 18.4374 11.2164 19.489 11.6961 20.522Z" fill="#03A39E"/>
<path d="M59.0909 14.7478C58.9802 14.8769 58.2976 16.279 57.5966 17.8286L56.3236 20.6696L55.6226 20.7803C55.2352 20.8541 53.8516 21.0017 52.5233 21.1308C49.8668 21.3891 49.2949 21.6105 49.2949 22.3853C49.2949 22.7912 49.7377 23.2708 51.6932 25.0049C53.003 26.1672 54.073 27.274 54.0914 27.4401C54.0914 27.6246 53.8516 28.9344 53.538 30.3549C52.8554 33.5648 52.837 34.1921 53.4088 34.395C53.9438 34.5979 54.2575 34.4688 57.1169 32.8085C58.4452 32.0337 59.6258 31.4064 59.7365 31.4064C59.8472 31.4064 61.0832 32.0705 62.5037 32.8823C63.9243 33.7124 65.1972 34.395 65.3448 34.4135C66.7099 34.6164 66.7653 34.229 65.9904 30.5209C65.1972 26.8497 64.9389 27.5692 68.0751 24.7651C69.9383 23.1048 70.1413 22.865 70.1413 22.2931C70.1413 21.4813 70.0121 21.4445 66.2672 21.057C64.6068 20.891 63.2048 20.725 63.1863 20.7065C63.1679 20.6696 62.5591 19.3229 61.8396 17.7179C61.1201 16.0945 60.4376 14.7109 60.3084 14.6371C59.9579 14.4157 59.3122 14.4711 59.0909 14.7478ZM60.8619 20.2638C61.3046 21.2969 61.7658 22.2193 61.8581 22.33C61.9503 22.4222 63.1679 22.6436 64.5515 22.7912L67.0604 23.0679L65.3263 24.6175C64.367 25.4661 63.5184 26.3516 63.4262 26.573C63.3155 26.8497 63.4262 27.6984 63.7582 29.248C64.0165 30.5025 64.2194 31.5356 64.201 31.5724C64.1641 31.5909 63.2417 31.0744 62.1163 30.4287C61.0095 29.783 59.9395 29.248 59.755 29.248C59.5705 29.248 58.5005 29.783 57.3567 30.4287C56.2314 31.0928 55.2905 31.6093 55.2721 31.5909C55.2537 31.5724 55.4381 30.6316 55.678 29.5247C56.3421 26.3885 56.4159 26.6284 54.2759 24.7098L52.4311 23.0679L54.94 22.7912C56.9324 22.5513 57.5043 22.4406 57.6888 22.1639C57.8364 21.9794 58.3345 20.9279 58.8326 19.821C59.4783 18.3636 59.755 17.9024 59.8657 18.1054C59.9579 18.2529 60.4007 19.2307 60.8619 20.2638Z" fill="#03A39E"/>
<path d="M31.878 29.1373C29.6458 29.9674 28.871 31.6831 29.6458 34.1551C30.107 35.5756 30.1993 38.3429 29.8487 39.8187C29.3691 41.8849 28.7788 42.8811 27.5796 43.7297C26.9893 44.1356 26.0853 44.8735 25.5319 45.3716L24.5726 46.2755L21.3811 46.2386C19.4994 46.2202 18.0051 46.2755 17.7099 46.3862L17.1934 46.5892V55.3151C17.1934 61.8642 17.2487 64.0964 17.4147 64.2624C17.5623 64.41 18.6139 64.4838 20.9568 64.4838C23.6686 64.4838 24.3143 64.4284 24.5726 64.2071C24.8493 63.9488 24.9784 63.9488 25.7164 64.2809C26.6388 64.6683 28.7234 65.1479 30.3284 65.314C31.7673 65.48 34.6268 65.1295 38.2242 64.3547C40.8622 63.8012 41.8031 63.6905 45.3267 63.5245C48.9425 63.3769 49.4775 63.3031 50.197 62.9526C51.7651 62.1593 52.3554 60.0563 51.433 58.4697C51.0271 57.7318 51.0271 57.7133 51.3408 57.3075C52.1709 56.2928 52.2078 54.5034 51.433 53.3596L51.0087 52.7508L51.433 52.2527C51.8942 51.6993 52.1525 50.4264 51.968 49.5593C51.9126 49.2457 51.6544 48.7107 51.4145 48.3602C51.0271 47.7883 51.0087 47.696 51.267 47.4747C52.134 46.7552 52.3369 44.3754 51.6359 43.2316C51.1563 42.4383 50.529 41.9218 49.6804 41.6451C49.2746 41.4975 47.3929 41.4237 44.2198 41.4237H39.368L39.4602 40.2615C39.6447 37.937 38.999 33.5648 38.1873 31.6278C37.8183 30.7791 36.8221 29.783 35.8997 29.3402C34.9589 28.879 32.8558 28.7868 31.878 29.1373ZM35.0142 31.1112C35.457 31.3141 35.9735 31.7569 36.1764 32.0705C37.1357 33.6202 37.6892 37.4574 37.4494 40.8887C37.2649 43.7297 36.8037 43.5268 43.2052 43.3792C46.5812 43.2869 48.6473 43.3054 48.961 43.4345C50.2708 43.9326 50.6213 45.2793 49.6804 46.2386L49.1454 46.7736H45.9908C43.076 46.7736 42.7993 46.8105 42.4672 47.1426C42.2643 47.3455 42.0983 47.6407 42.0983 47.7883C42.0983 47.9359 42.2643 48.231 42.4672 48.434C42.7993 48.766 43.076 48.8029 46.0277 48.8029C49.1085 48.8029 49.2377 48.8214 49.6251 49.2088C50.2708 49.9098 50.3077 50.5001 49.7542 51.1643L49.2561 51.7546H46.7287C44.7548 51.7546 44.1276 51.81 43.7955 52.0498C43.3158 52.3818 43.2789 52.9722 43.7032 53.4518C43.9615 53.747 44.312 53.7839 46.5627 53.7839C49.0347 53.7839 49.1454 53.8024 49.5697 54.2451C50.197 54.8539 50.197 55.7763 49.5513 56.3851C49.1085 56.7909 48.9056 56.8278 46.4705 56.9201L43.8508 57.0123L43.6848 57.5104C43.5372 57.9163 43.5741 58.1008 43.8508 58.3959C44.146 58.728 44.4043 58.7649 46.6549 58.7649C49.0347 58.7649 49.1454 58.7833 49.5697 59.2261C49.828 59.4659 50.0309 59.798 50.0309 59.9456C50.0309 60.3883 49.6435 61.1262 49.3115 61.2738C49.1454 61.3476 47.153 61.5136 44.8655 61.6428C41.305 61.8273 40.2535 61.9749 37.5785 62.5467C32.1732 63.7274 28.8894 63.6352 25.7533 62.1962L24.7571 61.735V55.8132V49.8729L25.2367 48.9136C25.8086 47.7514 26.8048 46.7183 28.6496 45.3531C30.3099 44.1356 30.6605 43.6375 31.3246 41.7004C31.9887 39.7449 32.1363 36.4981 31.6751 34.4134C31.1401 32.0152 31.1401 32.0336 31.6013 31.5355C32.3946 30.6869 33.7966 30.5209 35.0142 31.1112ZM22.9123 55.4442V62.639H20.9752H19.0382V55.4442V48.2495H20.9752H22.9123V55.4442Z" fill="#03A39E"/>
</svg>
