<svg width="57" height="47" viewBox="0 0 57 47" fill="none" xmlns="http://www.w3.org/2000/svg">
<path d="M54.916 45.3332C54.916 40.2534 50.0463 35.9319 43.2494 34.3304M37.416 45.3334C37.416 38.8901 29.581 33.6667 19.916 33.6667C10.251 33.6667 2.41602 38.8901 2.41602 45.3334M37.416 24.9167C43.8593 24.9167 49.0827 19.6934 49.0827 13.25C49.0827 6.80672 43.8593 1.58337 37.416 1.58337M19.916 24.9167C13.4727 24.9167 8.24935 19.6934 8.24935 13.25C8.24935 6.80672 13.4727 1.58337 19.916 1.58337C26.3593 1.58337 31.5827 6.80672 31.5827 13.25C31.5827 19.6934 26.3593 24.9167 19.916 24.9167Z" stroke="#03A39E" stroke-width="3.11111" stroke-linecap="round" stroke-linejoin="round"/>
</svg>
