<svg width="47" height="56" viewBox="0 0 47 56" fill="none" xmlns="http://www.w3.org/2000/svg">
<path d="M17.4988 39.6667H2.91545V54.25M29.1654 16.3333H43.7488V1.75M1.69922 19.2599C3.33455 15.2123 6.07256 11.7047 9.60205 9.13566C13.1315 6.56663 17.3146 5.0386 21.6689 4.72648C26.0232 4.41436 30.3751 5.32992 34.2349 7.36929C38.0947 9.40865 41.3024 12.4907 43.4983 16.2637M44.9666 36.7415C43.3313 40.789 40.5933 44.2967 37.0638 46.8657C33.5343 49.4348 29.3555 50.9608 25.0012 51.273C20.6469 51.5851 16.2915 50.6697 12.4316 48.6303C8.57182 46.5909 5.36201 43.5094 3.1661 39.7365" stroke="#03A39E" stroke-width="3.11111" stroke-linecap="round" stroke-linejoin="round"/>
</svg>
