<svg width="62" height="58" viewBox="0 0 62 58" fill="none" xmlns="http://www.w3.org/2000/svg">
<path d="M7.22391 0.329315C6.4771 0.473858 5.32075 1.13635 4.82689 1.69044C4.58599 1.96748 4.26076 2.48543 4.08008 2.84679C3.77895 3.48519 3.7669 3.5936 3.73077 6.12312L3.69463 8.749H2.4901C1.21329 8.749 0.695344 8.90559 0.454438 9.33922C0.382166 9.49581 0.333984 11.2062 0.333984 14.0369V18.4937L0.623072 18.8309C0.91216 19.1562 0.948296 19.1682 2.30942 19.2043L3.70668 19.2525V26.2268V33.201H2.34555C1.00852 33.201 0.972387 33.2131 0.659208 33.5383L0.333984 33.8756V38.4046V42.9336L0.70739 43.2468C1.0567 43.5359 1.15307 43.56 2.38169 43.56H3.69463L3.73077 46.2341C3.77895 49.3177 3.85122 49.5827 4.87507 50.6788C5.53757 51.3895 6.18801 51.799 6.99505 52.0038L7.56118 52.1363V54.7019C7.56118 57.2314 7.56118 57.2555 7.85027 57.5687C8.00686 57.7374 8.32004 57.906 8.53685 57.9542C8.76571 57.9903 11.3795 58.0144 14.3427 57.9903L19.7511 57.9542L20.1004 57.5567L20.4497 57.1712V54.6417V52.1122H32.8443H45.251L45.2871 54.7019L45.3233 57.2917L45.6606 57.6169L45.9858 57.9542L51.623 57.9903C57.0313 58.0144 57.2602 58.0023 57.6336 57.7855C58.1756 57.4483 58.272 56.9664 58.272 54.3767V52.1242L58.9104 51.9435C59.7415 51.7026 60.8015 50.9317 61.2593 50.2331C62.0663 49.0286 62.0061 50.8715 61.982 25.9738L61.9458 3.38883L61.6206 2.76247C61.187 1.94339 60.6931 1.3893 59.9824 0.93158C58.7538 0.148632 60.5486 0.196815 32.8564 0.208862C19.0404 0.220905 7.513 0.269089 7.22391 0.329315ZM58.3925 2.99133C59.0429 3.3286 59.3561 3.73814 59.4886 4.42472C59.6452 5.23176 59.6211 47.27 59.4645 47.9806C59.32 48.6431 59.0911 48.9804 58.5009 49.3297L58.0913 49.5827H32.8443H7.59732L7.18778 49.3056C6.97096 49.1611 6.65778 48.8479 6.51324 48.6311C6.24824 48.2456 6.2362 48.1131 6.2362 45.8968V43.56H8.10322H9.97025V44.2225C9.97025 45.0175 10.1871 45.4993 10.6327 45.7041C10.8736 45.8125 16.1254 45.8486 32.8684 45.8486C56.5254 45.8486 55.2848 45.8847 55.622 45.2584C55.7064 45.1018 55.7425 38.8623 55.7425 26.1545V7.27947L55.3932 6.93015L55.0439 6.58084H32.8684H10.705L10.3798 6.86993C10.0907 7.11083 10.0425 7.25538 9.99434 7.95401L9.94616 8.749H8.07913H6.22415L6.26029 6.36403C6.29642 3.65382 6.35665 3.47314 7.34437 2.97929L7.86231 2.72633H32.8564H57.8625L58.3925 2.99133ZM53.213 26.2147V43.3191H32.8564H12.4998V26.2147V9.11036H32.8564H53.213V26.2147ZM9.97025 13.9887V16.6989H6.35665H2.74305V13.9887V11.2785H6.35665H9.97025V13.9887ZM9.97025 26.2147V33.201H8.10322H6.2362V26.2147V19.2284H8.10322H9.97025V26.2147ZM9.97025 38.3805V41.0305H6.35665H2.74305V38.3805V35.7305H6.35665H9.97025V38.3805ZM17.9202 53.7985V55.4849H14.0054H10.0907V53.7985V52.1122H14.0054H17.9202V53.7985ZM55.7425 53.7985V55.4849H51.7675H47.7926V53.7985V52.1122H51.7675H55.7425V53.7985Z" fill="#03A39E"/>
</svg>
