<svg width="22" height="23" viewBox="0 0 22 23" fill="none" xmlns="http://www.w3.org/2000/svg">
<g clip-path="url(#clip0_577_7596)">
<path d="M9.16797 7.83334V6.00001C9.16797 5.51377 9.36112 5.04746 9.70494 4.70364C10.0488 4.35983 10.5151 4.16667 11.0013 4.16667H17.418C17.9042 4.16667 18.3705 4.35983 18.7143 4.70364C19.0581 5.04746 19.2513 5.51377 19.2513 6.00001V17C19.2513 17.4862 19.0581 17.9526 18.7143 18.2964C18.3705 18.6402 17.9042 18.8333 17.418 18.8333H11.0013C10.5151 18.8333 10.0488 18.6402 9.70494 18.2964C9.36112 17.9526 9.16797 17.4862 9.16797 17V15.1667" stroke="#94979C" style="stroke:#94979C;stroke:color(display-p3 0.5804 0.5922 0.6118);stroke-opacity:1;" stroke-width="2" stroke-linecap="round" stroke-linejoin="round"/>
<path d="M13.75 11.5H2.75L5.5 8.75" stroke="#94979C" style="stroke:#94979C;stroke:color(display-p3 0.5804 0.5922 0.6118);stroke-opacity:1;" stroke-width="2" stroke-linecap="round" stroke-linejoin="round"/>
<path d="M5.5 14.25L2.75 11.5" stroke="#94979C" style="stroke:#94979C;stroke:color(display-p3 0.5804 0.5922 0.6118);stroke-opacity:1;" stroke-width="2" stroke-linecap="round" stroke-linejoin="round"/>
</g>
<defs>
<clipPath id="clip0_577_7596">
<rect width="22" height="22" fill="white" style="fill:white;fill-opacity:1;" transform="translate(0 0.5)"/>
</clipPath>
</defs>
</svg>
