<svg width="18" height="21" viewBox="0 0 18 21" fill="none" xmlns="http://www.w3.org/2000/svg">
<path d="M9 20.7188C10.1741 20.7188 11.125 19.7678 11.125 18.5938H6.875C6.875 19.7678 7.82594 20.7188 9 20.7188ZM15.375 14.3438V9.03125C15.375 5.76406 13.6378 3.03875 10.5938 2.31625V1.59375C10.5938 0.711875 9.88188 0 9 0C8.11812 0 7.40625 0.711875 7.40625 1.59375V2.31625C4.36219 3.03875 2.625 5.76406 2.625 9.03125V14.3438L0.5 16.4688V17.5312H17.5V16.4688L15.375 14.3438ZM13.25 15.4062H4.75V9.03125C4.75 6.39094 6.35969 4.25 9 4.25C11.6403 4.25 13.25 6.39094 13.25 9.03125V15.4062Z" fill="#03A39E"/>
</svg>
