<svg width="519" height="413" viewBox="0 0 519 413" fill="none" xmlns="http://www.w3.org/2000/svg">
<path d="M19.2374 176.867L22.6792 181.325L24.0755 180.241L20.643 175.819L22.6757 174.241L26.1106 178.666C26.1217 178.659 26.1346 178.65 26.1494 178.64C26.195 178.61 26.2582 178.569 26.3371 178.52C26.4947 178.423 26.7176 178.293 26.9938 178.153C27.541 177.874 28.3236 177.542 29.2401 177.348C31.1158 176.953 33.6098 177.151 35.6114 179.557C36.7032 180.852 37.2946 182.496 37.2779 184.191C37.274 184.584 37.2378 184.973 37.1702 185.355C37.1833 185.353 37.1963 185.35 37.2094 185.348C38.1757 185.19 39.1643 185.226 40.1164 185.454C41.0684 185.682 41.9653 186.097 42.7549 186.676C43.5335 187.246 44.1921 187.965 44.6935 188.789C45.6877 190.245 46.1112 191.655 46.1112 192.973C46.1113 194.29 45.689 195.415 45.1584 196.305C44.6311 197.189 43.9827 197.865 43.4783 198.316C43.2237 198.544 42.9983 198.72 42.8331 198.842C42.7504 198.903 42.6817 198.951 42.6313 198.985C42.6191 198.993 42.6078 199.002 42.5977 199.008L42.1634 199.346L45.6067 203.781L43.574 205.359L40.1307 200.923L38.7437 202L42.1665 206.433L40.1288 208.006L36.7103 203.579L30.8545 208.124L29.276 206.091L32.6208 203.494L19.722 186.878L14.8398 190.668L13.2618 188.636L20.6466 182.903L17.2005 178.44L19.2374 176.867ZM28.6688 194.207L34.6535 201.917L41.1079 196.906L41.1562 196.876L41.1837 196.857C41.2091 196.84 41.2512 196.811 41.3059 196.771C41.4161 196.69 41.5768 196.564 41.7628 196.398C42.1401 196.061 42.5935 195.58 42.9478 194.986C43.2988 194.397 43.5374 193.724 43.5375 192.973C43.5374 192.231 43.306 191.311 42.5525 190.217L42.5295 190.184L42.5088 190.149C42.1809 189.603 41.7473 189.128 41.2336 188.752C40.7201 188.375 40.1367 188.105 39.5173 187.956C38.8978 187.808 38.2547 187.785 37.6258 187.888C37.017 187.988 36.4327 188.204 35.9059 188.525L35.3397 188.964L35.3286 188.953L28.6688 194.207ZM27.0909 192.174L33.698 186.963C34.3384 186.172 34.6943 185.187 34.7045 184.166C34.7151 183.086 34.3377 182.037 33.6414 181.212L33.636 181.205C32.4078 179.727 30.9953 179.609 29.772 179.867C29.1387 180 28.5727 180.237 28.1594 180.447C27.9555 180.551 27.7949 180.644 27.6892 180.71C27.6365 180.742 27.5979 180.768 27.5748 180.783L27.5681 180.788L21.7547 185.3L27.0909 192.174Z" fill="#FAFAFA" style="fill:#FAFAFA;fill:color(display-p3 0.9804 0.9804 0.9804);fill-opacity:1;"/>
<path d="M121.599 132.833L119.938 146.018L106.844 144.354L107.168 141.801L117.707 143.14L119.045 132.511L121.599 132.833ZM113.473 127.412L112.363 136.222L103.572 135.114L104.681 126.305L113.473 127.412ZM97.4556 134.08L96.6485 140.489L102.854 141.27L102.533 143.823L93.7742 142.72L94.9029 133.759L97.4556 134.08ZM123.24 119.801L122.117 128.601L119.564 128.274L120.36 122.036L114.095 121.257L114.412 118.703L123.24 119.801ZM106.447 132.883L110.132 133.347L110.598 129.644L106.913 129.18L106.447 132.883ZM110.144 118.165L109.82 120.718L99.3075 119.382L97.9746 129.96L95.4218 129.638L97.076 116.505L110.144 118.165Z" fill="#FAFAFA" style="fill:#FAFAFA;fill:color(display-p3 0.9804 0.9804 0.9804);fill-opacity:1;"/>
<path d="M194.637 66.7842C194.919 66.247 195.536 65.9771 196.121 66.1367C196.706 66.2963 197.102 66.8421 197.071 67.4478L196.247 83.855C196.246 83.8663 196.244 83.8774 196.243 83.8886C196.242 83.9041 196.241 83.9194 196.24 83.9348C196.234 83.9852 196.225 84.0346 196.214 84.0833C196.21 84.0991 196.207 84.1149 196.203 84.1306C196.191 84.1747 196.174 84.2171 196.158 84.2593C196.138 84.3104 196.116 84.3611 196.089 84.41C196.085 84.4172 196.082 84.4244 196.078 84.4315C196.07 84.4448 196.063 84.4586 196.055 84.4717C196.033 84.5059 196.01 84.538 195.986 84.5696C195.979 84.5781 195.973 84.5865 195.966 84.5949C195.945 84.6214 195.921 84.6453 195.898 84.6699C195.873 84.697 195.848 84.7242 195.82 84.7491C195.798 84.769 195.774 84.7869 195.751 84.8052C195.716 84.832 195.682 84.8589 195.645 84.8823C195.642 84.8842 195.639 84.8862 195.636 84.8881C195.584 84.9205 195.529 84.949 195.471 84.9739C195.47 84.9747 195.468 84.9759 195.466 84.9767C195.427 84.9936 195.386 85.0088 195.344 85.0219C195.203 85.0663 195.057 85.0833 194.915 85.0785C194.869 85.0769 194.824 85.074 194.779 85.0676C194.763 85.0654 194.748 85.0624 194.732 85.0596C194.722 85.0578 194.711 85.0564 194.701 85.0543L178.615 81.7741C178.021 81.6528 177.591 81.1349 177.581 80.5289C177.572 79.9229 177.985 79.3914 178.575 79.2517L189.456 76.6752L194.637 66.7842ZM191.808 81.8288L189.813 79.2452L184.875 80.4141L191.808 81.8288ZM191.855 77.6609L193.842 80.2329L194.196 73.1917L191.855 77.6609ZM175.243 58.1827C175.246 58.1803 175.25 58.178 175.253 58.1757C175.342 58.1164 175.438 58.067 175.542 58.0304C175.624 58.0015 175.708 57.9818 175.792 57.97C175.799 57.969 175.806 57.9685 175.813 57.9677C175.996 57.945 176.179 57.9627 176.352 58.0162L193.603 62.7063C193.986 62.8105 194.301 63.0858 194.455 63.4519C194.609 63.8177 194.586 64.2338 194.393 64.5806L188.756 74.701C188.677 74.88 188.558 75.0351 188.411 75.1593C188.395 75.1732 188.379 75.1867 188.362 75.1998C188.346 75.2126 188.329 75.2251 188.311 75.2371C188.155 75.3482 187.976 75.4252 187.783 75.4581L176.593 78.398C176.21 78.4988 175.801 78.4179 175.484 78.1783C175.168 77.9386 174.98 77.5668 174.974 77.1702L174.68 59.3117C174.675 59.1984 174.684 59.0845 174.709 58.9729C174.711 58.9647 174.713 58.9567 174.715 58.9486C174.728 58.8913 174.746 58.8346 174.767 58.7791C174.77 58.7726 174.773 58.7665 174.776 58.76C174.798 58.7069 174.822 58.6544 174.851 58.6039C174.86 58.5885 174.87 58.5736 174.879 58.5587C174.885 58.5502 174.89 58.5419 174.896 58.5336L174.911 58.5105C174.918 58.5005 174.926 58.491 174.933 58.4812C174.944 58.466 174.955 58.4507 174.967 58.4361C174.973 58.4289 174.979 58.4218 174.985 58.4147C175 58.397 175.015 58.3796 175.031 58.3628C175.039 58.3544 175.048 58.3469 175.056 58.3387C175.073 58.3219 175.089 58.3052 175.107 58.2894C175.11 58.2866 175.113 58.2837 175.116 58.2809C175.134 58.2651 175.152 58.2495 175.171 58.2348L175.185 58.2235C175.204 58.2092 175.223 58.1959 175.243 58.1827ZM187.396 71.8368L191.334 64.766L179.365 61.5109L187.396 71.8368ZM177.529 75.482L185.342 73.428L177.326 63.1019L177.529 75.482Z" fill="#FAFAFA" style="fill:#FAFAFA;fill:color(display-p3 0.9804 0.9804 0.9804);fill-opacity:1;"/>
<path d="M264.117 -8.44141C264.681 -8.87869 265.492 -8.77587 265.929 -8.21249C266.367 -7.64911 266.265 -6.83836 265.701 -6.40103L255.927 1.18615L261.482 8.341C263.699 6.6851 265.81 5.31872 267.523 4.40674C268.501 3.88581 269.404 3.48223 270.15 3.27331C270.517 3.17056 270.924 3.0929 271.319 3.10875C271.7 3.12401 272.304 3.24069 272.724 3.78122C273.144 4.32193 273.107 4.9369 273.028 5.30959C272.945 5.69664 272.768 6.07076 272.578 6.40061C272.191 7.07157 271.576 7.84729 270.829 8.66571C269.521 10.0984 267.672 11.8039 265.518 13.5411L271.866 21.7181C272.303 22.2815 272.201 23.0935 271.638 23.5309C271.074 23.9682 270.263 23.8654 269.826 23.302L263.478 15.125C261.262 16.7802 259.151 18.1479 257.44 19.0596C256.462 19.5804 255.558 19.9827 254.812 20.1917C254.445 20.2944 254.039 20.3734 253.643 20.3576C253.262 20.3423 252.658 20.2244 252.238 19.6838C251.819 19.1433 251.855 18.5294 251.935 18.1568C252.017 17.7695 252.194 17.3943 252.385 17.0644C252.772 16.3936 253.386 15.6188 254.133 14.8006C255.441 13.3683 257.288 11.6616 259.441 9.92491L253.887 2.77006L244.131 10.3435C243.568 10.7806 242.757 10.6785 242.32 10.1153C241.882 9.55195 241.984 8.74047 242.547 8.30307L264.117 -8.44141ZM261.026 11.9661C258.965 13.631 257.233 15.2361 256.041 16.5415C255.848 16.7534 255.671 16.9539 255.512 17.1423C255.734 17.0353 255.973 16.9148 256.226 16.7798C257.786 15.9489 259.77 14.6685 261.894 13.0846L261.026 11.9661ZM263.934 11.5007C265.997 9.83512 267.73 8.23004 268.922 6.92428C269.115 6.71243 269.291 6.51152 269.449 6.32325C269.228 6.43022 268.99 6.55111 268.737 6.68592C267.176 7.51706 265.191 8.79749 263.066 10.3822L263.934 11.5007Z" fill="#FAFAFA" style="fill:#FAFAFA;fill:color(display-p3 0.9804 0.9804 0.9804);fill-opacity:1;"/>
<path d="M63.399 234.478C63.8712 233.407 65.0868 232.973 66.1973 232.801C67.3794 232.618 68.8755 232.657 70.547 232.863C71.7271 233.009 73.0267 233.244 74.4132 233.56C74.4287 232.223 74.5095 230.985 74.6532 229.88C74.8551 228.328 75.1869 226.975 75.6732 225.959C76.1301 225.005 76.8868 224.022 78.1238 223.865C79.3607 223.709 80.3735 224.469 81.0894 225.274C81.8514 226.132 82.5632 227.352 83.2062 228.797C83.6614 229.82 84.0918 230.985 84.4912 232.26C85.7326 231.612 86.9148 231.065 88.0072 230.631C88.2423 230.538 88.4748 230.45 88.7039 230.366C88.8154 229.994 89.0509 229.65 89.4052 229.395C90.1956 228.826 91.2984 228.893 92.0059 229.508C92.0639 229.501 92.1215 229.492 92.1784 229.486C93.2977 229.375 94.5942 229.49 95.3597 230.404C96.1253 231.318 95.9237 232.512 95.5299 233.49C95.1108 234.531 94.3274 235.713 93.3002 236.953C92.5691 237.835 91.6926 238.769 90.6957 239.734C91.9118 240.403 93.0064 241.074 93.9511 241.731C95.3 242.669 96.3977 243.613 97.1032 244.511C97.7659 245.355 98.3066 246.454 97.8344 247.525C97.3621 248.597 96.146 249.03 95.0355 249.202C93.8533 249.385 92.3572 249.346 90.6858 249.139C89.5174 248.995 88.2318 248.764 86.8608 248.453C86.8422 249.748 86.7646 250.948 86.6248 252.024C86.423 253.576 86.0904 254.928 85.6042 255.944C85.1473 256.898 84.3906 257.881 83.1536 258.038C81.9169 258.194 80.9045 257.435 80.1886 256.629C79.8094 256.202 79.4411 255.686 79.0892 255.097C78.5617 255.038 78.0588 254.791 77.7072 254.371C77.1379 253.691 77.1411 252.767 77.649 252.098C77.3556 251.359 77.0739 250.562 76.807 249.715C75.5788 250.355 74.4097 250.897 73.328 251.327C71.7779 251.942 70.3479 252.353 69.1561 252.471C68.0367 252.582 66.7403 252.467 65.9748 251.553C65.2094 250.639 65.4115 249.446 65.8052 248.468C66.2244 247.427 67.0077 246.245 68.0349 245.005C68.7497 244.143 69.6024 243.23 70.5716 242.288C69.7863 241.857 69.051 241.425 68.3743 240.996C67.5196 241.313 66.5093 241.086 65.9166 240.378C65.5493 239.939 65.4144 239.402 65.494 238.893C64.95 238.418 64.4888 237.949 64.1296 237.492C63.467 236.648 62.9272 235.55 63.399 234.478ZM89.0496 241.254C88.2948 241.921 87.4893 242.594 86.6405 243.267C86.7385 244.311 86.8033 245.326 86.8374 246.302C88.3482 246.663 89.7458 246.923 90.9826 247.076C92.5511 247.269 93.7966 247.283 94.665 247.148C95.6052 247.003 95.7504 246.748 95.7552 246.737C95.7614 246.722 95.8437 246.445 95.2876 245.737C94.7692 245.077 93.8698 244.278 92.604 243.398C91.6033 242.702 90.4052 241.979 89.0496 241.254ZM78.805 248.617C79.0985 249.594 79.41 250.501 79.7349 251.324C80.2063 251.41 80.6477 251.646 80.9654 252.026C81.5005 252.665 81.5282 253.517 81.1083 254.173C81.3868 254.631 81.6591 255.01 81.9214 255.305C82.5274 255.987 82.8378 255.976 82.8504 255.975C82.8661 255.973 83.1669 255.902 83.5516 255.099C83.9089 254.353 84.2055 253.231 84.3949 251.774C84.5431 250.634 84.619 249.327 84.62 247.893C83.6111 247.619 82.5695 247.307 81.5062 246.959C80.5922 247.553 79.6884 248.106 78.805 248.617ZM83.7194 245.456C84.0039 245.541 84.2858 245.625 84.565 245.704C84.5517 245.433 84.5359 245.159 84.5176 244.882C84.3975 244.97 84.2779 245.059 84.1565 245.146C84.0111 245.251 83.8647 245.353 83.7194 245.456ZM76.9946 239.616C77.0616 240.197 77.1386 240.787 77.2265 241.384C77.3199 242.019 77.4229 242.643 77.5337 243.254C78.1137 243.492 78.7073 243.728 79.3132 243.957C79.9353 244.193 80.5528 244.416 81.1623 244.627C81.698 244.265 82.2386 243.891 82.7796 243.501C83.2977 243.129 83.8017 242.753 84.2922 242.378C84.2228 241.768 84.144 241.148 84.0515 240.52C83.9645 239.929 83.8673 239.347 83.7651 238.777C83.1641 238.529 82.5486 238.284 81.9195 238.046C81.3049 237.813 80.6949 237.593 80.0925 237.383C79.5829 237.729 79.0699 238.086 78.5556 238.457C78.0205 238.842 77.5001 239.229 76.9946 239.616ZM86.2767 240.238C86.3012 240.405 86.3229 240.572 86.3459 240.738C86.5594 240.56 86.7688 240.381 86.9748 240.204C86.7255 240.084 86.4722 239.965 86.2153 239.847C86.2353 239.977 86.2574 240.107 86.2767 240.238ZM85.0878 234.343C85.337 235.298 85.5661 236.3 85.7727 237.337C86.7836 237.774 87.7523 238.223 88.6704 238.678C89.7856 237.626 90.7461 236.616 91.5189 235.684C92.483 234.52 93.1178 233.527 93.4258 232.762C93.7591 231.934 93.5934 231.69 93.5856 231.681C93.5753 231.67 93.3715 231.477 92.4995 231.551C92.3717 231.85 92.1615 232.124 91.8675 232.336C91.1316 232.866 90.1248 232.844 89.4182 232.342C89.2464 232.406 89.0707 232.474 88.8909 232.545C87.7338 233.004 86.4513 233.61 85.0878 234.343ZM78.0414 245.722C78.1014 245.982 78.162 246.24 78.2247 246.493C78.461 246.353 78.6989 246.209 78.9382 246.062C78.7805 246.003 78.6217 245.945 78.4635 245.885C78.322 245.832 78.1817 245.776 78.0414 245.722ZM72.5957 243.343C71.5093 244.372 70.5728 245.36 69.8156 246.274C68.8515 247.437 68.2174 248.431 67.9094 249.196C67.5783 250.019 67.7392 250.264 67.749 250.276C67.7568 250.286 67.9697 250.494 68.9172 250.4C69.7928 250.313 70.9893 249.99 72.4443 249.413C73.5904 248.958 74.8595 248.359 76.2087 247.636C75.9624 246.697 75.7346 245.714 75.5293 244.696C74.5057 244.255 73.5248 243.802 72.5957 243.343ZM79.2301 239.268C80.2343 238.545 81.6804 238.714 82.46 239.645C83.2396 240.576 83.0572 241.917 82.0529 242.64C81.0487 243.363 79.6032 243.194 78.8237 242.263C78.0441 241.332 78.2258 239.991 79.2301 239.268ZM82.7693 236.118C82.9353 236.181 83.0999 236.246 83.2643 236.31C83.2011 236.032 83.1364 235.758 83.07 235.487C82.8187 235.637 82.5657 235.791 82.3111 235.948C82.4634 236.005 82.6166 236.06 82.7693 236.118ZM74.9428 241.257C74.7205 241.443 74.5022 241.629 74.2881 241.814C74.5482 241.938 74.8122 242.063 75.0805 242.187C75.0535 242.013 75.0265 241.84 75.0008 241.665C74.9807 241.529 74.9618 241.393 74.9428 241.257ZM78.4276 225.929C78.415 225.93 78.1132 225.997 77.7264 226.804C77.3692 227.55 77.0719 228.672 76.8825 230.129C76.7305 231.298 76.6535 232.644 76.6566 234.122C77.6584 234.395 78.6921 234.706 79.7473 235.052C80.6768 234.446 81.5959 233.881 82.4944 233.36C82.0721 231.945 81.6116 230.674 81.1296 229.591C80.5261 228.235 79.9159 227.228 79.356 226.598C78.753 225.919 78.4431 225.927 78.4276 225.929ZM66.5677 234.855C65.6382 234.999 65.4863 235.249 65.4783 235.265C65.4735 235.276 65.3841 235.552 65.9452 236.266C66.1935 236.582 66.5294 236.93 66.9511 237.304C67.7723 237.063 68.703 237.303 69.262 237.97C69.5951 238.368 69.7343 238.847 69.6985 239.313C70.4573 239.792 71.2994 240.279 72.213 240.767C72.974 240.092 73.7869 239.41 74.6447 238.728C74.5457 237.692 74.4786 236.684 74.4425 235.714C72.9137 235.347 71.5004 235.082 70.2507 234.928C68.682 234.734 67.4363 234.72 66.5677 234.855ZM76.7174 236.313C76.731 236.577 76.746 236.843 76.7643 237.113C76.9015 237.012 77.0391 236.911 77.1781 236.811C77.2982 236.725 77.4189 236.64 77.5389 236.554C77.2627 236.471 76.9887 236.391 76.7174 236.313Z" fill="#FAFAFA" style="fill:#FAFAFA;fill:color(display-p3 0.9804 0.9804 0.9804);fill-opacity:1;"/>
<path d="M153.748 170.844L159.554 166.664L161.138 168.556L155.331 172.735C154.247 173.515 153.541 174.662 153.369 175.922C153.197 177.182 153.572 178.454 154.411 179.456L157.608 183.273L162.282 179.909L163.865 181.8L159.188 185.167L162.815 189.497C163.491 190.304 163.988 191.226 164.28 192.211C164.571 193.196 164.65 194.225 164.512 195.239C164.374 196.252 164.023 197.23 163.477 198.118C162.932 199.005 162.202 199.785 161.332 200.411L161.318 200.42C159.554 201.655 157.34 202.202 155.147 201.943C152.955 201.685 150.957 200.642 149.582 199.038L149.576 199.029C148.899 198.224 148.4 197.304 148.108 196.32C147.816 195.336 147.736 194.309 147.873 193.296C148.011 192.284 148.363 191.306 148.909 190.42C149.455 189.534 150.184 188.757 151.054 188.133L155.642 184.831L152.371 180.923C151.111 179.419 150.549 177.511 150.808 175.621C151.066 173.731 152.124 172.012 153.748 170.844ZM157.217 186.438L157.072 186.543L157.224 186.725L152.635 190.028C152.033 190.459 151.529 190.996 151.152 191.608C150.775 192.22 150.531 192.896 150.436 193.595C150.341 194.295 150.396 195.005 150.598 195.685C150.799 196.361 151.14 196.994 151.604 197.548L150.594 198.293L151.612 197.557L151.793 197.756C152.738 198.753 154.046 199.4 155.473 199.568C156.991 199.747 158.525 199.37 159.748 198.519L160.541 199.465L159.762 198.509C160.358 198.078 160.858 197.542 161.233 196.932C161.611 196.318 161.854 195.64 161.949 194.939C162.044 194.238 161.99 193.526 161.788 192.845C161.587 192.163 161.242 191.524 160.775 190.966L157.224 186.725L157.369 186.62L157.217 186.438L158.961 185.184L157.57 183.524L155.827 184.78L157.217 186.438Z" fill="#FAFAFA" style="fill:#FAFAFA;fill:color(display-p3 0.9804 0.9804 0.9804);fill-opacity:1;"/>
<path d="M224.067 121.731C224.605 121.314 227.337 119.334 231.065 118.566C234.873 117.782 239.697 118.28 244.128 122.829C248.408 127.222 249.91 131.527 250.305 134.792C250.502 136.414 250.423 137.763 250.292 138.718C250.226 139.195 250.147 139.575 250.082 139.844C250.049 139.978 250.02 140.085 249.997 140.162C249.987 140.197 249.978 140.227 249.971 140.25C249.227 143.094 247.625 145.64 245.381 147.54L245.366 147.554L234.575 156.133L225.03 143.836L221.002 146.963L219.419 144.923L223.447 141.797L213.961 129.577L224.067 121.731ZM225.487 140.213L229.276 137.271L230.86 139.311L227.07 142.252L235.013 152.484L243.726 145.556C245.564 143.994 246.876 141.903 247.48 139.567L247.492 139.522L247.504 139.485C247.504 139.484 247.505 139.481 247.505 139.48C247.506 139.476 247.508 139.47 247.511 139.462C247.513 139.456 247.515 139.448 247.518 139.439C247.53 139.398 247.549 139.328 247.572 139.233C247.618 139.043 247.68 138.748 247.733 138.365C247.839 137.597 247.907 136.473 247.741 135.102C247.411 132.379 246.149 128.604 242.278 124.631C238.56 120.815 234.679 120.46 231.586 121.096C228.413 121.75 226.048 123.464 225.651 123.772L217.585 130.033L225.487 140.213Z" fill="#FAFAFA" style="fill:#FAFAFA;fill:color(display-p3 0.9804 0.9804 0.9804);fill-opacity:1;"/>
<path fill-rule="evenodd" clip-rule="evenodd" d="M299.785 44.4632C299.96 44.0336 300.351 43.7303 300.81 43.6684L317.97 41.356C318.426 41.2945 318.88 41.4804 319.162 41.844L329.804 55.5526C330.086 55.9162 330.154 56.4024 329.981 56.829L323.486 72.8795C323.312 73.3091 322.921 73.6127 322.462 73.6748L305.287 75.9986C304.831 76.0603 304.376 75.8744 304.094 75.5107L293.452 61.802C293.17 61.4383 293.103 60.9517 293.276 60.525L299.785 44.4632ZM295.949 60.8058L305.678 73.3392L321.373 71.2157L327.308 56.5492L317.578 44.015L301.898 46.1281L295.949 60.8058Z" fill="#FAFAFA" style="fill:#FAFAFA;fill:color(display-p3 0.9804 0.9804 0.9804);fill-opacity:1;"/>
<path d="M377.31 2.76865C377.847 2.35152 380.598 0.3595 384.334 -0.415417C387.996 -1.17486 392.59 -0.749046 396.841 3.32918L399.294 1.4243C399.858 0.987152 400.669 1.08918 401.106 1.65245C401.543 2.21579 401.442 3.02728 400.878 3.46468L398.607 5.22764C399.471 6.25138 400.195 7.26264 400.799 8.25006L403.166 6.41285C403.729 5.97552 404.54 6.0777 404.977 6.641C405.414 7.20442 405.313 8.01587 404.75 8.45324L402.03 10.5647C402.897 12.477 403.342 14.2515 403.539 15.7904C403.745 17.3991 403.678 18.7329 403.556 19.6775C403.496 20.1498 403.421 20.5258 403.359 20.7913C403.328 20.9241 403.3 21.03 403.278 21.1062C403.268 21.1424 403.259 21.1718 403.252 21.1947C402.511 24.0867 400.878 26.6728 398.584 28.585L398.574 28.5933L387.817 37.1808L380.269 27.4571L378.023 29.2003C377.46 29.6375 376.648 29.5347 376.211 28.9714C375.774 28.408 375.876 27.5973 376.439 27.1599L378.685 25.4167L376.397 22.4692L374.152 24.2117C373.589 24.6491 372.776 24.5468 372.339 23.9834C371.902 23.42 372.005 22.6087 372.568 22.1714L374.813 20.4288L367.198 10.6187L377.31 2.76865ZM382.309 25.8732L388.251 33.5279L396.941 26.592C398.82 25.022 400.155 22.899 400.757 20.5255L400.768 20.4823L400.779 20.4476C400.779 20.447 400.781 20.4447 400.781 20.4436L400.792 20.404C400.804 20.3636 400.822 20.2952 400.844 20.2017C400.888 20.0147 400.947 19.7255 400.996 19.3473C401.093 18.5901 401.151 17.4794 400.977 16.1183C400.831 14.9797 400.518 13.6542 399.921 12.2013L382.309 25.8732ZM378.437 20.8852L380.725 23.8328L398.744 9.84534C398.164 8.86643 397.448 7.85037 396.565 6.81274L378.437 20.8852ZM376.853 18.8449L394.776 4.93165C391.322 1.78156 387.754 1.51326 384.858 2.11373C381.675 2.77405 379.291 4.50097 378.894 4.80904L370.822 11.0752L376.853 18.8449Z" fill="#FAFAFA" style="fill:#FAFAFA;fill:color(display-p3 0.9804 0.9804 0.9804);fill-opacity:1;"/>
<path fill-rule="evenodd" clip-rule="evenodd" d="M115.466 288.869C115.741 288.46 116.225 288.243 116.713 288.31L123.933 289.296C124.333 289.351 124.684 289.589 124.882 289.94L128.425 296.206C128.776 296.827 128.557 297.615 127.936 297.966C127.315 298.317 126.527 298.098 126.176 297.477L122.949 291.769L117.161 290.978L111.892 298.815L114.998 307.803L120.869 308.618L137.356 291.676C137.641 291.383 138.048 291.242 138.453 291.296L145.692 292.268C146.173 292.332 146.577 292.661 146.738 293.118L150.396 303.491C150.532 303.877 150.477 304.305 150.248 304.644L144.156 313.663C143.882 314.069 143.4 314.285 142.914 314.22L135.709 313.253C135.308 313.199 134.955 312.96 134.756 312.607L131.259 306.4C130.909 305.778 131.129 304.991 131.75 304.64C132.372 304.29 133.159 304.51 133.509 305.132L136.691 310.779L142.464 311.553L147.744 303.737L144.565 294.722L138.754 293.943L122.264 310.888C121.978 311.183 121.568 311.323 121.161 311.267L113.858 310.252C113.376 310.185 112.973 309.854 112.815 309.395L109.241 299.05C109.109 298.667 109.164 298.244 109.39 297.907L115.466 288.869Z" fill="#FAFAFA" style="fill:#FAFAFA;fill:color(display-p3 0.9804 0.9804 0.9804);fill-opacity:1;"/>
<path d="M212.009 261.66C212.572 261.223 213.383 261.326 213.821 261.889L217.841 267.069C218.278 267.632 218.176 268.443 217.613 268.88L211.368 273.728C210.804 274.165 209.993 274.063 209.556 273.5L205.536 268.321C205.098 267.757 205.2 266.946 205.763 266.509L212.009 261.66ZM210.805 270.896L215.009 267.633L212.572 264.493L208.368 267.757L210.805 270.896ZM195.654 260.695C196.217 260.258 197.029 260.36 197.466 260.923L201.487 266.102C201.924 266.666 201.822 267.478 201.258 267.915L195.768 272.177C195.205 272.614 194.394 272.511 193.956 271.948L189.936 266.769C189.498 266.205 189.601 265.395 190.164 264.957L195.654 260.695ZM211.564 248.345C212.128 247.907 212.939 248.009 213.377 248.572L217.398 253.752C217.835 254.316 217.732 255.127 217.169 255.564L204.724 265.225C204.16 265.662 203.35 265.56 202.912 264.997L198.891 259.817C198.454 259.254 198.556 258.443 199.119 258.005L211.564 248.345ZM195.205 269.344L198.655 266.666L196.218 263.527L192.768 266.205L195.205 269.344ZM204.16 262.392L214.565 254.315L212.128 251.177L201.724 259.254L204.16 262.392ZM211.184 235.027C211.748 234.59 212.558 234.692 212.996 235.255L217.017 240.435C217.454 240.998 217.352 241.809 216.789 242.247L198.158 256.71C197.594 257.147 196.783 257.045 196.345 256.482L192.324 251.302C191.887 250.739 191.99 249.927 192.553 249.49L211.184 235.027ZM197.594 253.877L214.184 240.998L211.748 237.86L195.157 250.739L197.594 253.877Z" fill="#FAFAFA" style="fill:#FAFAFA;fill:color(display-p3 0.9804 0.9804 0.9804);fill-opacity:1;"/>
<path d="M291.428 172.51C291.68 171.915 292.392 171.608 293.045 171.813C293.698 172.018 294.062 172.664 293.871 173.278C293.466 174.585 293.221 175.929 293.141 177.286C293.288 178.292 293.706 179.37 294.282 180.566C294.57 181.164 294.888 181.771 295.218 182.405L295.243 182.452C295.58 183.096 295.929 183.767 296.255 184.447C297.547 187.145 298.619 190.291 297.172 193.64L297.168 193.651C296.241 195.738 295.06 197.422 293.374 198.914C291.706 200.39 289.59 201.638 286.857 202.913C286.22 203.21 285.443 202.972 285.122 202.381C284.802 201.79 285.059 201.07 285.697 200.773C288.319 199.551 290.183 198.428 291.591 197.182C292.98 195.952 293.969 194.561 294.776 192.744C295.808 190.349 295.129 187.998 293.894 185.419C293.588 184.78 293.257 184.144 292.919 183.495L292.887 183.435C292.561 182.812 292.228 182.175 291.924 181.543C291.641 180.957 291.373 180.355 291.148 179.742L279.845 206.501C279.585 207.117 278.835 207.421 278.171 207.18C277.507 206.939 277.18 206.243 277.44 205.628L291.428 172.51ZM274.595 178.357C276.343 176.963 278.452 176.05 280.904 175.089C281.561 174.831 282.318 175.116 282.596 175.725C282.874 176.334 282.567 177.037 281.91 177.294C279.459 178.255 277.691 179.047 276.281 180.173C274.906 181.269 273.797 182.746 272.843 185.188C271.935 187.515 272.665 189.832 273.916 192.368C274.217 192.976 274.538 193.58 274.865 194.194L274.893 194.248C275.226 194.875 275.565 195.514 275.873 196.148C276.114 196.643 276.343 197.15 276.543 197.665L287.87 171.137C288.133 170.523 288.884 170.221 289.547 170.464C290.21 170.707 290.534 171.404 290.272 172.019L276.124 205.151C275.867 205.753 275.139 206.057 274.482 205.835C273.825 205.614 273.477 204.949 273.697 204.333C274.172 203.002 274.474 201.625 274.594 200.229C274.469 199.298 274.077 198.281 273.518 197.131C273.231 196.541 272.911 195.939 272.576 195.307L272.541 195.242C272.219 194.636 271.884 194.005 271.568 193.365C270.273 190.742 269.135 187.651 270.414 184.373L270.414 184.372C271.484 181.635 272.812 179.779 274.595 178.357Z" fill="#FAFAFA" style="fill:#FAFAFA;fill:color(display-p3 0.9804 0.9804 0.9804);fill-opacity:1;"/>
<path fill-rule="evenodd" clip-rule="evenodd" d="M341.517 120.334C341.824 119.872 342.39 119.658 342.925 119.801L363.257 125.225L363.123 104.14C363.12 103.587 363.47 103.092 363.993 102.912C364.516 102.731 365.097 102.903 365.436 103.341L379.188 121.086L381.081 119.616C381.644 119.179 382.456 119.281 382.893 119.844C383.33 120.408 383.228 121.219 382.665 121.656L379.751 123.919C379.48 124.129 379.137 124.223 378.797 124.18C378.457 124.137 378.148 123.96 377.938 123.69L365.73 107.938L365.851 126.901C365.853 127.303 365.668 127.684 365.349 127.93C365.031 128.177 364.616 128.26 364.226 128.157L345.953 123.282L358.143 139.036C358.579 139.599 358.476 140.409 357.914 140.846L355.014 143.097C354.451 143.534 353.64 143.432 353.202 142.869C352.765 142.305 352.867 141.494 353.431 141.057L355.311 139.597L341.571 121.839C341.232 121.401 341.21 120.795 341.517 120.334Z" fill="#FAFAFA" style="fill:#FAFAFA;fill:color(display-p3 0.9804 0.9804 0.9804);fill-opacity:1;"/>
<path d="M431.979 73.0454C432.242 72.3825 432.993 72.0577 433.656 72.3203C434.319 72.5832 434.643 73.334 434.38 73.997L432.225 79.4355L439.843 89.2487L451.942 87.6907L456.437 76.368L448.806 66.5371L443.352 67.0905C442.642 67.1623 442.009 66.6458 441.937 65.9364C441.865 65.2268 442.382 64.5928 443.091 64.5208L449.257 63.8949C449.699 63.8501 450.134 64.0363 450.407 64.3878L458.93 75.3665C459.21 75.7276 459.278 76.2101 459.109 76.635L454.062 89.3504C453.889 89.7868 453.492 90.0955 453.027 90.1554L439.441 91.9047C438.987 91.9632 438.535 91.7771 438.255 91.4157L429.732 80.437C429.452 80.0761 429.383 79.5939 429.552 79.1691L431.979 73.0454ZM421.424 67.8045C421.597 67.3665 421.996 67.0579 422.463 66.9984L436.016 65.2743C436.47 65.2167 436.919 65.4022 437.199 65.7629L445.709 76.7255C445.99 77.0873 446.058 77.5706 445.888 77.9959L443.252 84.6008C442.987 85.2631 442.236 85.5858 441.573 85.3213C440.911 85.0569 440.588 84.3054 440.853 83.643L443.216 77.7254L435.611 67.9293L423.546 69.4636L419.083 80.7584L426.731 90.6101L432.304 90.3537C433.016 90.3209 433.62 90.8712 433.653 91.5836C433.686 92.2961 433.135 92.9005 432.422 92.9333L426.181 93.2212C425.762 93.2405 425.359 93.0548 425.101 92.7232L416.591 81.7607C416.311 81.4002 416.243 80.9186 416.41 80.4942L421.424 67.8045Z" fill="#FAFAFA" style="fill:#FAFAFA;fill:color(display-p3 0.9804 0.9804 0.9804);fill-opacity:1;"/>
<path d="M193.283 372.004C193.846 371.566 194.658 371.668 195.095 372.231C195.532 372.795 195.43 373.606 194.866 374.043L186.446 380.58L200.101 382.299C200.808 382.389 201.309 383.035 201.22 383.742C201.131 384.45 200.486 384.951 199.778 384.862L183.561 382.819L179.594 385.899L177.551 402.116C177.462 402.824 176.816 403.325 176.109 403.236C175.401 403.147 174.9 402.501 174.989 401.793L176.708 388.139L168.32 394.651C167.756 395.088 166.945 394.986 166.508 394.423C166.071 393.859 166.173 393.049 166.736 392.611L193.283 372.004ZM180.279 359.775C180.368 359.068 181.014 358.566 181.721 358.655C182.429 358.744 182.931 359.391 182.842 360.099L181.125 373.727L189.535 367.199C190.098 366.762 190.909 366.864 191.346 367.427C191.783 367.991 191.681 368.801 191.118 369.239L164.57 389.847C164.007 390.284 163.196 390.182 162.759 389.619C162.322 389.055 162.424 388.245 162.987 387.807L171.392 381.282L157.764 379.566C157.056 379.477 156.555 378.83 156.644 378.123C156.733 377.415 157.379 376.914 158.086 377.003L174.278 379.043L178.257 375.953C178.256 375.891 178.257 375.827 178.265 375.763L180.279 359.775Z" fill="#FAFAFA" style="fill:#FAFAFA;fill:color(display-p3 0.9804 0.9804 0.9804);fill-opacity:1;"/>
<path fill-rule="evenodd" clip-rule="evenodd" d="M244.015 290.639C244.181 290.093 244.685 289.721 245.255 289.723L246.173 289.727C251.064 289.382 253.45 288.582 257.045 287.377C258.226 286.98 259.538 286.54 261.113 286.058C261.654 285.893 262.24 286.099 262.559 286.567L270.65 298.458C270.652 298.46 270.653 298.462 270.654 298.463C271.892 300.25 272.743 302.275 273.148 304.403C273.646 306.669 273.385 309.026 272.398 311.101C272.383 311.132 272.367 311.162 272.351 311.191L267.701 319.269C267.529 319.568 267.245 319.785 266.912 319.873L257.829 322.273C257.796 322.282 257.763 322.289 257.729 322.296C255.42 322.713 253.027 322.334 250.932 321.229C249.058 320.298 247.384 318.997 246.013 317.406L236.588 306.7C236.223 306.284 236.162 305.683 236.438 305.203C237.484 303.382 238.389 301.967 239.2 300.699C240.989 297.903 242.321 295.821 243.698 291.678L244.015 290.639ZM246.206 292.31L246.164 292.446L246.155 292.477C244.671 296.945 243.116 299.38 241.242 302.313C240.585 303.341 239.889 304.431 239.143 305.692L247.966 315.715C249.117 317.052 250.523 318.144 252.094 318.922L252.125 318.938C253.706 319.776 255.5 320.062 257.221 319.762L265.731 317.514L270.086 309.948C270.808 308.405 271 306.645 270.622 304.942C270.619 304.929 270.617 304.916 270.614 304.902C270.278 303.124 269.567 301.428 268.528 299.93L268.521 299.921L260.961 288.811C259.881 289.152 258.912 289.478 258.002 289.783C254.304 291.024 251.579 291.939 246.306 292.307C246.274 292.309 246.243 292.31 246.211 292.31L246.206 292.31Z" fill="#FAFAFA" style="fill:#FAFAFA;fill:color(display-p3 0.9804 0.9804 0.9804);fill-opacity:1;"/>
<path d="M340.09 240.07C334.438 244.458 332.94 251.85 336.103 257.158L341.044 253.323L342.628 255.363L337.669 259.213C342.006 263.719 349.635 264.153 355.345 259.721L356.929 261.761C350.241 266.953 340.939 266.574 335.619 260.804L331.671 263.869C335.966 270.467 334.018 279.571 327.325 284.767L325.741 282.728C331.459 278.289 332.935 270.791 329.62 265.461L324.744 269.246L323.16 267.206L328.016 263.437C323.651 259.061 316.147 258.705 310.497 263.09L308.914 261.051C315.541 255.907 324.719 256.204 330.07 261.842L334.049 258.753C329.911 252.182 331.872 243.18 338.506 238.03L340.09 240.07Z" fill="#FAFAFA" style="fill:#FAFAFA;fill:color(display-p3 0.9804 0.9804 0.9804);fill-opacity:1;"/>
<path fill-rule="evenodd" clip-rule="evenodd" d="M410.209 193.999C409.773 193.435 409.877 192.624 410.441 192.187L416.919 187.18C417.484 186.743 418.295 186.847 418.731 187.412C419.167 187.976 419.063 188.787 418.499 189.223L412.021 194.231C411.457 194.667 410.645 194.563 410.209 193.999Z" fill="#FAFAFA" style="fill:#FAFAFA;fill:color(display-p3 0.9804 0.9804 0.9804);fill-opacity:1;"/>
<path fill-rule="evenodd" clip-rule="evenodd" d="M397.752 204.578C398.501 202.34 399.895 200.374 401.759 198.927L410.278 192.314C410.841 191.876 411.653 191.979 412.09 192.542C412.208 192.693 412.286 192.862 412.327 193.037L418.62 201.143C420.046 203.023 420.885 205.283 421.03 207.638C421.175 209.993 420.62 212.339 419.435 214.379C418.25 216.42 416.487 218.064 414.37 219.105C412.252 220.146 409.874 220.538 407.534 220.23C405.195 219.922 402.998 218.93 401.222 217.377C399.445 215.823 398.168 213.779 397.551 211.502C396.933 209.224 397.003 206.815 397.752 204.578ZM410.75 195.217L403.343 200.967C403.343 200.967 403.343 200.967 403.343 200.967C401.882 202.101 400.789 203.643 400.202 205.397C399.615 207.152 399.56 209.041 400.044 210.826C400.528 212.612 401.529 214.214 402.922 215.432C404.315 216.65 406.037 217.428 407.871 217.669C409.705 217.91 411.57 217.603 413.23 216.787C414.89 215.971 416.272 214.682 417.201 213.082C418.13 211.482 418.565 209.643 418.452 207.797C418.338 205.952 417.682 204.183 416.566 202.71L410.75 195.217Z" fill="#FAFAFA" style="fill:#FAFAFA;fill:color(display-p3 0.9804 0.9804 0.9804);fill-opacity:1;"/>
<path fill-rule="evenodd" clip-rule="evenodd" d="M400.381 188.88C401.567 186.839 403.331 185.195 405.45 184.155C407.569 183.115 409.948 182.725 412.288 183.034C414.628 183.344 416.824 184.339 418.6 185.894C420.376 187.449 421.651 189.496 422.266 191.774C422.881 194.053 422.808 196.463 422.056 198.701C421.304 200.938 419.906 202.903 418.039 204.348L417.249 203.326L418.041 204.347L418.039 204.348L408.607 211.67L401.194 202.12C399.767 200.239 398.928 197.979 398.783 195.623C398.639 193.267 399.195 190.921 400.381 188.88ZM406.588 186.473C404.927 187.289 403.544 188.578 402.614 190.178C401.684 191.778 401.248 193.617 401.362 195.465C401.475 197.309 402.131 199.08 403.247 200.553L409.064 208.046L416.458 202.305C417.922 201.172 419.018 199.632 419.607 197.878C420.197 196.124 420.255 194.234 419.773 192.447C419.29 190.661 418.29 189.056 416.898 187.837C415.506 186.618 413.784 185.837 411.95 185.595C410.115 185.352 408.249 185.658 406.588 186.473Z" fill="#FAFAFA" style="fill:#FAFAFA;fill:color(display-p3 0.9804 0.9804 0.9804);fill-opacity:1;"/>
<path fill-rule="evenodd" clip-rule="evenodd" d="M401.049 215.881C400.611 215.318 400.714 214.507 401.277 214.069L407.692 209.089C408.256 208.652 409.067 208.754 409.504 209.318C409.942 209.881 409.84 210.692 409.276 211.13L402.861 216.11C402.297 216.547 401.486 216.445 401.049 215.881Z" fill="#FAFAFA" style="fill:#FAFAFA;fill:color(display-p3 0.9804 0.9804 0.9804);fill-opacity:1;"/>
<path d="M465.019 133.346C465.058 133.312 465.1 133.281 465.143 133.253C465.15 133.248 465.157 133.244 465.164 133.24C465.204 133.215 465.245 133.193 465.288 133.173C465.294 133.17 465.301 133.166 465.307 133.163L488.543 122.403C488.546 122.402 488.549 122.4 488.552 122.398L488.558 122.396C488.563 122.394 488.568 122.392 488.572 122.39C488.729 122.32 488.902 122.279 489.081 122.272C489.099 122.271 489.117 122.27 489.134 122.27C489.161 122.27 489.187 122.272 489.213 122.273C489.226 122.274 489.239 122.274 489.252 122.275C489.278 122.278 489.304 122.282 489.33 122.285C489.348 122.288 489.365 122.29 489.382 122.293C489.392 122.295 489.403 122.296 489.413 122.298C489.425 122.3 489.437 122.304 489.449 122.307C489.458 122.309 489.468 122.31 489.478 122.313L497.665 124.403C497.672 124.404 497.678 124.407 497.685 124.409C497.703 124.414 497.721 124.42 497.739 124.425C497.759 124.432 497.78 124.439 497.8 124.446C497.813 124.451 497.827 124.456 497.84 124.462C497.864 124.471 497.887 124.482 497.911 124.493C497.924 124.5 497.938 124.506 497.952 124.513C498.096 124.588 498.221 124.687 498.323 124.804C498.329 124.81 498.335 124.816 498.34 124.822C498.413 124.91 498.473 125.006 498.518 125.109C498.524 125.122 498.528 125.136 498.534 125.15C498.558 125.21 498.576 125.273 498.589 125.338C498.59 125.343 498.592 125.348 498.593 125.353C498.605 125.419 498.611 125.486 498.612 125.554C498.612 125.563 498.612 125.573 498.612 125.582C498.612 125.584 498.613 125.587 498.613 125.589L497.982 147.922C497.993 148.235 497.873 148.546 497.63 148.783C497.622 148.791 497.614 148.799 497.605 148.807C497.579 148.831 497.552 148.853 497.523 148.875C497.511 148.885 497.499 148.895 497.486 148.905L497.485 148.907C497.448 148.933 497.409 148.957 497.37 148.98C497.367 148.981 497.365 148.984 497.363 148.985C497.346 148.995 497.328 149.002 497.311 149.011C497.291 149.021 497.272 149.03 497.252 149.039C497.22 149.054 497.188 149.067 497.155 149.079C497.148 149.081 497.142 149.083 497.136 149.085C496.811 149.196 496.449 149.185 496.131 149.043L465.324 135.313L465.323 135.312C465.278 135.292 465.235 135.27 465.194 135.246L465.165 135.229C465.16 135.225 465.155 135.222 465.15 135.218C465.112 135.194 465.075 135.168 465.041 135.14C465.031 135.132 465.022 135.125 465.013 135.117C464.978 135.087 464.944 135.055 464.912 135.022L464.899 135.008C464.893 135.001 464.887 134.994 464.882 134.988C464.856 134.958 464.831 134.927 464.808 134.895C464.8 134.883 464.791 134.871 464.783 134.859C464.729 134.777 464.685 134.688 464.653 134.595C464.648 134.58 464.643 134.565 464.639 134.55C464.627 134.51 464.617 134.469 464.61 134.427C464.609 134.421 464.607 134.414 464.606 134.408C464.598 134.356 464.594 134.303 464.593 134.25C464.593 134.247 464.593 134.245 464.593 134.243C464.593 134.236 464.593 134.23 464.593 134.224C464.593 134.201 464.594 134.177 464.596 134.154C464.597 134.138 464.6 134.123 464.601 134.107C464.603 134.089 464.605 134.071 464.608 134.053C464.624 133.951 464.655 133.854 464.697 133.762C464.7 133.757 464.702 133.751 464.705 133.745C464.726 133.701 464.75 133.657 464.777 133.616C464.78 133.612 464.782 133.609 464.784 133.606C464.812 133.563 464.843 133.523 464.877 133.484C464.885 133.475 464.895 133.466 464.903 133.456C464.931 133.426 464.961 133.397 464.992 133.369C465.001 133.361 465.01 133.353 465.019 133.346ZM488.007 135.612L495.493 144.569L495.947 128.463L488.007 135.612ZM492.327 144.691L485.617 136.661L472.477 135.844L492.327 144.691ZM488.462 131.864L494.802 126.156L490.102 124.956L488.462 131.864ZM485.253 134.239L487.291 125.659L470.716 133.334L485.253 134.239Z" fill="#FAFAFA" style="fill:#FAFAFA;fill:color(display-p3 0.9804 0.9804 0.9804);fill-opacity:1;"/>
</svg>
