<svg width="24" height="24" viewBox="0 0 24 24" fill="none" xmlns="http://www.w3.org/2000/svg">
<path d="M7.81063 11.2351C8.26182 11.1328 8.68894 11.1208 9.14615 11.1208C10.3854 11.1088 11.6187 11.6743 12.5391 12.4864C14.8191 14.4837 14.2897 14.8627 14.2235 15.747C14.2356 15.7711 14.2416 15.8252 14.2416 15.8793C13.9227 16.6073 13.8987 17.5698 14.1995 17.5818C14.2837 19.8739 12.6293 20.3431 12.5391 20.4273C11.6969 21.1793 10.614 21.6907 9.48303 21.7689C8.79723 21.829 8.31596 21.817 7.75047 21.6666C6.2826 21.3357 4.9892 20.3491 4.2673 19.0317C3.31679 17.3412 3.395 15.1153 4.48988 13.5091C5.24186 12.3601 6.46308 11.5239 7.81063 11.2351Z" fill="#FF0004"/>
<path d="M14.7213 15.398L19.1128 15.1153L18.9865 18.2135H14.7213C13.8249 17.5637 13.7166 16.0117 14.7213 15.398Z" fill="white"/>
<path d="M14.8617 11.253C15.337 11.1266 15.7641 11.1327 16.2454 11.1206C16.5221 11.1206 16.9011 11.1627 17.1718 11.2169C18.3449 11.4575 19.4338 12.0952 20.2038 13.0156C20.9558 13.906 21.419 15.049 21.4551 16.2221C21.5092 17.335 21.2084 18.4539 20.5948 19.3864C19.7887 20.6377 18.4291 21.522 16.9552 21.7446C16.4318 21.7747 15.9807 21.8348 15.3911 21.7566C14.3383 21.6363 13.3277 21.149 12.5456 20.4332C12.6358 20.3489 12.7441 20.2467 12.8344 20.1564H12.2869L11.9861 19.8256L13.0931 19.8376L13.3337 19.5248L11.7395 19.5007L11.547 19.224L13.4901 19.218L13.6946 18.8811L11.3545 18.8931L11.2101 18.5923C12.0463 18.5743 12.9908 18.5923 13.821 18.5863L13.9653 18.2614H11.1018L10.9755 17.9546L14.0736 17.9486L14.2 17.5937C13.8992 17.5877 13.5743 17.5877 13.2735 17.5937C13.2916 17.4914 13.3036 17.3952 13.3217 17.2929C13.5803 17.2929 13.833 17.2929 14.0917 17.2929C14.3443 17.8102 15.0482 17.9606 15.5355 17.708C15.5836 17.5877 15.6017 17.4553 15.6378 17.329L15.6618 17.2147C15.6618 17.4854 15.7641 17.702 15.9385 17.7802C16.2153 17.9185 16.5401 17.8403 16.7928 17.6899C16.8048 17.726 16.8289 17.7982 16.8409 17.8343C16.9913 17.8343 17.1357 17.8283 17.2861 17.8283C17.3703 17.3711 17.4666 16.9139 17.5448 16.4627C17.611 16.198 17.3944 15.9634 17.1537 15.8972C16.8289 15.813 16.4679 15.819 16.1491 15.9273C16.0528 16.0596 16.0348 16.2281 15.9807 16.3785C16.2574 16.3303 16.5401 16.2702 16.8229 16.3183C16.9372 16.3303 16.9492 16.4567 16.9612 16.5529C16.6304 16.583 16.3296 16.5409 16.0288 16.7093C15.8423 16.8056 15.74 16.9139 15.6739 17.1906C15.4994 17.2628 15.3309 17.3651 15.1384 17.341C14.8798 17.341 14.609 17.1665 14.579 16.8898C14.5489 16.5529 14.6572 16.1679 14.9339 15.9574C15.2106 15.7588 15.5656 15.8671 15.8543 15.9694C15.8784 15.801 15.9025 15.6325 15.9205 15.458C15.361 15.2595 14.585 15.3498 14.23 15.8912L14.218 15.7528C13.0991 15.7468 11.9861 15.7528 10.8672 15.7468C10.8852 15.6385 10.8973 15.5363 10.9153 15.428L14.194 15.446L14.1037 15.0971L10.9213 15.0911L11.0416 14.7843L14.0315 14.7783L13.8932 14.4414C13.063 14.4474 11.9741 14.4474 11.1439 14.4414L11.3244 14.1466C12.1185 14.1346 12.9547 14.1526 13.7488 14.1406L13.5262 13.8097C12.8644 13.8037 12.1486 13.8217 11.4868 13.8037L11.7094 13.5089L13.3818 13.5029L13.1051 13.154L11.8959 13.1419L12.1245 12.8291L12.8885 12.8412C12.7742 12.7148 12.6599 12.5825 12.5336 12.4682C13.1893 11.8786 13.9894 11.4635 14.8617 11.253Z" fill="#FFAA00"/>
<path d="M13.8088 3.28209C14.8194 2.89106 15.9684 2.92114 16.9851 3.28209C16.9069 3.76336 16.8227 4.24463 16.7385 4.72589C16.185 4.45518 15.5533 4.33486 14.9457 4.41307C14.6811 4.44916 14.3803 4.55143 14.2539 4.81012C14.1757 4.97856 14.278 5.17107 14.4164 5.27935C14.9157 5.67038 15.5594 5.82078 16.0527 6.22986C16.4437 6.53065 16.7445 6.99387 16.7204 7.50522C16.7505 8.14891 16.4136 8.78058 15.8902 9.15356C15.2225 9.63483 14.3803 9.77319 13.5741 9.78522C12.9124 9.74913 12.2386 9.68897 11.625 9.43029C11.6852 8.93097 11.7874 8.43767 11.8656 7.94437C12.5514 8.27524 13.3215 8.47377 14.0855 8.3715C14.3201 8.32939 14.5667 8.25118 14.7292 8.06469C14.8555 7.92031 14.8796 7.68569 14.7653 7.52928C14.5908 7.28865 14.3141 7.16833 14.0554 7.03598C13.508 6.78331 12.9365 6.48854 12.5875 5.97719C12.2627 5.50795 12.2928 4.87629 12.5394 4.38299C12.7921 3.8536 13.2854 3.49264 13.8088 3.28209Z" fill="#004489"/>
<path d="M1 3.1261C1.94449 3.1261 2.88898 3.1261 3.82745 3.1261C4.06808 3.1261 4.32676 3.16821 4.50122 3.34267C4.65162 3.48705 4.68772 3.70362 4.72983 3.89613C4.91632 4.8346 5.12086 5.76706 5.30735 6.70553C4.83811 5.54447 3.93573 4.58193 2.83483 3.99238C2.26333 3.67354 1.63768 3.43892 1 3.28251C1 3.2404 1 3.16219 1 3.1261Z" fill="#FFAA00"/>
<path d="M7.22134 3.12046C7.85902 3.11444 8.4967 3.12046 9.13438 3.12046C8.20794 5.30421 7.25743 7.47593 6.33099 9.6657C5.69331 9.67773 5.05563 9.6657 4.41795 9.67171C3.89457 7.77672 3.35314 5.88775 2.8418 3.99275C3.9427 4.58231 4.83906 5.54484 5.31431 6.7059L5.32033 6.72395C5.38049 7.00068 5.43463 7.27741 5.48877 7.56015C6.07231 6.08025 6.64381 4.60036 7.22134 3.12046ZM9.83823 3.11444C10.4338 3.11444 11.0354 3.12046 11.637 3.11444C11.276 5.29819 10.897 7.48195 10.524 9.6657C9.92245 9.6657 9.32087 9.6657 8.71928 9.6657C9.09227 7.48195 9.45923 5.29819 9.83823 3.11444ZM20.0231 3.12647C20.5344 3.10843 21.0458 3.12046 21.5571 3.12046C22.0384 5.31023 22.5317 7.49398 23.0009 9.68375C22.4414 9.68375 21.888 9.68375 21.3285 9.68375C21.2563 9.35889 21.1841 9.03404 21.118 8.70918C20.36 8.69113 19.5959 8.69715 18.8379 8.70316C18.7176 9.03404 18.5913 9.35287 18.471 9.68375C17.8393 9.68375 17.2076 9.68375 16.576 9.68375C17.4603 7.67445 18.3507 5.66516 19.241 3.65587C19.3553 3.33101 19.6862 3.1385 20.0231 3.12647ZM20.2878 4.94927C20.4743 5.73735 20.6367 6.53144 20.8111 7.32553C20.3299 7.32553 19.8486 7.33155 19.3673 7.31952C19.6802 6.53746 19.987 5.74337 20.2878 4.94927Z" fill="#004489"/>
<path d="M4.09766 17.8107C4.25407 17.0166 4.36235 16.2165 4.52478 15.4224C4.80151 15.4284 5.08426 15.4284 5.36098 15.4224C5.42114 15.8736 5.42114 16.3308 5.43919 16.782C5.64975 16.3067 5.83022 15.8675 6.04679 15.4224C6.34157 15.4224 6.64236 15.4103 6.93714 15.4344C6.79276 16.2285 6.66642 17.0226 6.51001 17.8107C6.34758 17.8047 6.17914 17.8047 6.01671 17.8107C6.125 17.2211 6.23328 16.6316 6.32954 16.042C6.05281 16.6195 5.84225 17.2271 5.58357 17.8107H5.01808L5.00605 17.6061C4.988 17.0767 4.95191 16.5534 4.92183 16.03L4.609 17.8107H4.09766ZM20.2081 15.4705C20.3765 15.4525 20.545 15.4645 20.7074 15.4705C20.539 16.2465 20.4367 17.0406 20.2803 17.8227C20.1179 17.8227 19.9434 17.8227 19.787 17.8227C19.787 17.7746 19.8171 17.6783 19.8171 17.6302C19.6727 17.7505 19.4922 17.8708 19.2937 17.8468C18.8605 17.8167 18.6199 17.4497 18.638 17.0828C18.5898 16.5353 18.9869 15.8675 19.5945 15.8916C19.799 15.8916 19.9314 16.0119 20.0757 16.1202C20.1239 15.8976 20.16 15.6871 20.2081 15.4705ZM7.19582 15.9157C7.59286 15.8194 8.07413 15.7593 8.42907 16.0179C8.63361 16.1623 8.57345 16.433 8.54337 16.6436C8.46516 17.0346 8.39899 17.4257 8.30875 17.8167C8.16437 17.8167 8.02601 17.8167 7.88162 17.8227C7.88162 17.7806 7.87561 17.6904 7.87561 17.6482C7.61091 17.8347 7.23191 17.931 6.94917 17.7445C6.65439 17.5279 6.6965 17.0587 6.94917 16.8301C7.23191 16.5473 7.64701 16.5955 8.01397 16.5834C8.026 16.4872 8.02601 16.3368 7.90569 16.3127C7.62294 16.2165 7.32817 16.3308 7.03941 16.3548C7.08753 16.2044 7.11761 16.048 7.19582 15.9157ZM9.12089 15.8796C9.4277 15.8074 9.75857 15.8134 10.0714 15.8675L9.9992 16.2826C9.76459 16.2766 9.49387 16.1804 9.29535 16.3308C9.21714 16.421 9.29535 16.5473 9.38559 16.5895C9.56606 16.6857 9.80068 16.7038 9.921 16.8902C10.0955 17.2211 9.91498 17.6904 9.542 17.7806C9.19308 17.8648 8.82611 17.8407 8.47719 17.7565C8.50126 17.6182 8.53134 17.4798 8.56142 17.3414C8.80205 17.3956 9.06073 17.4557 9.30738 17.3956C9.40363 17.3535 9.44574 17.2572 9.40363 17.161C9.22316 16.9865 8.92237 16.9865 8.77197 16.7699C8.58548 16.4511 8.74791 15.9578 9.12089 15.8796ZM18.289 16.1623C18.4214 15.9819 18.6079 15.8375 18.8425 15.8675C18.8124 16.0119 18.7763 16.1563 18.7523 16.2947C18.6019 16.3248 18.4334 16.3428 18.3251 16.4571C18.2048 16.5594 18.1808 16.7278 18.1507 16.8722C18.0905 17.179 18.0665 17.4918 17.9762 17.7926C17.8138 17.8107 17.6453 17.8047 17.4829 17.8047C17.5792 17.1549 17.6935 16.5112 17.8138 15.8675C17.9762 15.8675 18.1447 15.8675 18.3071 15.8675C18.3011 15.9758 18.2951 16.0661 18.289 16.1623Z" fill="white"/>
<path d="M19.3903 16.4451C19.4866 16.3127 19.6731 16.2766 19.8174 16.3428C20.1904 16.5834 19.7272 17.4678 19.4625 17.4136C18.9632 17.4016 19.1497 16.7098 19.3903 16.4451ZM10.6914 16.6977C10.6914 16.6797 10.6974 16.6496 10.7034 16.6376L11.0343 16.6436C11.0223 16.7398 11.0102 16.8421 11.0102 16.9384H10.7335L10.6914 16.6977ZM13.4226 16.6316C13.6211 16.6376 13.8136 16.6376 14.0122 16.6376C14.0061 16.7398 14.0061 16.8361 14.0061 16.9384C13.7956 16.9323 13.585 16.9323 13.3685 16.9323C13.3865 16.8301 13.3985 16.7338 13.4226 16.6316Z" fill="#FFAA00"/>
<path d="M7.32754 17.1248C7.4659 16.9142 7.73662 16.8962 7.96522 16.9022C7.94116 17.0466 7.92311 17.209 7.80279 17.3113C7.68247 17.4316 7.42379 17.4797 7.34558 17.4015C7.29144 17.3534 7.25535 17.209 7.32754 17.1248Z" fill="#FF0004"/>
<path d="M16.3109 17.0887C16.4553 16.8962 16.708 16.9083 16.9185 16.9022C16.9005 17.0466 16.8885 17.2151 16.7621 17.3113C16.6418 17.4376 16.3651 17.4617 16.3049 17.4076C16.1665 17.3414 16.2087 17.179 16.3109 17.0887Z" fill="#FFAA00"/>
<path d="M13.3684 16.9321C13.579 16.9321 13.7895 16.9321 14.0061 16.9382C14.0242 17.0585 14.0482 17.1728 14.0903 17.2931C13.8317 17.2931 13.573 17.2931 13.3203 17.2931C13.3323 17.1668 13.3504 17.0525 13.3684 16.9321Z" fill="#FF0004"/>
<path d="M11.4931 15.9579C11.824 15.7895 12.2752 15.7714 12.57 16.0121C12.8347 16.2647 12.7625 16.6558 12.7023 16.9746C12.3053 16.9746 11.9082 16.9686 11.5052 16.9746C11.5533 17.125 11.6195 17.2874 11.7759 17.3536C12.0646 17.4559 12.3775 17.3957 12.6542 17.2694C12.6241 17.4258 12.594 17.5822 12.564 17.7386C12.1729 17.8349 11.7217 17.8649 11.3608 17.6484C11.1141 17.504 11.0119 17.2032 11.0059 16.9325C11.0119 16.8362 11.0179 16.734 11.0299 16.6377C11.1021 16.373 11.2345 16.0963 11.4931 15.9579Z" fill="white"/>
<path d="M11.5879 16.6076C11.6601 16.4331 11.7864 16.2106 12.009 16.2467C12.1955 16.2527 12.2617 16.4572 12.2917 16.6076C12.0631 16.6196 11.8225 16.6196 11.5879 16.6076Z" fill="#FF0004"/>
<path d="M10.421 15.4222C10.5894 15.4222 10.7518 15.4222 10.9143 15.4342C10.8962 15.5425 10.8842 15.6447 10.8661 15.753C10.8601 15.7831 10.8541 15.8433 10.8481 15.8733C10.9504 15.8794 11.0466 15.8794 11.1489 15.8854C11.1248 16.0117 11.1007 16.1441 11.0767 16.2764C10.9744 16.2764 10.8721 16.2704 10.7699 16.2704C10.7398 16.3907 10.7157 16.517 10.6977 16.6374C10.6977 16.6554 10.6917 16.6855 10.6857 16.6975C10.6435 16.9261 10.5413 17.3352 10.5834 17.3954C10.6616 17.4796 10.8481 17.4074 10.9864 17.4134L10.8782 17.7563C10.6857 17.8405 10.4631 17.8345 10.2585 17.7864C10.1262 17.7623 10.0179 17.63 10.06 17.4976C10.1683 16.7998 10.3006 16.114 10.421 15.4222ZM13.0439 15.8914C13.2183 15.8733 13.3868 15.8794 13.5612 15.8794C13.5492 15.9395 13.5251 16.0659 13.5191 16.132C13.6816 15.9576 13.8921 15.8493 14.1327 15.8312C14.0666 16.0057 14.0004 16.1741 13.9462 16.3486C13.7357 16.3546 13.5251 16.4328 13.4229 16.6313C13.4048 16.7336 13.3868 16.8299 13.3687 16.9321C13.3507 17.0525 13.3326 17.1668 13.3146 17.2871C13.2965 17.3893 13.2845 17.4856 13.2665 17.5879C13.2544 17.6601 13.2364 17.7322 13.2183 17.8044C13.0439 17.8225 12.8694 17.8165 12.701 17.8165C12.8213 17.1728 12.9055 16.5291 13.0439 15.8914Z" fill="white"/>
</svg>
