<svg width="196" height="122" viewBox="0 0 196 122" fill="none" xmlns="http://www.w3.org/2000/svg">
<path d="M102.636 74.602L110.157 71.8237C111.552 71.3092 111.552 70.466 110.157 69.9501L101.508 66.7559L102.636 74.602Z" fill="black" stroke="white" style="fill:black;fill-opacity:1;stroke:white;stroke-opacity:1;" stroke-width="0.370227"/>
<path d="M103.624 48.931L57.371 65.9101C53.4613 67.3459 47.1041 67.3511 43.1709 65.9205L29.5393 60.9696C27.5635 60.253 26.5756 59.3088 26.5756 58.3673L26.5625 83.509C26.5625 84.4505 27.5504 85.3947 29.5262 86.1113L43.1604 91.0648C47.0937 92.4928 53.4508 92.4876 57.3605 91.0543L103.614 74.0753C105.561 73.3613 106.533 72.425 106.533 71.4913L106.546 46.3496C106.546 47.2833 105.574 48.2196 103.627 48.9336L103.624 48.931Z" fill="white" style="fill:white;fill-opacity:1;"/>
<mask id="mask0_1460_13314" style="mask-type:alpha" maskUnits="userSpaceOnUse" x="26" y="46" width="81" height="47">
<path d="M103.624 48.9329L57.371 65.912C53.4613 67.3478 47.1041 67.3531 43.1709 65.9225L29.5393 60.9715C27.5635 60.2549 26.5756 59.3108 26.5756 58.3692L26.5625 83.5109C26.5625 84.4524 27.5504 85.3966 29.5262 86.1132L43.1604 91.0668C47.0937 92.4947 53.4508 92.4895 57.3605 91.0563L103.614 74.0772C105.561 73.3632 106.533 72.4269 106.533 71.4932L106.546 46.3516C106.546 47.2853 105.574 48.2216 103.627 48.9356L103.624 48.9329Z" fill="white" style="fill:white;fill-opacity:1;"/>
</mask>
<g mask="url(#mask0_1460_13314)">
<path d="M50.4109 111.217C51.5904 111.217 52.7684 111.064 53.6573 110.734L109.86 89.9515C110.754 89.6291 111.2 89.2023 111.2 88.777V47.1406L52.7792 68.7474C51.4745 69.2203 50.4062 70.7357 50.4062 72.1144L50.4109 111.217Z" fill="#EBE9E9" style="fill:#EBE9E9;fill:color(display-p3 0.9216 0.9137 0.9137);fill-opacity:1;"/>
</g>
<path d="M95.1465 65.8389C95.2104 65.8151 95.2767 65.8173 95.3369 65.8447C95.3947 65.8711 95.4392 65.9173 95.4717 65.9688C95.5359 66.0706 95.5684 66.2157 95.5684 66.375V66.7305C95.5684 66.8917 95.5351 67.051 95.4795 67.1797C95.4263 67.3027 95.3418 67.4226 95.2236 67.4668H95.2227L63.8105 78.877C63.7462 78.9009 63.6803 78.8989 63.6201 78.8711C63.5625 78.8444 63.5177 78.7986 63.4854 78.7471C63.4213 78.645 63.3887 78.4998 63.3887 78.3418V77.9863C63.3887 77.8255 63.4217 77.6665 63.4766 77.5381C63.5287 77.416 63.6118 77.2956 63.7314 77.2529L95.1465 65.8398V65.8389Z" fill="#D9D9D9" stroke="black" style="fill:#D9D9D9;fill:color(display-p3 0.8510 0.8510 0.8510);fill-opacity:1;stroke:black;stroke-opacity:1;" stroke-width="0.222136" stroke-miterlimit="10"/>
<mask id="mask1_1460_13314" style="mask-type:alpha" maskUnits="userSpaceOnUse" x="63" y="65" width="33" height="14">
<path d="M95.185 65.9443C95.3353 65.888 95.4575 66.0818 95.4575 66.3756V66.7319C95.4575 67.0257 95.3353 67.307 95.185 67.3633L63.7724 78.7745C63.6221 78.8307 63.5 78.6338 63.5 78.3432V77.9869C63.5 77.6931 63.619 77.4118 63.7693 77.3586L95.185 65.9443Z" fill="white" style="fill:white;fill-opacity:1;"/>
</mask>
<g mask="url(#mask1_1460_13314)">
<path d="M94.2749 65.6503C94.4252 65.5941 94.5473 65.7879 94.5473 66.0817V66.438C94.5473 66.7318 94.4252 67.0131 94.2749 67.0693L62.8623 78.4805C62.712 78.5368 62.5898 78.3399 62.5898 78.0492V77.6929C62.5898 77.3991 62.7088 77.1178 62.8592 77.0647L94.2749 65.6503Z" fill="black" stroke="white" style="fill:black;fill-opacity:1;stroke:white;stroke-opacity:1;" stroke-width="0.222136" stroke-miterlimit="10"/>
<path d="M95.4566 66.3757C95.4566 66.1444 95.3815 65.9756 95.275 65.9413C95.0026 65.8537 94.6393 65.735 94.3637 65.6475C94.4702 65.6818 94.5454 65.8506 94.5454 66.0819V66.4382C94.5454 66.732 94.4232 67.0133 94.2729 67.0696L62.8603 78.4808C62.829 78.4933 62.7977 78.4933 62.7695 78.4808C63.042 78.5683 63.4052 78.6871 63.6808 78.7746C63.709 78.784 63.7403 78.784 63.7716 78.7746L95.1842 67.3634C95.3345 67.3071 95.4566 67.0258 95.4566 66.732V66.3757V66.3757Z" fill="white" stroke="black" style="fill:white;fill-opacity:1;stroke:black;stroke-opacity:1;" stroke-width="0.222136" stroke-miterlimit="10"/>
</g>
<path d="M95.1465 62.1436C95.2104 62.1198 95.2767 62.122 95.3369 62.1494C95.3947 62.1757 95.4392 62.222 95.4717 62.2734C95.5359 62.3753 95.5684 62.5204 95.5684 62.6797V63.0352C95.5684 63.1964 95.5351 63.3556 95.4795 63.4844C95.4263 63.6074 95.3418 63.7273 95.2236 63.7715H95.2227L63.8105 75.1816C63.7462 75.2056 63.6803 75.2036 63.6201 75.1758C63.5625 75.1491 63.5177 75.1032 63.4854 75.0518C63.4213 74.9497 63.3887 74.8045 63.3887 74.6465V74.291C63.3887 74.1302 63.4217 73.9712 63.4766 73.8428C63.5287 73.7207 63.6118 73.6003 63.7314 73.5576L95.1465 62.1445V62.1436Z" fill="#D9D9D9" stroke="black" style="fill:#D9D9D9;fill:color(display-p3 0.8510 0.8510 0.8510);fill-opacity:1;stroke:black;stroke-opacity:1;" stroke-width="0.222136" stroke-miterlimit="10"/>
<mask id="mask2_1460_13314" style="mask-type:alpha" maskUnits="userSpaceOnUse" x="63" y="62" width="33" height="14">
<path d="M95.185 62.248C95.3353 62.1917 95.4575 62.3855 95.4575 62.6793V63.0356C95.4575 63.3294 95.3353 63.6107 95.185 63.667L63.7724 75.0782C63.6221 75.1345 63.5 74.9375 63.5 74.6469V74.2906C63.5 73.9968 63.619 73.7155 63.7693 73.6623L95.185 62.248Z" fill="white" style="fill:white;fill-opacity:1;"/>
</mask>
<g mask="url(#mask2_1460_13314)">
<path d="M94.2749 61.9541C94.4252 61.8978 94.5473 62.0916 94.5473 62.3854V62.7417C94.5473 63.0355 94.4252 63.3168 94.2749 63.373L62.8623 74.7843C62.712 74.8405 62.5898 74.6436 62.5898 74.3529V73.9966C62.5898 73.7028 62.7088 73.4215 62.8592 73.3684L94.2749 61.9541Z" fill="black" stroke="white" style="fill:black;fill-opacity:1;stroke:white;stroke-opacity:1;" stroke-width="0.222136" stroke-miterlimit="10"/>
<path d="M95.4566 62.6794C95.4566 62.4481 95.3815 62.2793 95.275 62.245C95.0026 62.1575 94.6393 62.0387 94.3637 61.9512C94.4702 61.9856 94.5454 62.1543 94.5454 62.3856V62.7419C94.5454 63.0357 94.4232 63.317 94.2729 63.3733L62.8603 74.7845C62.829 74.797 62.7977 74.797 62.7695 74.7845C63.042 74.872 63.4052 74.9908 63.6808 75.0783C63.709 75.0877 63.7403 75.0877 63.7716 75.0783L95.1842 63.6671C95.3345 63.6108 95.4566 63.3295 95.4566 63.0357V62.6794V62.6794Z" fill="white" stroke="black" style="fill:white;fill-opacity:1;stroke:black;stroke-opacity:1;" stroke-width="0.222136" stroke-miterlimit="10"/>
</g>
<path d="M103.624 48.931L57.371 65.9101C53.4613 67.3459 47.1041 67.3511 43.1709 65.9205L29.5393 60.9696C27.5635 60.253 26.5756 59.3088 26.5756 58.3673L26.5625 83.509C26.5625 84.4505 27.5504 85.3947 29.5262 86.1113L43.1604 91.0648C47.0937 92.4928 53.4508 92.4876 57.3605 91.0543L103.614 74.0753C105.561 73.3613 106.533 72.425 106.533 71.4913L106.546 46.3496C106.546 47.2833 105.574 48.2196 103.627 48.9336L103.624 48.931Z" stroke="black" style="stroke:black;stroke-opacity:1;" stroke-width="0.370227" stroke-miterlimit="10"/>
<path d="M103.584 43.7456C107.517 45.1736 107.535 47.496 103.626 48.9319L57.3723 65.9109C53.4626 67.3468 47.1054 67.352 43.1721 65.9214L29.5406 60.9705C25.6073 59.5425 25.589 57.22 29.496 55.7842L75.7494 38.8051C79.6591 37.3693 86.0163 37.364 89.9522 38.792L103.586 43.7456H103.584Z" fill="white" stroke="black" style="fill:white;fill-opacity:1;stroke:black;stroke-opacity:1;" stroke-width="0.370227" stroke-miterlimit="10"/>
<path d="M79.6695 47.3607C81.1263 47.9015 81.1331 48.7812 79.685 49.3251L62.5539 55.7563C61.1058 56.3002 58.7512 56.3022 57.2945 55.7603L52.2457 53.885C50.7889 53.3441 50.7821 52.4644 52.2292 51.9206L69.3603 45.4893C70.8084 44.9455 73.1629 44.9435 74.6207 45.4844L79.6705 47.3607H79.6695Z" fill="black" style="fill:black;fill-opacity:1;"/>
<path d="M26.4766 82.1566L28.9327 83.0508C29.5827 83.2884 30.1148 82.9154 30.1148 82.2228V79.2984C30.0971 78.9336 29.9767 78.5814 29.7675 78.2822C29.5584 77.9831 29.2689 77.7493 28.9327 77.6079L27.4645 77.0723C27.0337 76.9069 26.681 76.585 26.4766 76.1709" stroke="black" style="stroke:black;stroke-opacity:1;" stroke-width="0.370227" stroke-miterlimit="10" stroke-linecap="round"/>
<path d="M27.8204 80.9079C28.1859 80.791 28.3435 80.2614 28.1724 79.7249C28.0013 79.1884 27.5664 78.8483 27.2009 78.9651C26.8354 79.082 26.6778 79.6117 26.8488 80.1481C27.0199 80.6846 27.4549 81.0247 27.8204 80.9079Z" fill="black" style="fill:black;fill-opacity:1;"/>
<path d="M66.6075 50.5085L62.5422 47.9668C62.4521 47.9102 62.372 47.8302 62.3086 47.7236L66.3738 50.2653C66.4373 50.3719 66.5174 50.4519 66.6075 50.5085Z" fill="#EBE9E9" stroke="#EBE9E9" style="fill:#EBE9E9;fill:color(display-p3 0.9216 0.9137 0.9137);fill-opacity:1;stroke:#EBE9E9;stroke:color(display-p3 0.9216 0.9137 0.9137);stroke-opacity:1;" stroke-width="0.370227" stroke-miterlimit="10"/>
<path d="M66.3755 50.2653L62.3103 47.7236L60.8984 45.3984L64.9637 47.9401L66.3755 50.2653Z" fill="#EBE9E9" stroke="#EBE9E9" style="fill:#EBE9E9;fill:color(display-p3 0.9216 0.9137 0.9137);fill-opacity:1;stroke:#EBE9E9;stroke:color(display-p3 0.9216 0.9137 0.9137);stroke-opacity:1;" stroke-width="0.370227" stroke-miterlimit="10"/>
<path d="M78.0067 16.9333C77.5027 16.6169 76.8419 16.5502 76.111 16.8034L51.5359 25.248C49.9172 25.8043 48.5721 27.7164 48.5354 29.5153L48.1883 46.5277C48.1682 47.5171 48.5454 48.2632 49.1562 48.6463L53.2214 51.188C52.6106 50.8049 52.2335 50.0554 52.2535 49.0694L52.6006 32.0536C52.6373 30.2548 53.9791 28.3427 55.6012 27.7864L80.1762 19.3451C80.9071 19.0953 81.568 19.1619 82.072 19.475L78.0067 16.9333V16.9333Z" fill="white" stroke="black" style="fill:white;fill-opacity:1;stroke:black;stroke-opacity:1;" stroke-width="0.370227" stroke-miterlimit="10"/>
<path d="M80.174 19.3463C81.7928 18.79 83.0778 19.7993 83.0411 21.5982L82.6939 38.6139C82.6572 40.4128 81.3155 42.3249 79.6934 42.8812L69.854 46.2624L68.3254 49.5969C68.0984 50.0899 67.718 50.4264 67.3375 50.5563C66.957 50.6862 66.5832 50.6096 66.3762 50.2665L64.9644 47.9413L55.1217 51.3224C53.503 51.8788 52.218 50.8727 52.2547 49.0706L52.6018 32.0548C52.6385 30.256 53.9802 28.3438 55.6023 27.7875L80.174 19.3463Z" fill="#EBE9E9" stroke="black" style="fill:#EBE9E9;fill:color(display-p3 0.9216 0.9137 0.9137);fill-opacity:1;stroke:black;stroke-opacity:1;" stroke-width="0.370227" stroke-miterlimit="10"/>
<path d="M66.2783 43.1607L65.2637 42.5244C65.237 42.5077 65.2103 42.4878 65.1836 42.4678L66.1982 43.104C66.2249 43.124 66.2516 43.144 66.2783 43.1607Z" fill="#EBE9E9" stroke="black" style="fill:#EBE9E9;fill:color(display-p3 0.9216 0.9137 0.9137);fill-opacity:1;stroke:black;stroke-opacity:1;" stroke-width="0.370227" stroke-miterlimit="10"/>
<path d="M76.5453 26.2282C76.2716 26.0583 75.9278 26.0417 75.5807 26.1616C75.1969 26.2915 74.8131 26.588 74.5127 27.0111L66.3555 38.6169L67.3701 39.2532L75.5273 27.6473C75.8244 27.2243 76.2115 26.9278 76.5954 26.7979C76.9425 26.6779 77.2862 26.6946 77.5599 26.8645L76.5453 26.2282V26.2282Z" fill="#EBE9E9" stroke="black" style="fill:#EBE9E9;fill:color(display-p3 0.9216 0.9137 0.9137);fill-opacity:1;stroke:black;stroke-opacity:1;" stroke-width="0.370227" stroke-miterlimit="10"/>
<path d="M61.4212 36.9676C61.7182 36.5446 62.1054 36.2481 62.4859 36.1182C62.833 35.9983 63.1768 36.0116 63.4505 36.1848L62.4358 35.5485C62.1621 35.3786 61.8184 35.362 61.4712 35.4819C61.0874 35.6118 60.7036 35.9083 60.4032 36.3314C59.8058 37.1808 59.7857 38.2302 60.3565 38.6799L65.1827 42.4708L66.1973 43.107L61.3711 39.3161C60.8004 38.8664 60.8237 37.8171 61.4178 36.9676H61.4212Z" fill="#EBE9E9" stroke="black" style="fill:#EBE9E9;fill:color(display-p3 0.9216 0.9137 0.9137);fill-opacity:1;stroke:black;stroke-opacity:1;" stroke-width="0.370227" stroke-miterlimit="10"/>
<path d="M76.595 26.7968C76.9788 26.6669 77.356 26.6969 77.643 26.92C78.2137 27.3664 78.1904 28.4191 77.5963 29.2685L68.4011 42.3502C68.104 42.7732 67.7202 43.063 67.3397 43.1929C66.8658 43.3562 66.4886 43.3262 66.2049 43.103L61.3787 39.3121C60.808 38.8624 60.8313 37.8131 61.4254 36.9636C61.7225 36.5405 62.1096 36.2441 62.4901 36.1142C62.8706 35.9842 63.2511 36.0142 63.5381 36.2374L67.3731 39.2521L75.5303 27.6462C75.8273 27.2232 76.2145 26.9267 76.5983 26.7968H76.595Z" fill="#66DD8C" stroke="black" style="fill:#66DD8C;fill:color(display-p3 0.4000 0.8667 0.5490);fill-opacity:1;stroke:black;stroke-opacity:1;" stroke-width="0.370227" stroke-miterlimit="10"/>
<path d="M166.37 92.7172L173.891 89.9389C175.287 89.4244 175.287 88.5812 173.891 88.0653L165.242 84.8711L166.37 92.7172Z" fill="black" stroke="white" style="fill:black;fill-opacity:1;stroke:white;stroke-opacity:1;" stroke-width="0.370227"/>
<path d="M165.371 76.5839L138.965 86.2781C135.626 87.5044 130.194 87.5089 126.835 86.2893L100.272 76.6397C98.5865 76.0277 97.7428 75.2235 97.7428 74.4172L97.7383 91.0471C97.7383 91.8512 98.582 92.6554 100.267 93.2696L126.83 102.919C130.19 104.139 135.619 104.134 138.96 102.908L165.367 93.2138C167.03 92.604 167.86 91.8043 167.86 91.0069L167.865 74.377C167.865 75.1744 167.034 75.9741 165.371 76.5839V76.5839Z" fill="white" style="fill:white;fill-opacity:1;"/>
<path d="M165.336 72.155C168.695 73.3746 168.711 75.3581 165.371 76.5844L138.965 86.2787C135.626 87.505 130.194 87.5095 126.835 86.2899L100.272 76.6403C96.9125 75.4207 96.8968 73.4371 100.238 72.2108L126.642 62.5166C129.982 61.2903 135.411 61.2858 138.77 62.5054L165.333 72.155H165.336Z" fill="white" stroke="black" style="fill:white;fill-opacity:1;stroke:black;stroke-opacity:1;" stroke-width="0.370227" stroke-miterlimit="10"/>
<mask id="mask3_1460_13314" style="mask-type:alpha" maskUnits="userSpaceOnUse" x="97" y="74" width="71" height="30">
<path d="M165.371 76.5839L138.965 86.2781C135.626 87.5044 130.194 87.5089 126.835 86.2893L100.272 76.6397C98.5865 76.0277 97.7428 75.2235 97.7428 74.4172L97.7383 91.0471C97.7383 91.8512 98.582 92.6554 100.267 93.2696L126.83 102.919C130.19 104.139 135.619 104.134 138.96 102.908L165.367 93.2138C167.03 92.604 167.86 91.8043 167.86 91.0069L167.865 74.377C167.865 75.1744 167.034 75.9741 165.371 76.5839V76.5839Z" fill="white" style="fill:white;fill-opacity:1;"/>
</mask>
<g mask="url(#mask3_1460_13314)">
<path d="M134.067 104.225C135.247 104.225 136.425 104.071 137.314 103.741L167.312 92.8973C168.206 92.5749 168.652 92.1481 168.652 91.7228V76.2402L136.435 87.9086C135.131 88.3815 134.062 89.8968 134.062 91.2755L134.067 104.225Z" fill="#EBE9E9" style="fill:#EBE9E9;fill:color(display-p3 0.9216 0.9137 0.9137);fill-opacity:1;"/>
</g>
<path d="M165.371 76.5819L138.965 86.2762C135.626 87.5025 130.194 87.507 126.835 86.2874L100.272 76.6377C98.5865 76.0257 97.7428 75.2216 97.7428 74.4152L97.7383 91.0452C97.7383 91.8493 98.582 92.6534 100.267 93.2677L126.83 102.917C130.19 104.137 135.619 104.132 138.96 102.906L165.367 93.2118C167.03 92.602 167.86 91.8024 167.86 91.0049L167.865 74.375C167.865 75.1724 167.034 75.9721 165.371 76.5819V76.5819Z" stroke="black" style="stroke:black;stroke-opacity:1;" stroke-width="0.370227" stroke-miterlimit="10"/>
<path d="M138.036 82.7779L157.55 75.5543C161.171 74.2166 161.171 72.0243 157.55 70.6828L135.109 62.3779L138.036 82.7779Z" fill="black" style="fill:black;fill-opacity:1;"/>
<path d="M155.175 66.9533L141.746 53.4944C141.389 53.139 140.965 52.9002 140.511 52.7945L129.38 50.1486C129.835 50.2569 130.259 50.4931 130.616 50.8485L144.045 64.3074C144.778 65.0423 145.069 66.1367 144.826 67.2329C144.583 68.3292 143.852 69.1976 142.876 69.5564L124.976 76.1551C124.472 76.3405 123.958 76.3716 123.476 76.2562L134.606 78.9021C135.089 79.0174 135.602 78.9864 136.107 78.8009L154.006 72.2023C154.985 71.8405 155.714 70.9725 155.957 69.8788C156.199 68.7825 155.909 67.6907 155.175 66.9533V66.9533Z" fill="black" stroke="black" style="fill:black;fill-opacity:1;stroke:black;stroke-opacity:1;" stroke-width="0.370227" stroke-miterlimit="10"/>
<path d="M129.682 48.8781C128.998 48.7145 128.264 48.7603 127.551 49.0225C126.161 49.5341 125.123 50.7685 124.775 52.3263L120.308 72.3819C119.96 73.9397 120.376 75.4928 121.418 76.539C121.924 77.0443 122.527 77.379 123.17 77.5345L134.299 80.1802C133.654 80.0276 133.054 79.6925 132.548 79.1846C131.505 78.1385 131.09 76.5854 131.437 75.0276L135.905 54.9719C136.252 53.4141 137.291 52.1798 138.68 51.6682C139.397 51.4057 140.128 51.3602 140.811 51.5237L129.682 48.8781V48.8781Z" fill="white" stroke="black" style="fill:white;fill-opacity:1;stroke:black;stroke-opacity:1;" stroke-width="0.370227" stroke-miterlimit="10"/>
<path d="M155.996 65.972C157.038 67.0182 157.453 68.5714 157.106 70.1292C156.759 71.6845 155.723 72.9211 154.333 73.4328L136.434 80.0312C135.047 80.5425 133.593 80.2237 132.551 79.18C131.509 78.1338 131.093 76.5807 131.441 75.0228L135.909 54.9663C136.256 53.4084 137.294 52.1741 138.684 51.6624C140.074 51.1508 141.525 51.4673 142.567 52.5135L155.996 65.972V65.972ZM155.956 69.8746C156.199 68.7783 155.909 67.6866 155.175 66.9492L141.747 53.4908C141.011 52.7563 139.989 52.5302 139.013 52.8917C138.037 53.2531 137.306 54.1214 137.063 55.2177L132.593 75.2745C132.35 76.3707 132.64 77.4625 133.374 78.1999C134.11 78.9344 135.131 79.1578 136.107 78.7964L154.006 72.198C154.985 71.8362 155.713 70.9682 155.956 69.8746" fill="white" style="fill:white;fill-opacity:1;"/>
<path d="M155.956 69.8746C156.199 68.7783 155.909 67.6866 155.175 66.9492L141.747 53.4908C141.011 52.7563 139.989 52.5302 139.013 52.8917C138.037 53.2531 137.306 54.1214 137.063 55.2177L132.593 75.2745C132.35 76.3707 132.64 77.4625 133.374 78.1999C134.11 78.9344 135.131 79.1578 136.107 78.7964L154.006 72.198C154.985 71.8362 155.713 70.9682 155.956 69.8746M155.996 65.972C157.038 67.0182 157.453 68.5714 157.106 70.1292C156.759 71.6845 155.723 72.9211 154.333 73.4328L136.434 80.0312C135.047 80.5425 133.593 80.2237 132.551 79.18C131.509 78.1338 131.093 76.5807 131.441 75.0228L135.909 54.9663C136.256 53.4084 137.294 52.1741 138.684 51.6624C140.074 51.1508 141.525 51.4673 142.567 52.5135L155.996 65.972V65.972Z" stroke="black" style="stroke:black;stroke-opacity:1;" stroke-width="0.370227" stroke-miterlimit="10"/>
<path d="M140.607 79.486C139.55 82.3805 137.133 84.182 134.636 83.2755L113.571 75.6139C111.015 74.6843 110.386 71.7716 111.443 68.877L134.034 7.00664C135.091 4.11209 137.553 2.32384 140.005 3.20888L161.072 10.8787C163.436 11.739 164.255 14.721 163.199 17.6156L140.607 79.486Z" fill="white" stroke="black" style="fill:white;fill-opacity:1;stroke:black;stroke-opacity:1;" stroke-width="0.370227" stroke-miterlimit="10" stroke-linecap="round"/>
<path fill-rule="evenodd" clip-rule="evenodd" d="M147.233 61.3299C146.69 61.297 146.138 61.1839 145.584 60.9831L117.98 50.9648L111.439 68.8779C110.382 71.7725 111.011 74.6852 113.567 75.6148L134.632 83.2764C137.129 84.1829 139.546 82.3814 140.603 79.4869L147.233 61.3299Z" fill="black" style="fill:black;fill-opacity:1;"/>
<path d="M147.233 61.3299L147.407 61.3934L147.492 61.1602L147.244 61.1451L147.233 61.3299ZM145.584 60.9831L145.521 61.1571L145.521 61.1571L145.584 60.9831ZM117.98 50.9648L118.043 50.7908L117.869 50.7278L117.806 50.9014L117.98 50.9648ZM111.439 68.8779L111.613 68.9414L111.613 68.9414L111.439 68.8779ZM113.567 75.6148L113.63 75.4409L113.63 75.4408L113.567 75.6148ZM134.632 83.2764L134.569 83.4503L134.569 83.4504L134.632 83.2764ZM140.603 79.4869L140.777 79.5504L140.777 79.5504L140.603 79.4869ZM147.233 61.3299L147.244 61.1451C146.719 61.1133 146.185 61.004 145.647 60.809L145.584 60.9831L145.521 61.1571C146.091 61.3638 146.661 61.4806 147.222 61.5147L147.233 61.3299ZM145.584 60.9831L145.647 60.8091L118.043 50.7908L117.98 50.9648L117.917 51.1389L145.521 61.1571L145.584 60.9831ZM111.439 68.8779L111.613 68.9414L118.154 51.0283L117.98 50.9648L117.806 50.9014L111.265 68.8144L111.439 68.8779ZM113.567 75.6148L113.63 75.4408C112.413 74.9982 111.656 74.087 111.326 72.9324C110.995 71.7722 111.095 70.3611 111.613 68.9414L111.439 68.8779L111.265 68.8144C110.727 70.2893 110.612 71.7819 110.97 73.0341C111.329 74.2919 112.165 75.3018 113.503 75.7888L113.567 75.6148ZM134.632 83.2764L134.695 83.1024L113.63 75.4409L113.567 75.6148L113.503 75.7888L134.569 83.4503L134.632 83.2764ZM140.603 79.4869L140.429 79.4234C139.911 80.8416 139.064 81.9802 138.055 82.653C137.049 83.3232 135.882 83.5333 134.695 83.1024L134.632 83.2764L134.569 83.4504C135.879 83.926 137.168 83.6886 138.26 82.9611C139.348 82.2361 140.238 81.0267 140.777 79.5504L140.603 79.4869ZM147.233 61.3299L147.059 61.2664L140.429 79.4234L140.603 79.4869L140.777 79.5504L147.407 61.3934L147.233 61.3299Z" fill="black" style="fill:black;fill-opacity:1;"/>
<path d="M163.549 13.8413C163.549 13.8413 163.164 12.5203 162.669 12.0151L160.457 11.1895L160.685 12.8274L163.549 13.8413Z" fill="black" style="fill:black;fill-opacity:1;"/>
<path d="M163.197 17.6152C163.396 17.0719 163.532 16.5072 163.6 15.9326L161.198 15.0889L136.422 81.5248L138.791 82.2926C139.613 81.5105 140.237 80.5443 140.611 79.474L163.197 17.6152Z" fill="black" style="fill:black;fill-opacity:1;"/>
<path d="M138.789 82.2941C139.611 81.512 140.235 80.5459 140.609 79.4755L147.891 59.4941" stroke="#EBE9E9" style="stroke:#EBE9E9;stroke:color(display-p3 0.9216 0.9137 0.9137);stroke-opacity:1;" stroke-width="0.370227" stroke-miterlimit="10" stroke-linecap="round"/>
<path d="M138.506 78.7183C137.449 81.6129 135.032 83.4143 132.536 82.5078L111.465 74.8463C109.224 74.0372 108.282 71.0039 109.34 68.1094L131.93 6.24394C132.987 3.34939 135.448 1.56115 137.901 2.44619L158.966 10.1094C161.332 10.9697 162.151 13.9517 161.094 16.8463L138.506 78.7183Z" fill="#EBE9E9" stroke="black" style="fill:#EBE9E9;fill:color(display-p3 0.9216 0.9137 0.9137);fill-opacity:1;stroke:black;stroke-opacity:1;" stroke-width="0.370227" stroke-miterlimit="10" stroke-linecap="round"/>
<path d="M158.41 29.6947C158.51 29.4222 158.369 29.1208 158.096 29.0216C157.823 28.9223 157.521 29.0627 157.421 29.3351L155.242 35.305C155.143 35.5775 155.283 35.8789 155.556 35.9781C155.829 36.0774 156.131 35.937 156.231 35.6645L158.41 29.6947Z" fill="white" stroke="black" style="fill:white;fill-opacity:1;stroke:black;stroke-opacity:1;" stroke-width="0.370227" stroke-miterlimit="10" stroke-linecap="round"/>
<path d="M158.55 11.0209C151.572 8.48583 144.553 6.12202 137.637 3.41879C135.617 2.68566 133.592 4.15688 132.721 6.53956L110.131 68.3984C109.261 70.7811 110.032 73.2694 111.881 73.9431L132.796 81.5485C134.846 82.2949 136.839 80.8121 137.709 78.4294L160.3 16.564C161.17 14.1813 160.495 11.7276 158.55 11.0209Z" fill="white" style="fill:white;fill-opacity:1;"/>
<path d="M134.542 17.8001C133.268 17.3382 131.63 18.6046 130.893 20.6272L122.784 42.8657C122.047 44.8883 122.484 46.9084 123.758 47.3703L124.129 47.5048C122.855 47.0429 122.418 45.0203 123.155 43.0002L131.264 20.7617C132.001 18.7391 133.636 17.4727 134.913 17.9346L134.542 17.8001V17.8001Z" fill="white" stroke="black" style="fill:white;fill-opacity:1;stroke:black;stroke-opacity:1;" stroke-width="0.370227" stroke-miterlimit="10"/>
<path d="M150.72 22.5935C152.327 23.1771 152.878 25.7251 151.948 28.273L143.839 50.5115C142.911 53.0594 140.846 54.6582 139.239 54.0745L123.414 48.3239C121.807 47.7403 121.258 45.1923 122.186 42.6444L130.294 20.4059C131.222 17.858 133.284 16.2592 134.891 16.8429L150.717 22.5935H150.72Z" fill="#66DD8C" stroke="black" style="fill:#66DD8C;fill:color(display-p3 0.4000 0.8667 0.5490);fill-opacity:1;stroke:black;stroke-opacity:1;" stroke-width="0.370227" stroke-miterlimit="10"/>
<path d="M151.086 22.7302L150.715 22.5957C152.322 23.1794 152.873 25.7273 151.943 28.2752L143.834 50.5138C142.906 53.0617 140.841 54.6605 139.234 54.0768L139.606 54.2113C141.213 54.795 143.275 53.1962 144.205 50.6483L152.314 28.4097C153.242 25.8618 152.693 23.3139 151.086 22.7302V22.7302Z" fill="black" stroke="black" style="fill:black;fill-opacity:1;stroke:black;stroke-opacity:1;" stroke-width="0.370227" stroke-miterlimit="10"/>
<path d="M136.134 35.309C139.495 36.5297 140.876 41.4098 139.574 46.6884C139.335 47.6553 138.567 48.3379 137.972 48.1222L126.472 43.9451C125.877 43.7293 125.729 42.7142 126.169 41.8209C128.572 36.9408 132.772 34.0883 136.134 35.309Z" fill="white" stroke="black" style="fill:white;fill-opacity:1;stroke:black;stroke-opacity:1;" stroke-width="0.370227" stroke-miterlimit="10"/>
<path d="M136.133 35.3086L137.061 35.6461C140.422 36.8668 141.803 41.7469 140.501 47.0255C140.262 47.9924 139.494 48.6751 138.899 48.4593L137.971 48.1218C138.566 48.3375 139.334 47.6574 139.573 46.688C140.875 41.4069 139.492 36.5293 136.133 35.3086Z" fill="black" stroke="black" style="fill:black;fill-opacity:1;stroke:black;stroke-opacity:1;" stroke-width="0.370227" stroke-miterlimit="10"/>
<path d="M140.675 22.8594L141.603 23.1969C143.599 23.9227 144.283 27.0746 143.126 30.2418C141.972 33.4064 139.416 35.3858 137.42 34.6626L136.492 34.325C138.488 35.0508 141.044 33.0714 142.198 29.9042C143.352 26.7371 142.671 23.5826 140.675 22.8594Z" fill="black" stroke="black" style="fill:black;fill-opacity:1;stroke:black;stroke-opacity:1;" stroke-width="0.370227" stroke-miterlimit="10"/>
<path d="M142.2 29.9014C143.354 26.7352 142.672 23.5806 140.675 22.8553C138.679 22.13 136.124 24.1087 134.97 27.2749C133.815 30.4411 134.497 33.5958 136.494 34.3211C138.491 35.0463 141.045 33.0676 142.2 29.9014Z" fill="white" stroke="black" style="fill:white;fill-opacity:1;stroke:black;stroke-opacity:1;" stroke-width="0.370227" stroke-miterlimit="10"/>
<path d="M132.409 63.6441C133.24 63.9461 133.522 65.2581 133.042 66.5752C132.561 67.8923 131.498 68.7171 130.667 68.4151L119.273 64.276C118.444 63.974 118.159 62.662 118.64 61.3423C119.12 60.0227 120.183 59.203 121.012 59.505L132.406 63.6441H132.409Z" fill="#050505" stroke="black" style="fill:#050505;fill:color(display-p3 0.0208 0.0208 0.0208);fill-opacity:1;stroke:black;stroke-opacity:1;" stroke-width="0.370227" stroke-miterlimit="10"/>
<path d="M124.132 63.6359C124.111 63.7343 124.098 63.8267 124.089 63.9145C123.927 64.0341 123.794 64.1355 123.692 64.2173C123.623 64.2672 123.57 64.3127 123.535 64.3505L123.492 64.1189C123.557 64.0523 123.604 63.9796 123.632 63.8993L123.896 63.1484L123.725 63.0848L123.814 62.835L124.142 62.9591L123.821 63.8691C123.868 63.8418 123.972 63.7631 124.132 63.6344V63.6359Z" fill="white" style="fill:white;fill-opacity:1;"/>
<path d="M124.433 62.6482L124.229 62.7754C124.21 62.6315 124.184 62.4589 124.148 62.2575L124.333 62.1455C124.366 62.3015 124.399 62.4695 124.433 62.6467V62.6482Z" fill="white" style="fill:white;fill-opacity:1;"/>
<path d="M124.962 62.8591C124.714 63.6933 124.668 64.305 124.827 64.6896C124.807 64.7047 124.775 64.738 124.73 64.788C124.68 64.838 124.645 64.8728 124.623 64.8955C124.511 64.5427 124.515 64.1067 124.634 63.5858C124.42 64.034 124.14 64.3822 123.791 64.6275C123.786 64.52 123.779 64.4277 123.766 64.3474C124.166 64.1127 124.492 63.6419 124.741 62.9348C124.768 62.8621 124.81 62.7455 124.871 62.5881L124.941 62.3867L125.113 62.4503C125.05 62.6305 124.998 62.7667 124.962 62.8591V62.8591Z" fill="white" style="fill:white;fill-opacity:1;"/>
<path d="M126.034 65.0749L126.412 65.2173L126.331 65.4459L125.25 65.0401L125.332 64.8115L125.502 64.8751L125.95 63.6048L126.108 63.6654L125.661 64.9356L125.869 65.0129L126.447 63.3732L125.99 63.2006L126.078 62.9492L127.049 63.3141L126.959 63.5654L126.612 63.4352L126.386 64.0742L126.691 64.1892L126.606 64.4284L126.302 64.3149L126.034 65.0749Z" fill="white" style="fill:white;fill-opacity:1;"/>
<path d="M125.573 64.3012C125.535 64.4223 125.507 64.5253 125.491 64.6101C125.378 64.6964 125.235 64.8054 125.064 64.9371L125.031 64.6979C125.084 64.6494 125.131 64.5692 125.171 64.4556L125.429 63.7243L125.276 63.6668L125.364 63.417L125.675 63.5336L125.336 64.4935C125.35 64.4844 125.379 64.4602 125.423 64.4253C125.489 64.3663 125.539 64.3254 125.571 64.2997L125.573 64.3012Z" fill="white" style="fill:white;fill-opacity:1;"/>
<path d="M125.916 63.2437L125.714 63.3484C125.705 63.2028 125.689 63.0253 125.664 62.8205L125.847 62.7295C125.85 62.7462 125.855 62.775 125.859 62.8144C125.886 63.0132 125.905 63.1573 125.915 63.2437H125.916Z" fill="white" style="fill:white;fill-opacity:1;"/>
<path d="M97.6953 89.8285L100.151 90.7227C100.801 90.9603 101.334 90.5873 101.334 89.8947V86.9703C101.316 86.6055 101.195 86.2532 100.986 85.9541C100.777 85.655 100.488 85.4212 100.151 85.2798L98.6832 84.7442C98.2525 84.5787 97.8997 84.2569 97.6953 83.8428" stroke="black" style="stroke:black;stroke-opacity:1;" stroke-width="0.370227" stroke-miterlimit="10" stroke-linecap="round"/>
<path d="M99.0392 88.5827C99.4047 88.4658 99.5623 87.9362 99.3912 87.3997C99.2201 86.8632 98.7851 86.5231 98.4196 86.64C98.0541 86.7568 97.8965 87.2865 98.0676 87.8229C98.2387 88.3594 98.6737 88.6995 99.0392 88.5827Z" fill="black" style="fill:black;fill-opacity:1;"/>
<path d="M139.656 96.9291C140.022 97.0459 140.179 97.5756 140.008 98.112C139.837 98.6485 139.402 98.9886 139.037 98.8718C138.671 98.7549 138.514 98.2253 138.685 97.6888C138.856 97.1523 139.291 96.8122 139.656 96.9291Z" fill="black" style="fill:black;fill-opacity:1;"/>
<path d="M168.452 102.681L173.73 100.763C174.71 100.408 174.71 99.8263 173.73 99.4702L167.66 97.2656L168.452 102.681Z" fill="black" stroke="white" style="fill:black;fill-opacity:1;stroke:white;stroke-opacity:1;" stroke-width="0.370227"/>
<path d="M168.509 102.667L163.793 104.356C163.328 104.522 162.912 104.013 163.168 103.592L168.771 94.378C169.046 93.9257 169.744 94.1191 169.744 94.6482V100.493C169.744 101.981 168.92 102.562 168.509 102.667Z" fill="#EBE9E9" stroke="black" style="fill:#EBE9E9;fill:color(display-p3 0.9216 0.9137 0.9137);fill-opacity:1;stroke:black;stroke-opacity:1;" stroke-width="0.370227"/>
<path d="M161.196 91.4926C161.457 91.0663 161.985 90.8836 162.455 91.0566L168.962 93.4526C169.581 93.6806 169.837 94.416 169.491 94.978L163.953 103.997C163.691 104.423 163.163 104.606 162.693 104.433L156.186 102.037C155.567 101.809 155.312 101.074 155.657 100.512L161.196 91.4926Z" fill="white" stroke="black" style="fill:white;fill-opacity:1;stroke:black;stroke-opacity:1;" stroke-width="0.370227"/>
<mask id="mask4_1460_13314" style="mask-type:alpha" maskUnits="userSpaceOnUse" x="155" y="90" width="15" height="15">
<path d="M161.196 91.4926C161.457 91.0663 161.985 90.8836 162.455 91.0566L168.962 93.4526C169.581 93.6806 169.837 94.416 169.491 94.978L163.953 103.997C163.691 104.423 163.163 104.606 162.693 104.433L156.186 102.037C155.567 101.809 155.312 101.074 155.657 100.512L161.196 91.4926Z" fill="#2D3033" style="fill:#2D3033;fill:color(display-p3 0.1765 0.1882 0.2000);fill-opacity:1;"/>
</mask>
<g mask="url(#mask4_1460_13314)">
<path fill-rule="evenodd" clip-rule="evenodd" d="M161.147 95.0925C160.912 95.0058 160.648 95.0977 160.517 95.3116L156.348 102.138C156.177 102.419 156.305 102.786 156.614 102.9L160.968 104.503C161.203 104.59 161.467 104.498 161.598 104.284L165.767 97.4572C165.938 97.1762 165.81 96.8094 165.501 96.6956L161.147 95.0925Z" fill="white" stroke="black" style="fill:white;fill-opacity:1;stroke:black;stroke-opacity:1;" stroke-width="0.370227"/>
</g>
<path d="M161.196 91.4926C161.457 91.0663 161.985 90.8836 162.455 91.0566L168.962 93.4526C169.581 93.6806 169.837 94.416 169.491 94.978L163.953 103.997C163.691 104.423 163.163 104.606 162.693 104.433L156.186 102.037C155.567 101.809 155.312 101.074 155.657 100.512L161.196 91.4926Z" stroke="black" style="stroke:black;stroke-opacity:1;" stroke-width="0.370227"/>
<ellipse cx="0.785979" cy="1.04635" rx="0.785979" ry="1.04635" transform="matrix(0.94901 0.315246 -0.316344 0.948645 160.328 98.6387)" fill="black" style="fill:black;fill-opacity:1;"/>
<path d="M138.899 97.7314C139.004 97.4658 139.305 97.3348 139.571 97.4395L149.307 101.262L149.356 101.288C149.989 101.619 152.229 102.244 155.033 101.23C158.119 100.115 159.832 99.5235 160.311 99.3643C160.582 99.2738 160.876 99.4206 160.967 99.6914C161.057 99.9619 160.91 100.254 160.639 100.345C160.173 100.5 158.471 101.088 155.386 102.203C152.311 103.314 149.774 102.671 148.882 102.207L148.874 102.203L148.867 102.2L139.191 98.4014C138.925 98.2967 138.795 97.9968 138.899 97.7314Z" fill="black" stroke="black" style="fill:black;fill-opacity:1;stroke:black;stroke-opacity:1;" stroke-width="0.296181" stroke-linecap="round"/>
<path d="M155.215 101.718C158.301 100.602 160.008 100.012 160.48 99.8552M142.623 99.1916L139.387 97.9209M145.86 100.462L144.241 99.827" stroke="#66DD8C" style="stroke:#66DD8C;stroke:color(display-p3 0.4000 0.8667 0.5490);stroke-opacity:1;" stroke-width="0.592363" stroke-linecap="round"/>
<path fill-rule="evenodd" clip-rule="evenodd" d="M27.2459 79.9133C27.3457 80.1845 27.2063 80.485 26.9346 80.5846C26.0088 80.9238 25.3299 81.2333 24.8797 81.4598C24.6069 81.597 24.431 81.8902 24.431 82.2436V85.5574C24.431 86.4305 24.9741 87.2117 25.7935 87.5173L48.9086 96.1391C51.7608 97.203 54.9029 97.1981 57.7518 96.1253L76.367 89.4381C79.4055 88.2939 82.7535 88.2705 85.8078 89.372L94.0018 91.8552C94.685 92.1016 95.4062 91.5964 95.4062 90.8713V89.7421C95.4062 88.874 95.9434 88.096 96.7562 87.7869L98.4951 87.1257C98.7656 87.0229 99.0684 87.1584 99.1715 87.4283C99.2745 87.6983 99.1388 88.0005 98.8683 88.1034L97.1294 88.7645C96.7229 88.9191 96.4543 89.308 96.4543 89.7421V90.8713C96.4543 92.3215 95.0121 93.3319 93.6456 92.8391L85.4515 90.3559C82.6322 89.3391 79.5418 89.3607 76.737 90.4169L58.1218 97.1042C55.0355 98.2663 51.6316 98.2716 48.5416 97.1191L25.4265 88.4973C24.1975 88.0389 23.3828 86.867 23.3828 85.5574V82.2436C23.3828 81.5448 23.7393 80.862 24.4079 80.5256C24.8937 80.2812 25.6095 79.9557 26.5733 79.6025C26.8451 79.5029 27.1462 79.6421 27.2459 79.9133Z" fill="black" stroke="black" style="fill:black;fill-opacity:1;stroke:black;stroke-opacity:1;" stroke-width="0.370227" stroke-linecap="round"/>
<path fill-rule="evenodd" clip-rule="evenodd" d="M26.1107 80.338C26.1773 80.498 26.1014 80.6817 25.941 80.7483C25.4609 80.9475 25.0779 81.127 24.7872 81.2732C24.4351 81.4504 24.2227 81.8219 24.2227 82.2442V82.7095C24.2227 82.8828 24.0819 83.0233 23.9082 83.0233C23.7345 83.0233 23.5938 82.8828 23.5938 82.7095V82.2442C23.5938 81.6143 23.9148 81.0092 24.5041 80.7127C24.8083 80.5597 25.2053 80.3738 25.6996 80.1687C25.86 80.1021 26.044 80.1779 26.1107 80.338ZM98.289 87.7649C98.3508 87.9269 98.2694 88.1082 98.1071 88.1699L97.056 88.5696C96.5683 88.755 96.246 89.2218 96.246 89.7427V90.8844C96.246 91.0577 96.1052 91.1982 95.9315 91.1982C95.7579 91.1982 95.6171 91.0577 95.6171 90.8844V89.7427C95.6171 88.9614 96.1006 88.2612 96.8321 87.983L97.8832 87.5834C98.0455 87.5217 98.2272 87.603 98.289 87.7649ZM23.9082 83.5614C24.0819 83.5614 24.2227 83.7019 24.2227 83.8753V85.0411C24.2227 85.2144 24.0819 85.3549 23.9082 85.3549C23.7345 85.3549 23.5938 85.2144 23.5938 85.0411V83.8753C23.5938 83.7019 23.7345 83.5614 23.9082 83.5614Z" fill="#66DD8C" style="fill:#66DD8C;fill:color(display-p3 0.4000 0.8667 0.5490);fill-opacity:1;"/>
<path fill-rule="evenodd" clip-rule="evenodd" d="M77.1977 89.7072C77.2564 89.8704 77.1715 90.0501 77.008 90.1087L75.484 90.6546C75.3206 90.7132 75.1405 90.6284 75.0818 90.4652C75.0232 90.3021 75.1081 90.1224 75.2716 90.0638L76.7956 89.5179C76.959 89.4593 77.1391 89.5441 77.1977 89.7072ZM74.1498 90.7991C74.2085 90.9623 74.1235 91.142 73.96 91.2005L67.8641 93.3843C67.7007 93.4429 67.5206 93.3581 67.4619 93.1949C67.4033 93.0318 67.4882 92.8521 67.6517 92.7935L73.7476 90.6097C73.911 90.5512 74.0911 90.636 74.1498 90.7991Z" fill="#66DD8C" style="fill:#66DD8C;fill:color(display-p3 0.4000 0.8667 0.5490);fill-opacity:1;"/>
<path d="M77.1977 89.7072C77.2564 89.8704 77.1715 90.0501 77.008 90.1087L75.484 90.6546C75.3206 90.7132 75.1405 90.6284 75.0818 90.4652C75.0232 90.3021 75.1081 90.1224 75.2716 90.0638L76.7956 89.5179C76.959 89.4593 77.1391 89.5441 77.1977 89.7072Z" fill="#66DD8C" style="fill:#66DD8C;fill:color(display-p3 0.4000 0.8667 0.5490);fill-opacity:1;"/>
<path d="M74.1498 90.7991C74.2085 90.9623 74.1235 91.142 73.96 91.2005L67.8641 93.3843C67.7007 93.4429 67.5206 93.3581 67.4619 93.1949C67.4033 93.0318 67.4882 92.8521 67.6517 92.7935L73.7476 90.6097C73.911 90.5512 74.0911 90.636 74.1498 90.7991Z" fill="#66DD8C" style="fill:#66DD8C;fill:color(display-p3 0.4000 0.8667 0.5490);fill-opacity:1;"/>
<path d="M118.324 106.153C121.683 107.373 121.699 109.356 118.36 110.582L91.9533 120.277C88.6141 121.503 83.1824 121.508 79.8232 120.288L53.26 110.638C49.9008 109.419 49.8851 107.435 53.2265 106.209L79.6307 96.5146C82.9698 95.2883 88.3993 95.2838 91.7586 96.5034L118.322 106.153H118.324Z" fill="#EBE9E9" stroke="black" style="fill:#EBE9E9;fill:color(display-p3 0.9216 0.9137 0.9137);fill-opacity:1;stroke:black;stroke-opacity:1;" stroke-width="0.370227" stroke-miterlimit="10"/>
<path d="M104.794 112.371L108.422 111.053C109.095 110.809 109.095 110.409 108.422 110.165L104.25 108.649L104.794 112.371Z" fill="black" style="fill:black;fill-opacity:1;"/>
<path d="M77.5889 104.419C78.927 104.419 80.2549 104.604 81.251 104.967H81.252L97.0781 110.694C97.5785 110.876 97.94 111.081 98.1729 111.29C98.4054 111.499 98.4971 111.699 98.4971 111.875C98.497 112.051 98.4054 112.251 98.1729 112.46C97.9409 112.669 97.5814 112.873 97.084 113.055L92.8887 114.406L92.8818 114.409C91.8823 114.772 90.5527 114.957 89.2148 114.957C88.0439 114.957 86.8802 114.816 85.9404 114.537L85.5518 114.409L69.7236 108.682C69.2237 108.5 68.8626 108.294 68.6299 108.085C68.3977 107.876 68.3068 107.676 68.3066 107.5C68.3066 107.324 68.3976 107.124 68.6299 106.915C68.8615 106.707 69.2202 106.502 69.7168 106.321L73.915 104.969L73.9209 104.967C74.9206 104.603 76.2507 104.419 77.5889 104.419Z" fill="white" stroke="black" style="fill:white;fill-opacity:1;stroke:black;stroke-opacity:1;" stroke-width="0.370227" stroke-miterlimit="10" stroke-linecap="round"/>
<path d="M106.522 110.814C106.717 111.113 106.583 111.516 106.248 111.639L96.7559 115.122L96.1113 106.896L101.902 103.722L106.522 110.814Z" fill="#EBE9E9" stroke="black" style="fill:#EBE9E9;fill:color(display-p3 0.9216 0.9137 0.9137);fill-opacity:1;stroke:black;stroke-opacity:1;" stroke-width="0.370227"/>
<path d="M72.9111 94.0215C73.196 93.4142 73.8971 93.1241 74.5273 93.3535L100.955 102.978C101.67 103.238 102.009 104.056 101.686 104.745L97.1338 114.446C96.8489 115.053 96.1478 115.343 95.5176 115.113L69.0889 105.49C68.3738 105.23 68.0362 104.412 68.3594 103.723L72.9111 94.0215Z" fill="white" stroke="black" style="fill:white;fill-opacity:1;stroke:black;stroke-opacity:1;" stroke-width="0.370227"/>
<path d="M73.781 96.7232C74.1049 96.0327 74.9003 95.7012 75.6187 95.9572L97.8314 103.873C98.6548 104.166 99.0463 105.105 98.675 105.896L95.9695 111.663C95.6456 112.354 94.8502 112.685 94.1318 112.429L71.9191 104.514C71.0957 104.22 70.7042 103.281 71.0755 102.49L73.781 96.7232Z" fill="black" style="fill:black;fill-opacity:1;"/>
<mask id="mask5_1460_13314" style="mask-type:alpha" maskUnits="userSpaceOnUse" x="70" y="95" width="29" height="18">
<path d="M73.781 96.7232C74.1049 96.0327 74.9003 95.7012 75.6187 95.9572L97.8314 103.873C98.6549 104.166 99.0463 105.105 98.675 105.896L95.9696 111.663C95.6456 112.354 94.8502 112.685 94.1318 112.429L71.9191 104.514C71.0957 104.22 70.7042 103.281 71.0755 102.49L73.781 96.7232Z" fill="black" style="fill:black;fill-opacity:1;"/>
</mask>
<g mask="url(#mask5_1460_13314)">
<path d="M73.1058 102.664L72.2908 102.363L71.7468 103.518L72.5617 103.819L73.1058 102.664Z" fill="#66DD8C" style="fill:#66DD8C;fill:color(display-p3 0.4000 0.8667 0.5490);fill-opacity:1;"/>
<path d="M93.0237 107.101L92.2088 106.801L91.6648 107.956L92.4797 108.256L93.0237 107.101Z" fill="#66DD8C" style="fill:#66DD8C;fill:color(display-p3 0.4000 0.8667 0.5490);fill-opacity:1;"/>
<path d="M89.3987 101.577L88.5838 101.276L88.0398 102.431L88.8547 102.732L89.3987 101.577Z" fill="#66DD8C" style="fill:#66DD8C;fill:color(display-p3 0.4000 0.8667 0.5490);fill-opacity:1;"/>
<path d="M76.121 100.409L75.3061 100.109L73.36 104.088L74.1749 104.388L76.121 100.409Z" fill="#66DD8C" style="fill:#66DD8C;fill:color(display-p3 0.4000 0.8667 0.5490);fill-opacity:1;"/>
<path d="M81.5156 101.373L80.7006 101.073L78.7545 105.051L79.5695 105.352L81.5156 101.373Z" fill="#66DD8C" style="fill:#66DD8C;fill:color(display-p3 0.4000 0.8667 0.5490);fill-opacity:1;"/>
<path d="M84.3242 99.7283L83.5092 99.428L81.5631 103.407L82.3781 103.707L84.3242 99.7283Z" fill="#66DD8C" style="fill:#66DD8C;fill:color(display-p3 0.4000 0.8667 0.5490);fill-opacity:1;"/>
<path d="M93.0468 102.807L92.2319 102.507L90.2858 106.486L91.1007 106.786L93.0468 102.807Z" fill="#66DD8C" style="fill:#66DD8C;fill:color(display-p3 0.4000 0.8667 0.5490);fill-opacity:1;"/>
<path d="M96.496 107.889L95.6811 107.589L93.735 111.568L94.5499 111.868L96.496 107.889Z" fill="#66DD8C" style="fill:#66DD8C;fill:color(display-p3 0.4000 0.8667 0.5490);fill-opacity:1;"/>
<path d="M87.3252 101.885L86.5103 101.585L84.1611 106.262L84.976 106.562L87.3252 101.885Z" fill="#66DD8C" style="fill:#66DD8C;fill:color(display-p3 0.4000 0.8667 0.5490);fill-opacity:1;"/>
<path d="M78.5421 99.4426L77.7272 99.1424L76.3301 101.936L77.145 102.236L78.5421 99.4426Z" fill="#66DD8C" style="fill:#66DD8C;fill:color(display-p3 0.4000 0.8667 0.5490);fill-opacity:1;"/>
<path d="M79.1037 102.233L78.2888 101.932L77.3199 103.902L78.1349 104.202L79.1037 102.233Z" fill="#66DD8C" style="fill:#66DD8C;fill:color(display-p3 0.4000 0.8667 0.5490);fill-opacity:1;"/>
<path d="M85.3303 101.79L84.5153 101.49L83.5465 103.459L84.3614 103.759L85.3303 101.79Z" fill="#66DD8C" style="fill:#66DD8C;fill:color(display-p3 0.4000 0.8667 0.5490);fill-opacity:1;"/>
<path d="M91.2404 102.18L90.4255 101.88L89.4566 103.849L90.2716 104.149L91.2404 102.18Z" fill="#66DD8C" style="fill:#66DD8C;fill:color(display-p3 0.4000 0.8667 0.5490);fill-opacity:1;"/>
<path d="M94.1428 108.76L93.3278 108.46L92.359 110.429L93.1739 110.729L94.1428 108.76Z" fill="#66DD8C" style="fill:#66DD8C;fill:color(display-p3 0.4000 0.8667 0.5490);fill-opacity:1;"/>
<path d="M88.5588 103.283L87.7438 102.983L86.7606 104.978L87.5755 105.278L88.5588 103.283Z" fill="#66DD8C" style="fill:#66DD8C;fill:color(display-p3 0.4000 0.8667 0.5490);fill-opacity:1;"/>
<path d="M95.0159 106.988L94.201 106.688L93.657 107.842L94.4719 108.143L95.0159 106.988Z" fill="#66DD8C" style="fill:#66DD8C;fill:color(display-p3 0.4000 0.8667 0.5490);fill-opacity:1;"/>
<path d="M88.6058 107.716L87.7908 107.416L87.2468 108.571L88.0617 108.871L88.6058 107.716Z" fill="#66DD8C" style="fill:#66DD8C;fill:color(display-p3 0.4000 0.8667 0.5490);fill-opacity:1;"/>
<path d="M81.8089 104.782L80.994 104.481L80.4499 105.636L81.2649 105.937L81.8089 104.782Z" fill="#66DD8C" style="fill:#66DD8C;fill:color(display-p3 0.4000 0.8667 0.5490);fill-opacity:1;"/>
<path d="M77.012 98.5933L76.1971 98.293L75.6531 99.4479L76.468 99.7482L77.012 98.5933Z" fill="#66DD8C" style="fill:#66DD8C;fill:color(display-p3 0.4000 0.8667 0.5490);fill-opacity:1;"/>
<path d="M79.2025 98.094L78.3876 97.7937L78.0199 98.5117L78.8348 98.812L79.2025 98.094Z" fill="#66DD8C" style="fill:#66DD8C;fill:color(display-p3 0.4000 0.8667 0.5490);fill-opacity:1;"/>
<path d="M97.4104 106.109L96.5955 105.809L96.0515 106.964L96.8664 107.264L97.4104 106.109Z" fill="#66DD8C" style="fill:#66DD8C;fill:color(display-p3 0.4000 0.8667 0.5490);fill-opacity:1;"/>
</g>
<path d="M73.9482 96.8018C74.2317 96.1976 74.928 95.9078 75.5566 96.1318L97.7695 104.047C98.4897 104.304 98.8322 105.125 98.5078 105.817L95.8018 111.585C95.5182 112.189 94.8227 112.479 94.1943 112.255L71.9814 104.34C71.2609 104.083 70.9183 103.261 71.2432 102.568L73.9482 96.8018Z" stroke="black" style="stroke:black;stroke-opacity:1;" stroke-width="0.370227"/>
</svg>
