<svg width="22" height="22" viewBox="0 0 22 22" fill="none" xmlns="http://www.w3.org/2000/svg">
<path fill-rule="evenodd" clip-rule="evenodd" d="M22 18.4814C22 19.1817 21.7893 19.8532 21.4142 20.3483C21.0391 20.8435 20.5304 21.1216 20 21.1216H2C1.46957 21.1216 0.960859 20.8435 0.585786 20.3483C0.210714 19.8532 0 19.1817 0 18.4814V14.3733L0.5 13.9931C0.95634 13.6453 1.33524 13.1449 1.59856 12.5424C1.86188 11.9399 2.00034 11.2564 2 10.5608C2.00034 9.86521 1.86188 9.18175 1.59856 8.57923C1.33524 7.9767 0.95634 7.47636 0.5 7.12855L0 6.74836V2.6402C0 1.93998 0.210714 1.26843 0.585786 0.773298C0.960859 0.278164 1.46957 0 2 0H20C20.5304 0 21.0391 0.278164 21.4142 0.773298C21.7893 1.26843 22 1.93998 22 2.6402V6.74836L21.5 7.12855C21.0437 7.47636 20.6648 7.9767 20.4014 8.57923C20.1381 9.18175 19.9997 9.86521 20 10.5608C20 11.9918 20.579 13.2882 21.5 13.9931L22 14.3733V18.4814ZM18 10.5608C18 8.44866 18.759 6.50811 20 5.28041V2.6402H14C14 2.99032 13.8946 3.32609 13.7071 3.57366C13.5196 3.82123 13.2652 3.96031 13 3.96031C12.7348 3.96031 12.4804 3.82123 12.2929 3.57366C12.1054 3.32609 12 2.99032 12 2.6402H2V5.28041C3.241 6.50811 4 8.44866 4 10.5608C4 12.673 3.241 14.6135 2 15.8412V18.4814H12C12 18.1313 12.1054 17.7955 12.2929 17.548C12.4804 17.3004 12.7348 17.1613 13 17.1613C13.2652 17.1613 13.5196 17.3004 13.7071 17.548C13.8946 17.7955 14 18.1313 14 18.4814H20V15.8412C18.759 14.6135 18 12.673 18 10.5608ZM13 15.8412C13.2652 15.8412 13.5196 15.7021 13.7071 15.4546C13.8946 15.207 14 14.8712 14 14.5211C14 14.171 13.8946 13.8352 13.7071 13.5877C13.5196 13.3401 13.2652 13.201 13 13.201C12.7348 13.201 12.4804 13.3401 12.2929 13.5877C12.1054 13.8352 12 14.171 12 14.5211C12 14.8712 12.1054 15.207 12.2929 15.4546C12.4804 15.7021 12.7348 15.8412 13 15.8412ZM14 10.5608C14 10.9109 13.8946 11.2467 13.7071 11.4943C13.5196 11.7418 13.2652 11.8809 13 11.8809C12.7348 11.8809 12.4804 11.7418 12.2929 11.4943C12.1054 11.2467 12 10.9109 12 10.5608C12 10.2107 12.1054 9.87493 12.2929 9.62737C12.4804 9.3798 12.7348 9.24072 13 9.24072C13.2652 9.24072 13.5196 9.3798 13.7071 9.62737C13.8946 9.87493 14 10.2107 14 10.5608ZM13 7.92061C13.2652 7.92061 13.5196 7.78153 13.7071 7.53397C13.8946 7.2864 14 6.95063 14 6.60051C14 6.2504 13.8946 5.91463 13.7071 5.66706C13.5196 5.41949 13.2652 5.28041 13 5.28041C12.7348 5.28041 12.4804 5.41949 12.2929 5.66706C12.1054 5.91463 12 6.2504 12 6.60051C12 6.95063 12.1054 7.2864 12.2929 7.53397C12.4804 7.78153 12.7348 7.92061 13 7.92061Z" fill="#03A39E" style="fill:#03A39E;fill:color(display-p3 0.0118 0.6392 0.6196);fill-opacity:1;"/>
</svg>
