<svg width="24" height="24" viewBox="0 0 24 24" fill="none" xmlns="http://www.w3.org/2000/svg">
<path d="M13 15.998C13 16.2632 12.8946 16.5176 12.7071 16.7051C12.5196 16.8926 12.2652 16.998 12 16.998C11.7348 16.998 11.4804 16.8926 11.2929 16.7051C11.1054 16.5176 11 16.2632 11 15.998C11 15.7328 11.1054 15.4784 11.2929 15.2909C11.4804 15.1034 11.7348 14.998 12 14.998C12.2652 14.998 12.5196 15.1034 12.7071 15.2909C12.8946 15.4784 13 15.7328 13 15.998ZM13 14H11C11 12.298 11.625 11.57 13.053 10.856C13.875 10.445 14 10.298 14 9.5C14 8.556 13.277 8 12 8C11.4696 8 10.9609 8.21071 10.5858 8.58579C10.2107 8.96086 10 9.46957 10 10C10 10.2652 9.89464 10.5196 9.70711 10.7071C9.51957 10.8946 9.26522 11 9 11C8.73478 11 8.48043 10.8946 8.29289 10.7071C8.10536 10.5196 8 10.2652 8 10C8 8.93913 8.42143 7.92172 9.17157 7.17157C9.92172 6.42143 10.9391 6 12 6C14.284 6 16 7.32 16 9.5C16 11.202 15.375 11.93 13.947 12.644C13.125 13.055 13 13.202 13 14Z" fill="#66686A" style="fill:#66686A;fill:color(display-p3 0.4000 0.4078 0.4157);fill-opacity:1;"/>
<path fill-rule="evenodd" clip-rule="evenodd" d="M12 23C5.925 23 1 18.075 1 12C1 5.925 5.925 1 12 1C18.075 1 23 5.925 23 12C23 18.075 18.075 23 12 23ZM12 21C13.1819 21 14.3522 20.7672 15.4442 20.3149C16.5361 19.8626 17.5282 19.1997 18.364 18.364C19.1997 17.5282 19.8626 16.5361 20.3149 15.4442C20.7672 14.3522 21 13.1819 21 12C21 10.8181 20.7672 9.64778 20.3149 8.55585C19.8626 7.46392 19.1997 6.47177 18.364 5.63604C17.5282 4.80031 16.5361 4.13738 15.4442 3.68508C14.3522 3.23279 13.1819 3 12 3C9.61305 3 7.32387 3.94821 5.63604 5.63604C3.94821 7.32387 3 9.61305 3 12C3 14.3869 3.94821 16.6761 5.63604 18.364C7.32387 20.0518 9.61305 21 12 21Z" fill="#66686A" style="fill:#66686A;fill:color(display-p3 0.4000 0.4078 0.4157);fill-opacity:1;"/>
<path fill-rule="evenodd" clip-rule="evenodd" d="M12 23C5.925 23 1 18.075 1 12C1 5.925 5.925 1 12 1C18.075 1 23 5.925 23 12C23 18.075 18.075 23 12 23ZM12 21C13.1819 21 14.3522 20.7672 15.4442 20.3149C16.5361 19.8626 17.5282 19.1997 18.364 18.364C19.1997 17.5282 19.8626 16.5361 20.3149 15.4442C20.7672 14.3522 21 13.1819 21 12C21 10.8181 20.7672 9.64778 20.3149 8.55585C19.8626 7.46392 19.1997 6.47177 18.364 5.63604C17.5282 4.80031 16.5361 4.13738 15.4442 3.68508C14.3522 3.23279 13.1819 3 12 3C9.61305 3 7.32387 3.94821 5.63604 5.63604C3.94821 7.32387 3 9.61305 3 12C3 14.3869 3.94821 16.6761 5.63604 18.364C7.32387 20.0518 9.61305 21 12 21Z" fill="#66686A" style="fill:#66686A;fill:color(display-p3 0.4000 0.4078 0.4157);fill-opacity:1;"/>
</svg>
