<svg width="20" height="16" viewBox="0 0 20 16" fill="none" xmlns="http://www.w3.org/2000/svg">
<path d="M0.80022 7.45243C2.74115 6.38334 4.90774 5.49103 6.93209 4.59417C10.4148 3.1252 13.9113 1.68168 17.4431 0.337778C18.1302 0.108805 19.3649 -0.11509 19.486 0.903204C19.4197 2.34465 19.147 3.77765 18.9599 5.21065C18.4852 8.36196 17.9364 11.5025 17.4013 14.6434C17.2169 15.6897 15.9063 16.2312 15.0677 15.5617C13.0523 14.2004 11.0215 12.8523 9.03184 11.4594C8.3801 10.7972 8.98447 9.84614 9.56654 9.37323C11.2265 7.73739 12.9868 6.34755 14.56 4.62717C14.9843 3.60246 13.7305 4.46605 13.3169 4.73069C11.0445 6.29665 8.82767 7.95823 6.43181 9.33451C5.20801 10.0082 3.78165 9.43248 2.5584 9.05658C1.46163 8.60246 -0.145587 8.14495 0.800109 7.45256L0.80022 7.45243Z" fill="white"/>
</svg>
