<svg width="22" height="23" viewBox="0 0 22 23" fill="none" xmlns="http://www.w3.org/2000/svg">
<g clip-path="url(#clip0_577_2370)">
<path d="M3.66797 6.91667H18.3346" stroke="#94979C" style="stroke:#94979C;stroke:color(display-p3 0.5804 0.5922 0.6118);stroke-opacity:1;" stroke-width="2" stroke-linecap="round" stroke-linejoin="round"/>
<path d="M9.16797 10.5833V16.0833" stroke="#94979C" style="stroke:#94979C;stroke:color(display-p3 0.5804 0.5922 0.6118);stroke-opacity:1;" stroke-width="2" stroke-linecap="round" stroke-linejoin="round"/>
<path d="M12.832 10.5833V16.0833" stroke="#94979C" style="stroke:#94979C;stroke:color(display-p3 0.5804 0.5922 0.6118);stroke-opacity:1;" stroke-width="2" stroke-linecap="round" stroke-linejoin="round"/>
<path d="M4.58203 6.91667L5.4987 17.9167C5.4987 18.4029 5.69185 18.8692 6.03567 19.213C6.37949 19.5568 6.8458 19.75 7.33203 19.75H14.6654C15.1516 19.75 15.6179 19.5568 15.9617 19.213C16.3055 18.8692 16.4987 18.4029 16.4987 17.9167L17.4154 6.91667" stroke="#94979C" style="stroke:#94979C;stroke:color(display-p3 0.5804 0.5922 0.6118);stroke-opacity:1;" stroke-width="2" stroke-linecap="round" stroke-linejoin="round"/>
<path d="M8.25 6.91667V4.16667C8.25 3.92355 8.34658 3.69039 8.51849 3.51849C8.69039 3.34658 8.92355 3.25 9.16667 3.25H12.8333C13.0764 3.25 13.3096 3.34658 13.4815 3.51849C13.6534 3.69039 13.75 3.92355 13.75 4.16667V6.91667" stroke="#94979C" style="stroke:#94979C;stroke:color(display-p3 0.5804 0.5922 0.6118);stroke-opacity:1;" stroke-width="2" stroke-linecap="round" stroke-linejoin="round"/>
</g>
<defs>
<clipPath id="clip0_577_2370">
<rect width="22" height="22" fill="white" style="fill:white;fill-opacity:1;" transform="translate(0 0.5)"/>
</clipPath>
</defs>
</svg>
